<svg width="34" height="16" viewBox="0 0 34 16" fill="none" xmlns="http://www.w3.org/2000/svg">
<path id="Arrow 1" d="M1.00146 6.99991C0.449174 6.99897 0.000697553 7.44592 -0.00024271 7.9982C-0.00118291 8.55049 0.445769 8.99896 0.998053 8.9999L1.00146 6.99991ZM33.7057 8.76269C34.0968 8.37284 34.0979 7.73967 33.7081 7.34848L27.3549 0.973696C26.9651 0.582508 26.3319 0.581429 25.9407 0.971289C25.5495 1.36115 25.5485 1.99431 25.9383 2.3855L31.5855 8.05198L25.9191 13.6992C25.5279 14.0891 25.5268 14.7222 25.9167 15.1134C26.3065 15.5046 26.9397 15.5057 27.3309 15.1158L33.7057 8.76269ZM0.998053 8.9999L32.9981 9.05438L33.0015 7.05439L1.00146 6.99991L0.998053 8.9999Z" fill="white"/>
</svg>
