<svg width="86" height="55" viewBox="0 0 86 55" fill="none" xmlns="http://www.w3.org/2000/svg">
<path d="M0.999998 3.38026L1 51.6197C1 52.9343 2.06568 54 3.38026 54L82.0029 54C83.3175 54 84.3832 52.9343 84.3832 51.6197L84.3832 3.38026C84.3832 2.06568 83.3175 0.999996 82.0029 0.999997L3.38026 1C2.06568 1 0.999998 2.06568 0.999998 3.38026Z" fill="white" stroke="#141414" stroke-width="2"/>
<rect x="6.3418" y="6.33984" width="11.9362" height="11.9364" fill="white"/>
<rect x="6.3418" y="6.33984" width="11.9362" height="11.9364" fill="#3E3E3E"/>
<rect x="6.3418" y="6.33984" width="11.9362" height="11.9364" stroke="#141414" stroke-width="1.89712"/>
<rect x="21.5322" y="6.33887" width="11.9362" height="11.9364" stroke="#141414" stroke-width="1.89712"/>
<rect x="36.7236" y="6.33887" width="11.9362" height="11.9364" fill="white"/>
<rect x="36.7236" y="6.33887" width="11.9362" height="11.9364" fill="#3E3E3E"/>
<rect x="36.7236" y="6.33887" width="11.9362" height="11.9364" stroke="#141414" stroke-width="1.89712"/>
<rect x="51.916" y="6.33887" width="11.9362" height="11.9364" stroke="#141414" stroke-width="1.89712"/>
<rect x="67.1074" y="6.33887" width="11.9362" height="11.9364" stroke="#141414" stroke-width="1.89712"/>
<rect x="6.34082" y="21.5293" width="11.9362" height="11.9364" stroke="#141414" stroke-width="1.89712"/>
<rect x="21.5312" y="21.5293" width="11.9362" height="11.9364" stroke="#141414" stroke-width="1.89712"/>
<rect x="36.7236" y="21.5293" width="11.9362" height="11.9364" fill="white"/>
<rect x="36.7236" y="21.5293" width="11.9362" height="11.9364" fill="#3E3E3E"/>
<rect x="36.7236" y="21.5293" width="11.9362" height="11.9364" stroke="#141414" stroke-width="1.89712"/>
<rect x="51.915" y="21.5293" width="11.9362" height="11.9364" stroke="#141414" stroke-width="1.89712"/>
<rect x="67.1064" y="21.5293" width="11.9362" height="11.9364" stroke="#141414" stroke-width="1.89712"/>
<rect x="6.34082" y="36.7207" width="11.9362" height="11.9364" stroke="#141414" stroke-width="1.89712"/>
<rect x="21.5312" y="36.7207" width="11.9362" height="11.9364" stroke="#141414" stroke-width="1.89712"/>
<rect x="36.7236" y="36.7207" width="11.9362" height="11.9364" stroke="#141414" stroke-width="1.89712"/>
<rect x="51.915" y="36.7207" width="11.9362" height="11.9364" stroke="#141414" stroke-width="1.89712"/>
<rect x="67.1064" y="36.7207" width="11.9362" height="11.9364" fill="white"/>
<rect x="67.1064" y="36.7207" width="11.9362" height="11.9364" fill="#3E3E3E"/>
<rect x="67.1064" y="36.7207" width="11.9362" height="11.9364" stroke="#141414" stroke-width="1.89712"/>
<path d="M8.51074 8.50879L16.1065 16.1044M8.51074 16.1044L16.1065 8.50879" stroke="#F4C669" stroke-width="4.14078" stroke-linecap="round"/>
<path d="M38.8945 8.50879L46.4903 16.1044M38.8945 16.1044L46.4903 8.50879" stroke="#F4C669" stroke-width="4.14078" stroke-linecap="round"/>
<path d="M38.8945 23.7012L46.4903 31.2968M38.8945 31.2968L46.4903 23.7012" stroke="#F4C669" stroke-width="4.14078" stroke-linecap="round"/>
<path d="M69.2773 38.8926L76.8731 46.4882M69.2773 46.4882L76.8731 38.8926" stroke="#F4C669" stroke-width="4.14078" stroke-linecap="round"/>
</svg>
