<svg width="70" height="70" viewBox="200 0 80 80" fill="none" xmlns="http://www.w3.org/2000/svg">
<ellipse cx="238.5" cy="67.501" rx="13.5" ry="2.5" fill="black" fill-opacity="0.055"/>
<path fill-rule="evenodd" clip-rule="evenodd" d="M237.829 59.2114L235.56 63.382C236.441 63.4996 237.34 63.5603 238.253 63.5603C249.867 63.5603 259.283 53.7311 259.283 41.6063C259.283 31.8853 253.23 23.64 244.845 20.7527L244.276 25.8542C243.723 30.4274 244.552 34.8212 246.21 39.1253C247.24 41.7534 248.48 44.7635 249.469 47.165L249.469 47.1655C250.336 49.2703 251.01 50.9075 251.182 51.4101C251.367 51.9481 251.367 52.3965 251.367 52.8448C251.275 54.0105 250.814 54.6382 249.985 55.5349C249.064 56.611 247.591 58.3147 246.67 59.2114C245.933 59.9288 244.736 61.0945 243.539 60.0184C242.25 58.9424 242.894 57.687 243.631 56.88C244.345 56.0693 244.943 55.4082 245.625 54.6553L245.625 54.6546C245.999 54.2417 246.398 53.8012 246.854 53.2932C247.13 53.0242 247.223 52.4861 246.946 52.0378C246.578 51.3204 245.657 49.527 245.289 48.8994C244.828 48.0027 243.999 47.644 242.986 48.0027L241.237 48.451C240.224 48.8097 239.671 49.8857 239.579 50.9618L238.842 56.342C238.75 57.418 238.382 58.3147 237.829 59.2114ZM217.222 41.6063C217.222 51.2511 223.18 59.4433 231.463 62.391L233.593 57.7773C234.054 56.8806 234.422 55.5356 234.514 54.5492C234.514 54.5492 235.067 48.2723 235.159 46.2099C235.159 44.7752 233.87 41.5471 233.225 40.0227C232.112 37.567 230.223 36.7984 227.413 35.6551C226.734 35.379 226.001 35.081 225.213 34.7321C223.744 34.1102 220.813 33.0139 219.155 32.4003C217.915 35.2001 217.222 38.3188 217.222 41.6063ZM224.332 30.4249C223.087 29.9483 222.001 29.5325 220.937 29.1443C222.633 26.5803 224.839 24.4116 227.401 22.7972C227.033 23.4807 226.825 24.2547 226.825 25.0745C226.825 27.8469 229.198 30.0944 232.124 30.0944C235.05 30.0944 237.423 27.8469 237.423 25.0745C237.423 22.7459 235.749 20.7876 233.479 20.2203C235.013 19.8488 236.611 19.6523 238.253 19.6523C239.188 19.6523 240.109 19.7161 241.012 19.8396C240.884 20.7999 240.742 21.8489 240.605 22.8674L240.605 22.8702C240.311 25.0566 240.035 27.1021 239.948 27.8276C239.618 30.1537 238.331 30.8295 237.008 31.5239L237.008 31.5239C236.852 31.6058 236.696 31.6879 236.54 31.773L236.411 31.8388C234.361 32.8813 232.885 33.6322 229.818 32.4904C227.592 31.6725 225.845 31.0039 224.332 30.4249Z" fill="#141414"/>
<mask id="path-3-outside-1_919_7496" maskUnits="userSpaceOnUse" x="216" y="15.0009" width="36" height="53" fill="black">
<rect fill="white" x="216" y="15.0009" width="36" height="53"/>
<path fill-rule="evenodd" clip-rule="evenodd" d="M231.864 19.6093C229.228 19.8868 227.228 22.2921 227.501 24.9749C227.774 27.6578 230.137 29.6005 232.773 29.4155C235.409 29.138 237.409 26.7327 237.137 24.0498C236.864 21.367 234.5 19.3318 231.864 19.6093Z"/>
</mask>
<path d="M233.494 65.8265C233.269 66.2314 233.415 66.742 233.82 66.9668C234.225 67.1917 234.735 67.0458 234.96 66.6409L233.494 65.8265ZM237.772 59.8504L237.05 59.4245C237.046 59.4307 237.043 59.4369 237.039 59.4432L237.772 59.8504ZM238.772 56.8901L237.941 56.7811C237.939 56.7946 237.938 56.8081 237.936 56.8216L238.772 56.8901ZM239.5 51.3394L240.331 51.4484C240.333 51.4349 240.334 51.4214 240.335 51.4079L239.5 51.3394ZM241.136 48.7491L240.919 47.939C240.894 47.9457 240.869 47.9536 240.845 47.9626L241.136 48.7491ZM242.863 48.2865L243.08 49.0966C243.105 49.0899 243.13 49.0821 243.154 49.0731L242.863 48.2865ZM245.136 49.2117L244.383 49.5815C244.39 49.5953 244.397 49.6089 244.404 49.6223L245.136 49.2117ZM246.772 52.4495L246.019 52.8193C246.028 52.8384 246.039 52.8571 246.049 52.8754L246.772 52.4495ZM246.681 53.7447L246.083 53.1569C246.07 53.1702 246.057 53.1839 246.045 53.1979L246.681 53.7447ZM245.467 55.15L244.833 54.601H244.833L245.467 55.15ZM243.499 57.4451L244.131 57.9968C244.134 57.993 244.137 57.9892 244.141 57.9854L243.499 57.4451ZM243.408 60.683L243.983 60.0718C243.975 60.0647 243.967 60.0578 243.96 60.051L243.408 60.683ZM246.499 59.8504L247.097 60.4382L247.097 60.4382L246.499 59.8504ZM249.772 56.0575L249.143 55.5019C249.136 55.5099 249.129 55.5179 249.123 55.5262L249.772 56.0575ZM251.135 53.2821L251.971 53.3453C251.973 53.3243 251.974 53.3032 251.974 53.2821H251.135ZM250.953 51.802L250.156 52.063V52.063L250.953 51.802ZM249.262 47.4222L248.482 47.7297V47.7297L249.262 47.4222ZM246.045 39.128L245.258 39.4179L245.259 39.4226L246.045 39.128ZM244.136 25.4363L244.969 25.5326L244.969 25.5254L244.136 25.4363ZM245.879 17.0144C245.928 16.5538 245.594 16.1406 245.134 16.0914C244.673 16.0422 244.26 16.3757 244.211 16.8363L245.879 17.0144ZM233.591 58.3709L232.838 58.0011L232.835 58.0088L233.591 58.3709ZM234.5 55.0405L235.336 55.1151L235.336 55.1109L234.5 55.0405ZM235.137 46.437L235.974 46.4728C235.975 46.4608 235.975 46.4489 235.975 46.437H235.137ZM233.228 40.0537L234.005 39.7392C234.002 39.7328 234 39.7265 233.997 39.7201L233.228 40.0537ZM227.49 35.5478L227.818 34.776H227.818L227.49 35.5478ZM225.319 34.5956L225.671 33.8343L225.658 33.8286L225.319 34.5956ZM218.138 31.7277L218.437 30.9442L218.429 30.9412L218.138 31.7277ZM217.138 29.3224L217.928 29.6046H217.928L217.138 29.3224ZM219.683 28.3048L219.367 29.0816C219.377 29.0858 219.388 29.0898 219.398 29.0936L219.683 28.3048ZM224.449 30.1518L224.761 29.3732L224.449 30.1518ZM229.864 32.2828L230.168 31.5012L230.165 31.4999L229.864 32.2828ZM236.372 31.6105L235.979 30.87L235.979 30.87L236.372 31.6105ZM236.5 31.5427L236.893 32.2834C236.901 32.2792 236.909 32.2749 236.917 32.2705L236.5 31.5427ZM236.962 31.2856L236.559 30.5504L236.962 31.2856ZM239.864 27.4722L240.695 27.5849C240.695 27.5794 240.696 27.574 240.697 27.5685L239.864 27.4722ZM240.512 22.3579L239.681 22.2507L240.512 22.3579ZM242.151 16.0991C242.205 15.6391 241.876 15.2222 241.416 15.168C240.956 15.1137 240.539 15.4427 240.485 15.9026L242.151 16.0991ZM229.38 65.2246C229.18 65.6424 229.357 66.1432 229.775 66.3432C230.193 66.5432 230.693 66.3666 230.893 65.9489L229.38 65.2246ZM234.96 66.6409L238.506 60.2576L237.039 59.4432L233.494 65.8265L234.96 66.6409ZM238.495 60.2764C239.086 59.2741 239.504 58.2272 239.608 56.9585L237.936 56.8216C237.859 57.7732 237.55 58.5765 237.05 59.4245L238.495 60.2764ZM239.604 56.999L240.331 51.4484L238.668 51.2305L237.941 56.7811L239.604 56.999ZM240.335 51.4079C240.413 50.4552 240.864 49.744 241.427 49.5356L240.845 47.9626C239.408 48.4943 238.767 50.0033 238.664 51.271L240.335 51.4079ZM241.353 49.5592L243.08 49.0966L242.646 47.4765L240.919 47.939L241.353 49.5592ZM243.154 49.0731C243.495 48.947 243.725 48.9723 243.88 49.0369C244.039 49.1035 244.224 49.2572 244.383 49.5815L245.888 48.8419C245.593 48.241 245.142 47.7471 244.528 47.4899C243.909 47.2308 243.231 47.2561 242.572 47.5L243.154 49.0731ZM244.404 49.6223C244.753 50.2439 245.648 52.0651 246.019 52.8193L247.524 52.0797C247.168 51.3537 246.245 49.4745 245.867 48.8011L244.404 49.6223ZM246.049 52.8754C246.09 52.9437 246.103 53.0184 246.096 53.0845C246.089 53.1598 246.062 53.1777 246.083 53.1569L247.279 54.3325C247.841 53.7604 247.942 52.7836 247.494 52.0236L246.049 52.8754ZM246.045 53.1979C245.595 53.7211 245.202 54.1747 244.833 54.601L246.101 55.699C246.47 55.2729 246.865 54.8171 247.317 54.2914L246.045 53.1979ZM244.833 54.601C244.161 55.3775 243.566 56.0636 242.858 56.9049L244.141 57.9854C244.841 57.1541 245.428 56.4761 246.101 55.699L244.833 54.601ZM242.868 56.8934C242.459 57.3613 242.003 58.0362 241.876 58.8272C241.737 59.6901 242.011 60.577 242.857 61.315L243.96 60.051C243.533 59.6789 243.489 59.3632 243.532 59.0928C243.587 58.7505 243.812 58.3616 244.131 57.9968L242.868 56.8934ZM242.834 61.2943C243.241 61.6766 243.7 61.9043 244.196 61.9589C244.681 62.0125 245.121 61.8911 245.485 61.7177C246.177 61.388 246.757 60.7846 247.097 60.4382L245.901 59.2626C245.514 59.6564 245.14 60.0243 244.763 60.2034C244.593 60.2845 244.471 60.3018 244.379 60.2918C244.298 60.2828 244.166 60.2445 243.983 60.0718L242.834 61.2943ZM247.097 60.4382C248.039 59.4803 249.519 57.6896 250.42 56.5888L249.123 55.5262C248.206 56.6456 246.778 58.3704 245.901 59.2626L247.097 60.4382ZM250.4 56.613C250.815 56.1439 251.19 55.6885 251.467 55.1673C251.753 54.6276 251.918 54.0509 251.971 53.3453L250.299 53.2189C250.261 53.7161 250.153 54.0645 249.985 54.3805C249.808 54.715 249.547 55.0459 249.143 55.5019L250.4 56.613ZM251.974 53.2821V53.2821H250.296V53.2821H251.974ZM251.974 53.2821C251.974 52.8194 251.978 52.2359 251.75 51.5409L250.156 52.063C250.292 52.4782 250.296 52.8198 250.296 53.2821H251.974ZM251.75 51.5409C251.57 50.9915 250.89 49.2658 250.042 47.1147L248.482 47.7297C249.346 49.9223 249.997 51.5753 250.156 52.063L251.75 51.5409ZM250.042 47.1147C249.065 44.6358 247.844 41.5371 246.83 38.8334L245.259 39.4226C246.279 42.1415 247.506 45.2535 248.482 47.7297L250.042 47.1147ZM246.831 38.838C245.228 34.487 244.442 30.0884 244.969 25.5326L243.302 25.34C242.738 30.2203 243.588 34.8879 245.258 39.4179L246.831 38.838ZM244.969 25.5254L245.879 17.0144L244.211 16.8363L243.302 25.3473L244.969 25.5254ZM234.344 58.7407C234.848 57.7137 235.236 56.2244 235.336 55.1151L233.665 54.9659C233.582 55.8918 233.243 57.1778 232.839 58.0011L234.344 58.7407ZM234.5 55.0405C235.336 55.1109 235.336 55.1108 235.336 55.1108C235.336 55.1107 235.336 55.1107 235.336 55.1106C235.336 55.1104 235.336 55.1101 235.336 55.1097C235.336 55.1089 235.336 55.1077 235.336 55.1061C235.337 55.1029 235.337 55.0982 235.338 55.0921C235.339 55.0797 235.34 55.0613 235.342 55.0373C235.346 54.9892 235.352 54.9184 235.36 54.8277C235.375 54.6462 235.396 54.3846 235.423 54.064C235.475 53.423 235.546 52.5459 235.62 51.6022C235.768 49.7216 235.928 47.5546 235.974 46.4728L234.299 46.4012C234.254 47.4471 234.096 49.5819 233.948 51.4711C233.874 52.4123 233.804 53.2872 233.751 53.9268C233.725 54.2466 233.703 54.5075 233.688 54.6885C233.681 54.779 233.675 54.8494 233.671 54.8972C233.669 54.9211 233.667 54.9394 233.666 54.9516C233.666 54.9578 233.665 54.9624 233.665 54.9655C233.665 54.967 233.665 54.9682 233.665 54.969C233.665 54.9694 233.665 54.9696 233.665 54.9698C233.665 54.9699 233.665 54.97 233.665 54.97C233.665 54.9701 233.665 54.9701 234.5 55.0405ZM235.975 46.437C235.975 45.5435 235.611 44.2185 235.218 43.019C234.811 41.7789 234.326 40.5333 234.005 39.7392L232.45 40.3683C232.765 41.1468 233.235 42.3528 233.624 43.5411C234.026 44.77 234.298 45.8502 234.298 46.437H235.975ZM233.997 39.7201C232.749 36.8404 230.558 35.9408 227.818 34.776L227.162 36.3195C229.971 37.5138 231.51 38.2 232.458 40.3873L233.997 39.7201ZM227.818 34.776C227.147 34.4907 226.436 34.1881 225.671 33.8344L224.967 35.3567C225.759 35.7229 226.493 36.0351 227.162 36.3195L227.818 34.776ZM225.658 33.8286C224.594 33.3576 222.782 32.6343 221.25 32.0339C220.482 31.7325 219.778 31.4602 219.267 31.2632C219.012 31.1647 218.804 31.085 218.661 31.0299C218.589 31.0024 218.533 30.981 218.495 30.9665C218.476 30.9592 218.461 30.9536 218.452 30.9499C218.447 30.948 218.443 30.9466 218.441 30.9457C218.439 30.9452 218.438 30.9448 218.438 30.9446C218.437 30.9445 218.437 30.9444 218.437 30.9443C218.437 30.9443 218.437 30.9442 218.437 30.9442C218.437 30.9442 218.437 30.9442 218.138 31.7277C217.839 32.5112 217.839 32.5113 217.839 32.5113C217.839 32.5113 217.839 32.5113 217.839 32.5113C217.839 32.5114 217.839 32.5115 217.84 32.5116C217.84 32.5118 217.841 32.5121 217.842 32.5126C217.845 32.5135 217.848 32.5149 217.853 32.5167C217.863 32.5204 217.877 32.5259 217.896 32.5331C217.933 32.5475 217.989 32.5687 218.06 32.5961C218.203 32.6508 218.41 32.7302 218.664 32.8282C219.173 33.0244 219.873 33.2956 220.638 33.5955C222.175 34.1977 223.953 34.9084 224.98 35.3625L225.658 33.8286ZM218.429 30.9412C218.146 30.8366 217.986 30.6594 217.906 30.4576C217.821 30.2449 217.805 29.9488 217.928 29.6046L216.348 29.0403C216.107 29.7137 216.091 30.4352 216.347 31.0783C216.608 31.7322 217.129 32.2488 217.847 32.5142L218.429 30.9412ZM217.928 29.6046C218.01 29.3736 218.204 29.1863 218.492 29.0814C218.789 28.9735 219.119 28.9808 219.367 29.0816L219.999 27.5281C219.338 27.2588 218.577 27.2661 217.919 27.5051C217.254 27.7471 216.629 28.2537 216.348 29.0403L217.928 29.6046ZM219.398 29.0936C220.915 29.6415 222.354 30.2169 224.138 30.9305L224.761 29.3732C222.982 28.6616 221.517 28.0753 219.968 27.516L219.398 29.0936ZM224.138 30.9305C225.631 31.5279 227.361 32.2197 229.564 33.0657L230.165 31.4999C227.974 30.6584 226.254 29.9704 224.761 29.3732L224.138 30.9305ZM229.56 33.0643C231.182 33.6953 232.462 33.8317 233.645 33.6169C234.791 33.4086 235.777 32.8767 236.766 32.351L235.979 30.87C234.944 31.4199 234.19 31.8131 233.345 31.9666C232.536 32.1135 231.574 32.0483 230.168 31.5012L229.56 33.0643ZM236.766 32.351C236.808 32.3285 236.851 32.306 236.893 32.2834L236.107 30.802C236.064 30.8248 236.021 30.8475 235.979 30.87L236.766 32.351ZM236.917 32.2705C237.063 32.1871 237.21 32.106 237.365 32.0209L236.559 30.5504C236.406 30.6343 236.245 30.7227 236.083 30.8149L236.917 32.2705ZM237.365 32.0209C238 31.6725 238.767 31.2594 239.396 30.5797C240.05 29.8728 240.512 28.9318 240.695 27.5849L239.032 27.3596C238.89 28.4124 238.554 29.02 238.165 29.4408C237.75 29.8887 237.229 30.1825 236.559 30.5504L237.365 32.0209ZM240.697 27.5685C240.782 26.8272 241.053 24.725 241.344 22.465L239.681 22.2507C239.391 24.502 239.118 26.6204 239.03 27.3759L240.697 27.5685ZM241.344 22.465C241.664 19.9837 242.007 17.3169 242.151 16.0991L240.485 15.9026C240.343 17.1091 240.001 19.7635 239.681 22.2507L241.344 22.465ZM230.893 65.9489L234.348 58.733L232.835 58.0088L229.38 65.2246L230.893 65.9489ZM231.864 19.6093L231.689 17.9412H231.689L231.864 19.6093ZM232.773 29.4155L232.891 31.0887C232.91 31.0873 232.929 31.0856 232.949 31.0836L232.773 29.4155ZM237.137 24.0498L238.805 23.8802V23.8802L237.137 24.0498ZM229.17 24.8053C228.992 23.0537 230.311 21.4594 232.04 21.2774L231.689 17.9412C228.146 18.3142 225.465 21.5305 225.832 25.1446L229.17 24.8053ZM232.656 27.7423C230.913 27.8647 229.35 26.5763 229.17 24.8053L225.832 25.1446C226.198 28.7393 229.361 31.3364 232.891 31.0887L232.656 27.7423ZM235.468 24.2195C235.646 25.9711 234.327 27.5654 232.598 27.7474L232.949 31.0836C236.492 30.7105 239.173 27.4943 238.805 23.8802L235.468 24.2195ZM232.04 21.2774C233.687 21.104 235.282 22.3934 235.468 24.2195L238.805 23.8802C238.445 20.3406 235.314 17.5595 231.689 17.9412L232.04 21.2774Z" fill="#141414" mask="url(#path-3-outside-1_919_7496)"/>
<path d="M248.553 11.777L244.256 13.9149C243.789 14.0931 243.322 14.004 243.041 13.5586L238.09 4.38308C237.903 3.93766 237.997 3.49225 238.464 3.225L242.761 1.08701C243.228 0.908842 243.695 0.997925 243.976 1.44334L248.927 10.6189C249.114 11.0643 248.927 11.5988 248.553 11.777Z" fill="#141414" stroke="#141414" stroke-width="1.67729"/>
<path d="M209.279 40.7952C208.477 40.073 207.219 40.7991 207.444 41.8549L208.004 44.4914L205.67 45.8392C204.735 46.3789 205.037 47.7994 206.11 47.9122L208.791 48.194L209.351 50.8305C209.576 51.8863 211.02 52.0381 211.459 51.052L212.555 48.5896L215.236 48.8714C216.31 48.9842 216.9 47.6575 216.098 46.9353L214.095 45.1316L215.191 42.6692C215.63 41.6832 214.551 40.7114 213.616 41.2511L211.282 42.5988L209.279 40.7952Z" fill="#F4C669" stroke="#F4C669" stroke-width="1.5"/>
<path d="M214.043 10.0428C213.455 9.13755 212.053 9.51343 211.996 10.5913L211.855 13.2831L209.251 13.9807C208.209 14.2601 208.133 15.7103 209.14 16.0972L211.657 17.0631L211.516 19.7549C211.459 20.8328 212.815 21.3532 213.494 20.5144L215.191 18.4196L217.707 19.3856C218.715 19.7724 219.629 18.6438 219.041 17.7385L217.573 15.4779L219.269 13.3832C219.948 12.5444 219.157 11.3264 218.115 11.6057L215.511 12.3034L214.043 10.0428Z" fill="#F4C669" stroke="#F4C669" stroke-width="1.5"/>
<path d="M258.02 19.3862L258.603 18.9142L258.02 19.3862L259.717 21.481L258.248 23.7416C257.661 24.6468 258.575 25.7754 259.582 25.3886L262.099 24.4227L263.795 26.5174C264.474 27.3563 265.83 26.8358 265.774 25.7579L265.632 23.0662L268.149 22.1002C269.157 21.7134 269.081 20.2631 268.038 19.9838L265.434 19.2861L265.293 16.5944C265.237 15.5165 263.834 15.1406 263.246 16.0458L261.778 18.3064L259.175 17.6088C258.132 17.3294 257.341 18.5474 258.02 19.3862Z" fill="#F4C669" stroke="#F4C669" stroke-width="1.5"/>
<path d="M262.292 37.3178C262.516 36.262 261.259 35.5359 260.456 36.2581L258.453 38.0617L256.119 36.714C255.184 36.1743 254.105 37.1461 254.544 38.1321L255.64 40.5946L253.637 42.3982C252.835 43.1204 253.426 44.4471 254.499 44.3343L257.18 44.0525L258.276 46.515C258.715 47.501 260.16 47.3492 260.384 46.2934L260.944 43.6569L263.625 43.3751C264.699 43.2623 265.001 41.8418 264.066 41.3021L261.731 39.9544L262.292 37.3178Z" fill="#F4C669" stroke="#F4C669" stroke-width="1.5"/>
</svg>
