<svg width="56" height="75" viewBox="0 0 56 75" fill="none" xmlns="http://www.w3.org/2000/svg">
<path d="M1.51251 28.6846H54.5743V73.2138H1.51251V28.6846Z" fill="#F4C669"/>
<path d="M28.9746 11.24C20.0379 10.5055 18.4243 20.4214 18.7346 25.4711H10.3563C10.2012 17.3609 10.3562 2.06978 28.9746 2.0586C44.2461 2.04942 47.4376 17.6669 47.1272 25.4711H37.3527C38.2836 21.0334 37.9113 11.9745 28.9746 11.24Z" fill="#F4C669"/>
<rect x="1.49288" y="28.5984" width="53.0142" height="44.212" rx="3.88149" stroke="#141414" stroke-width="2.98576"/>
<rect x="1.49288" y="28.5984" width="53.0142" height="44.212" rx="3.88149" stroke="white" stroke-width="2.98576"/>
<ellipse cx="28.5092" cy="50.2027" rx="15.2727" ry="15.0631" fill="#141414"/>
<ellipse cx="28.5091" cy="50.2033" rx="10.1818" ry="10.0421" fill="white"/>
<path fill-rule="evenodd" clip-rule="evenodd" d="M21.9374 54.9505C23.6024 53.2613 25.9312 52.2119 28.5085 52.2119C31.086 52.2119 33.4149 53.2614 35.0799 54.9507C33.5975 56.9429 31.2063 58.2361 28.5087 58.2361C25.8111 58.2361 23.4198 56.9428 21.9374 54.9505ZM31.5632 47.1908C31.5632 48.8547 30.1957 50.2035 28.5087 50.2035C26.8217 50.2035 25.4542 48.8547 25.4542 47.1908C25.4542 45.527 26.8217 44.1782 28.5087 44.1782C30.1957 44.1782 31.5632 45.527 31.5632 47.1908Z" fill="#141414"/>
<path d="M20.7039 14.0295L19.69 13.3982L20.7039 14.0295ZM18.7482 25.2441H17.5539C17.5539 25.9037 18.0886 26.4384 18.7482 26.4384V25.2441ZM19.3453 25.2441V26.4384C20.0049 26.4384 20.5396 25.9037 20.5396 25.2441H19.3453ZM21.2108 14.3452L20.197 13.7139L21.2108 14.3452ZM35.8072 14.3451L34.7934 14.9764V14.9764L35.8072 14.3451ZM37.6726 25.2432H36.4783C36.4783 25.9028 37.013 26.4375 37.6726 26.4375V25.2432ZM38.2698 25.2432V26.4375C38.9294 26.4375 39.4641 25.9028 39.4641 25.2432H38.2698ZM36.3142 14.0295L35.3003 14.6607L36.3142 14.0295ZM33.6466 11.507L33.0883 12.5627L33.6466 11.507ZM23.3715 11.507L22.8131 10.4512L22.8131 10.4512L23.3715 11.507ZM46.2391 25.2432H45.0448C45.0448 25.9028 45.5795 26.4375 46.2391 26.4375V25.2432ZM43.1091 9.93116L44.1229 9.29989L43.1091 9.93116ZM13.909 9.93112L14.9229 10.5624H14.9229L13.909 9.93112ZM10.7789 25.2441V26.4384C11.4385 26.4384 11.9732 25.9037 11.9732 25.2441H10.7789ZM10.1817 25.2441H8.9874C8.9874 25.9037 9.5221 26.4384 10.1817 26.4384V25.2441ZM13.4021 9.61548L14.4159 10.2468L13.4021 9.61548ZM43.616 9.61553L44.6298 8.98426L43.616 9.61553ZM46.8362 25.2432V26.4375C47.4958 26.4375 48.0305 25.9028 48.0305 25.2432H46.8362ZM19.9425 23.0894C19.9425 19.6411 20.4792 16.6498 21.7177 14.6608L19.69 13.3982C18.0971 15.9566 17.5539 19.4908 17.5539 23.0894H19.9425ZM19.9425 25.2441V23.0894H17.5539V25.2441H19.9425ZM19.3453 24.0498H18.7482V26.4384H19.3453V24.0498ZM20.5396 25.2441V23.0894H18.151V25.2441H20.5396ZM20.5396 23.0894C20.5396 19.6785 21.0748 16.823 22.2246 14.9764L20.197 13.7139C18.6926 16.1299 18.151 19.5284 18.151 23.0894H20.5396ZM22.2246 14.9764C22.6838 14.239 23.2851 13.5792 24.209 13.0906C25.1441 12.596 26.4926 12.2332 28.5091 12.2332V9.84457C26.2097 9.84457 24.4546 10.2586 23.0923 10.9791C21.7188 11.7055 20.829 12.6989 20.197 13.7139L22.2246 14.9764ZM28.5091 12.2332C30.5256 12.2332 31.8741 12.596 32.8091 13.0906C33.733 13.5792 34.3342 14.2389 34.7934 14.9764L36.8211 13.7138C36.1891 12.6989 35.2993 11.7055 33.9258 10.9791C32.5636 10.2586 30.8085 9.84457 28.5091 9.84457V12.2332ZM34.7934 14.9764C35.9432 16.8229 36.4783 19.6785 36.4783 23.0894H38.8669C38.8669 19.5283 38.3254 16.1298 36.8211 13.7138L34.7934 14.9764ZM36.4783 23.0894V25.2432H38.8669V23.0894H36.4783ZM38.2698 24.0489H37.6726V26.4375H38.2698V24.0489ZM37.0754 23.0894V25.2432H39.4641V23.0894H37.0754ZM35.3003 14.6607C36.5387 16.6497 37.0754 19.641 37.0754 23.0894H39.4641C39.4641 19.4907 38.9209 15.9565 37.328 13.3982L35.3003 14.6607ZM33.0883 12.5627C34.1245 13.1107 34.7979 13.8538 35.3003 14.6607L37.328 13.3982C36.6529 12.314 35.6909 11.2371 34.205 10.4512L33.0883 12.5627ZM28.5091 11.636C30.5964 11.636 32.0465 12.0117 33.0883 12.5627L34.205 10.4512C32.7359 9.67423 30.8792 9.24741 28.5091 9.24741V11.636ZM23.9298 12.5627C24.9717 12.0117 26.4218 11.636 28.5091 11.636V9.24741C26.139 9.24741 24.2822 9.67424 22.8131 10.4512L23.9298 12.5627ZM21.7177 14.6608C22.2202 13.8539 22.8936 13.1108 23.9298 12.5627L22.8131 10.4512C21.3272 11.2371 20.3652 12.314 19.69 13.3982L21.7177 14.6608ZM47.4334 25.2432V23.0894H45.0448V25.2432H47.4334ZM47.4334 23.0894C47.4334 19.0059 46.8705 13.7126 44.1229 9.29989L42.0952 10.5624C44.4888 14.4066 45.0448 19.1578 45.0448 23.0894H47.4334ZM44.1229 9.29989C41.1085 4.45869 35.9252 1.40382 28.5091 1.40382V3.79244C35.1824 3.79244 39.5587 6.4886 42.0952 10.5624L44.1229 9.29989ZM28.5091 1.40382C21.093 1.40382 15.9096 4.45868 12.8952 9.29984L14.9229 10.5624C17.4595 6.48859 21.8358 3.79244 28.5091 3.79244V1.40382ZM12.8952 9.29984C10.1475 13.7125 9.58455 19.0058 9.58455 23.0894H11.9732C11.9732 19.1578 12.5292 14.4066 14.9229 10.5624L12.8952 9.29984ZM9.58455 23.0894V25.2441H11.9732V23.0894H9.58455ZM10.7789 24.0498H10.1817V26.4384H10.7789V24.0498ZM8.9874 23.0894V25.2441H11.376V23.0894H8.9874ZM12.3883 8.9842C9.55215 13.539 8.9874 18.9677 8.9874 23.0894H11.376C11.376 19.1198 11.9338 14.2331 14.4159 10.2468L12.3883 8.9842ZM28.5091 0.806671C20.9075 0.806671 15.5223 3.95101 12.3883 8.9842L14.4159 10.2468C17.072 5.98118 21.65 3.19528 28.5091 3.19528V0.806671ZM44.6298 8.98426C41.4959 3.95103 36.1107 0.806671 28.5091 0.806671V3.19528C35.3682 3.19528 39.9462 5.98119 42.6021 10.2468L44.6298 8.98426ZM48.0305 23.0894C48.0305 18.9678 47.4659 13.5391 44.6298 8.98426L42.6021 10.2468C45.0842 14.2331 45.6419 19.1199 45.6419 23.0894H48.0305ZM48.0305 25.2432V23.0894H45.6419V25.2432H48.0305ZM46.8362 24.0489H46.2391V26.4375H46.8362V24.0489Z" fill="white"/>
</svg>
