<svg width="57" height="59" viewBox="0 0 57 59" fill="none" xmlns="http://www.w3.org/2000/svg">
<path d="M1.21093 1.21191H44.7769V57.79H1.21093V1.21191Z" fill="#F4C669"/>
<path d="M1.21093 1.21191H44.7769V57.79H1.21093V1.21191Z" stroke="#141414" stroke-width="2.42187"/>
<path d="M1.21093 1.21191H44.7769V57.79H1.21093V1.21191Z" stroke="white" stroke-width="2.42187"/>
<ellipse cx="14.0664" cy="13.5199" rx="7.32594" ry="6.84378" fill="white"/>
<path fill-rule="evenodd" clip-rule="evenodd" d="M9.76123 16.7327C10.8749 15.6627 12.4324 14.998 14.1561 14.998C15.8804 14.998 17.4384 15.6632 18.5522 16.7339C17.5606 17.9959 15.9613 18.8151 14.1572 18.8151C12.3524 18.8151 10.7527 17.9953 9.76123 16.7327ZM16.1987 11.8173C16.1987 12.8714 15.2839 13.7259 14.1556 13.7259C13.0272 13.7259 12.1125 12.8714 12.1125 11.8173C12.1125 10.7632 13.0272 9.90869 14.1556 9.90869C15.2839 9.90869 16.1987 10.7632 16.1987 11.8173Z" fill="#141414"/>
<path d="M54.8147 40.4451C54.8147 45.9842 49.8733 50.6535 43.5471 50.6535C37.2208 50.6535 32.2795 45.9842 32.2795 40.4451C32.2795 34.906 37.2208 30.2367 43.5471 30.2367C49.8733 30.2367 54.8147 34.906 54.8147 40.4451Z" fill="#141414" stroke="white" stroke-width="2.42187"/>
<path d="M48.8955 38.5414L41.6121 44.7269L37.6903 41.3963L39.3711 39.9689L41.6121 41.8721L47.2147 37.114L48.8955 38.5414Z" fill="#F4C669"/>
<rect x="6.53723" y="24.9974" width="24.5269" height="2.00485" fill="white"/>
<rect x="6.53723" y="29.8665" width="24.5269" height="2.00485" fill="white"/>
<rect x="6.53723" y="34.7346" width="12.2634" height="2.00485" fill="white"/>
</svg>
