<svg width="257" height="24" viewBox="0 0 257 24" fill="none" xmlns="http://www.w3.org/2000/svg">
<path fill-rule="evenodd" clip-rule="evenodd" d="M198.48 0.000976976V0.0104634C198.471 0.0104634 195.399 0.000976924 194.58 2.85639C193.829 5.47464 191.713 12.7033 191.654 12.9025H191.069C191.069 12.9025 188.904 5.51259 188.143 2.8469C187.324 -0.00850954 184.243 0.000976976 184.243 0.000976976H177.221V21.7249H184.243V8.82335H184.535H184.828L188.924 21.7249H193.799L197.895 8.83284H198.48V21.7249H205.502V0.000976976H198.48Z" fill="#4DB45E"/>
<path fill-rule="evenodd" clip-rule="evenodd" d="M224.128 0.000976562C224.128 0.000976562 222.07 0.181219 221.105 2.27772L216.131 12.9025H215.546V0.000976562H208.525V21.7249H215.156C215.156 21.7249 217.311 21.5352 218.277 19.4481L223.152 8.82335H223.738V21.7249H230.759V0.000976562H224.128Z" fill="#4DB45E"/>
<path fill-rule="evenodd" clip-rule="evenodd" d="M233.879 9.8667V21.7247H240.901V14.7996H248.507C251.823 14.7996 254.631 12.7411 255.675 9.8667H233.879Z" fill="#4DB45E"/>
<path fill-rule="evenodd" clip-rule="evenodd" d="M248.507 0.000976562H232.894C233.675 4.13706 236.863 7.45731 240.988 8.53876C241.925 8.78541 242.91 8.91822 243.924 8.91822H255.957C256.065 8.42492 256.114 7.92214 256.114 7.40039C256.114 3.31174 252.71 0.000976562 248.507 0.000976562Z" fill="url(#paint0_linear_919_7469)"/>
<path d="M128.176 2.55908H117.417V21.3688H128.176V2.55908Z" fill="#FF5F00"/>
<path d="M118.1 11.9659C118.098 10.1541 118.52 8.36562 119.334 6.73589C120.147 5.10616 121.331 3.6779 122.797 2.55928C120.983 1.17245 118.804 0.310061 116.51 0.0706801C114.216 -0.168701 111.899 0.22458 109.824 1.20558C107.749 2.18657 106 3.7157 104.776 5.61821C103.552 7.52071 102.903 9.71982 102.903 11.9642C102.903 14.2086 103.552 16.4077 104.776 18.3102C106 20.2127 107.749 21.7419 109.824 22.7229C111.899 23.7038 114.216 24.0971 116.51 23.8577C118.804 23.6184 120.983 22.756 122.797 21.3692C121.332 20.2509 120.148 18.8231 119.334 17.194C118.521 15.5649 118.099 13.7771 118.1 11.9659Z" fill="#EB001B"/>
<path d="M142.692 11.9655C142.692 14.21 142.043 16.4092 140.819 18.3118C139.595 20.2143 137.845 21.7434 135.77 22.7242C133.694 23.705 131.377 24.0981 129.083 23.8583C126.789 23.6186 124.61 22.7558 122.797 21.3686C124.261 20.2493 125.444 18.8213 126.258 17.1921C127.072 15.5629 127.495 13.7752 127.495 11.9639C127.495 10.1525 127.072 8.36481 126.258 6.73564C125.444 5.10647 124.261 3.67839 122.797 2.55914C124.61 1.17191 126.789 0.30912 129.083 0.0694002C131.377 -0.170319 133.694 0.2227 135.77 1.20353C137.845 2.18437 139.595 3.71344 140.819 5.61597C142.043 7.51849 142.692 9.7177 142.692 11.9622V11.9655Z" fill="#F79E1B"/>
<path d="M141.517 19.3748V18.989H141.678V18.9092H141.271V18.989H141.446V19.3748H141.517ZM142.306 19.3748V18.9092H142.183L142.04 19.2418L141.896 18.9092H141.787V19.3748H141.876V19.0256L142.009 19.3282H142.101L142.235 19.0256V19.3781L142.306 19.3748Z" fill="#F79E1B"/>
<path d="M29.2319 21.4112H23.7673L27.1853 0.381836H32.6496L29.2319 21.4112Z" fill="#00579F"/>
<path d="M49.0416 0.896278C47.9637 0.47078 46.2541 0.000976562 44.1403 0.000976562C38.7438 0.000976562 34.9436 2.8644 34.9203 6.95822C34.8755 9.97864 37.6411 11.6562 39.7096 12.6634C41.8238 13.6925 42.5424 14.3642 42.5424 15.2815C42.5209 16.6903 40.834 17.3397 39.2607 17.3397C37.079 17.3397 35.91 17.0049 34.1335 16.2211L33.4139 15.8851L32.6492 20.6057C33.9309 21.1867 36.2922 21.7023 38.7438 21.7249C44.4776 21.7249 48.2105 18.9058 48.2548 14.5432C48.2766 12.1492 46.8162 10.3149 43.6678 8.81602C41.7565 7.85382 40.586 7.20502 40.586 6.22051C40.6084 5.32551 41.576 4.4088 43.7335 4.4088C45.5101 4.3639 46.8153 4.7888 47.8041 5.214L48.2984 5.43731L49.0416 0.896278Z" fill="#00579F"/>
<path d="M56.3045 13.9612C56.7545 12.7531 58.4862 8.07738 58.4862 8.07738C58.4635 8.12228 58.9354 6.84698 59.2052 6.06407L59.5871 7.87608C59.5871 7.87608 60.6219 12.9098 60.8466 13.9612C59.9926 13.9612 57.3839 13.9612 56.3045 13.9612ZM63.0499 0.381836H58.823C57.5195 0.381836 56.5292 0.761841 55.9668 2.12665L47.8499 21.4109H53.5837C53.5837 21.4109 54.5277 18.8153 54.7306 18.2563C55.3596 18.2563 60.9375 18.2563 61.7467 18.2563C61.9036 18.9946 62.3987 21.4109 62.3987 21.4109H67.4584L63.0499 0.381836Z" fill="#00579F"/>
<path d="M19.203 0.381836L13.8514 14.7218L13.2665 11.8135C12.2771 8.45769 9.17415 4.81166 5.71136 2.99876L10.6133 21.3889H16.392L24.9814 0.381836H19.203Z" fill="#00579F"/>
<path d="M8.88197 0.381836H0.0899459L0 0.80674C6.85833 2.55185 11.4005 6.75837 13.2666 11.8144L11.3553 2.14954C11.0407 0.806442 10.0737 0.42614 8.88197 0.381836Z" fill="#FAA61A"/>
<defs>
<linearGradient id="paint0_linear_919_7469" x1="232.896" y1="4.4596" x2="256.113" y2="4.4596" gradientUnits="userSpaceOnUse">
<stop offset="0.3" stop-color="#00B4E6"/>
<stop offset="1" stop-color="#088CCB"/>
</linearGradient>
</defs>
</svg>
