<svg xmlns="http://www.w3.org/2000/svg" viewBox="0 0 88 89">
	<path fill="#E72B2C" d="M52.95,0.55c3.433,0.533,6.8,1.533,10.1,3c6.867,3,12.417,7.533,16.65,13.6c2.267,3.2,3.933,6.667,5,10.4
		l0.65,3l0.3,6.15l-0.3,2.9c-0.233,1.933-0.65,3.867-1.25,5.8c-0.633,1.967-1.417,3.817-2.35,5.55c-1.933,3.767-4.567,7-7.9,9.7
		c-3.333,2.633-7.117,4.517-11.35,5.65l-6.15,0.9l-3.45,0.15l-3.35-0.15c-5.2-0.367-9.45-1.633-12.75-3.8
		c-3.167-2.4-5.267-4.5-6.3-6.3c-1.367-2.3-2.117-4.433-2.25-6.4c-0.1-0.567-0.15-1.2-0.15-1.9c0-3.4,1.2-6.3,3.6-8.7
		c2.4-2.433,5.317-3.65,8.75-3.65l1.3,0.1c1.367,0,2.817,0.367,4.35,1.1c1.567,0.733,3.033,1.783,4.4,3.15
		c2.433,1.9,4.1,2.983,5,3.25c2.3,0.833,4.817,0.45,7.55-1.15l1.05-0.8l10.1,6.7l-7.5-9.9l0.85-2.35l0.45-2.5V32.9l-0.25-1
		c-0.3-1.6-1.017-3.217-2.15-4.85c-2.3-3.267-5.45-5.7-9.45-7.3c-1.8-0.7-3.833-1.25-6.1-1.65l-3.25-0.35l-1.7-0.1l-5,0.2
		l-3.25,0.65c-1.967,0.433-3.967,1.133-6,2.1c-3.667,1.8-6.883,4.567-9.65,8.3c-2.7,3.667-4.533,7.75-5.5,12.25l-0.6,3.25
		l-0.05,3.25c0.1,2.033,0.483,4.2,1.15,6.5c1.333,4.567,3.533,8.667,6.6,12.3c3.167,3.7,6.833,6.517,11,8.45
		c4.3,2.033,8.983,3.133,14.05,3.3c4.8,0.233,9.7-0.567,14.7-2.4c2.4-0.833,4.733-1.917,7-3.25c2.3-1.367,4.417-2.883,6.35-4.55
		c2.2-1.9,4.05-3.817,5.55-5.75l2.3-3.3l0.9-1.7l0.55-1.35l0.1-0.2v-0.05c0.033-0.4,0.167-0.717,0.4-0.95
		c0.233-0.233,0.533-0.35,0.9-0.35c0.4,0,0.733,0.117,1,0.35c0.233,0.3,0.35,0.633,0.35,1l-0.2,1.4l-0.2,1.15l-0.7,2.1l-1.8,4.15
		c-1.367,2.733-3,5.267-4.9,7.6s-4.033,4.467-6.4,6.4c-2.4,2.067-4.933,3.8-7.6,5.2c-5.467,2.933-11.467,4.65-18,5.15
		c-6.767,0.567-13.117-0.267-19.05-2.5c-6.3-2.367-11.767-5.967-16.4-10.8c-4.567-4.867-8-10.467-10.3-16.8
		c-1.167-3.367-1.917-6.717-2.25-10.05L0,43.5c0.067-1.5,0.233-3.2,0.5-5.1c1.033-6.767,3.433-13.017,7.2-18.75
		c3.867-6.067,8.9-10.833,15.1-14.3c2.967-1.6,6.233-2.883,9.8-3.85l5.1-1.05L47.85,0L52.95,0.55"/>
</svg>
