<svg width="28" height="27" viewBox="0 0 28 27" fill="none" xmlns="http://www.w3.org/2000/svg">
<g id="Group 717">
<path id="Vector" fill-rule="evenodd" clip-rule="evenodd" d="M19.6901 9.37261C19.2709 9.57761 18.8196 9.71596 18.3464 9.77839C18.829 9.4595 19.2004 8.95502 19.3751 8.35268C18.9231 8.64794 18.4224 8.86222 17.8888 8.9778C17.4626 8.47753 16.8538 8.16455 16.1807 8.16455C14.8887 8.16455 13.8403 9.31777 13.8403 10.741C13.8403 10.9434 13.8615 11.14 13.9014 11.3281C11.9567 11.2201 10.2322 10.1951 9.07806 8.63613C8.8767 9.0166 8.76074 9.4595 8.76074 9.93108C8.76074 10.8253 9.17444 11.6141 9.80204 12.0756C9.41811 12.0629 9.05769 11.9465 8.74193 11.7541C8.74193 11.7643 8.74193 11.7752 8.74193 11.7862C8.74193 13.0339 9.54818 14.0758 10.6193 14.3128C10.4226 14.371 10.2157 14.4031 10.0026 14.4031C9.8514 14.4031 9.70488 14.3871 9.56228 14.3567C9.86002 15.38 10.7242 16.1249 11.7483 16.146C10.9476 16.8369 9.93837 17.2486 8.84222 17.2486C8.65339 17.2486 8.46691 17.2359 8.28357 17.2123C9.31939 17.9437 10.5495 18.3706 11.8713 18.3706C16.1752 18.3706 18.5289 14.4444 18.5289 11.0396C18.5289 10.9282 18.5274 10.8169 18.5227 10.7064C18.9795 10.3436 19.3767 9.88974 19.6901 9.37261Z" fill="white"/>
<circle id="Ellipse 4" cx="14.0669" cy="13.2676" r="12.8774" stroke="#EAC141" stroke-width="0.780446"/>
</g>
</svg>
