<svg width="27" height="27" viewBox="0 0 27 27" fill="none" xmlns="http://www.w3.org/2000/svg">
<g id="Group 718">
<path id="Instagram" fill-rule="evenodd" clip-rule="evenodd" d="M19.0504 13.6072C19.0504 14.7009 19.0504 15.4385 19.0251 15.8455C18.9746 16.8374 18.6965 17.6005 18.1403 18.1346C17.5842 18.6688 16.851 18.974 15.8651 19.0248C15.4606 19.0503 14.7022 19.0503 13.6404 19.0503C12.5534 19.0503 11.8203 19.0503 11.4158 19.0248C10.4298 18.974 9.67144 18.6942 9.14056 18.1346C8.60967 17.6005 8.30631 16.8374 8.25575 15.8455C8.23047 15.4385 8.23047 14.6754 8.23047 13.6072C8.23047 12.5389 8.23047 11.7758 8.25575 11.3689C8.30631 10.3769 8.58439 9.61386 9.14056 9.07973C9.67144 8.54559 10.4298 8.24037 11.4158 8.1895C11.8203 8.16406 12.5787 8.16406 13.6404 8.16406C14.7275 8.16406 15.4606 8.16406 15.8651 8.1895C16.851 8.24037 17.6094 8.52015 18.1403 9.07973C18.6712 9.6393 18.9746 10.3769 19.0251 11.3689C19.0251 11.5231 19.0288 11.7247 19.0333 11.9752V11.9753C19.0407 12.386 19.0504 12.9279 19.0504 13.6072ZM14.1713 9.13086H13.6404H13.1095H12.3764C12.1994 9.13086 11.9719 9.13086 11.6938 9.15629C11.4158 9.15629 11.163 9.18173 10.9607 9.2326C10.7585 9.25803 10.5815 9.3089 10.4551 9.35977C10.2276 9.46151 10.0253 9.58869 9.82311 9.76673C9.64614 9.94478 9.51974 10.1483 9.41862 10.4026C9.36806 10.5298 9.3175 10.7078 9.29222 10.9113C9.26694 11.1148 9.24166 11.3437 9.21638 11.6489C9.21638 11.8046 9.20856 11.9445 9.20162 12.0686L9.20162 12.0686C9.19608 12.1676 9.1911 12.2567 9.1911 12.3357V13.0733V13.6074V14.1416V14.8792C9.1911 15.0572 9.1911 15.2861 9.21638 15.5659C9.21638 15.8457 9.24166 16.1001 9.29222 16.3035C9.31013 16.3756 9.32487 16.4445 9.33869 16.5091C9.36387 16.6268 9.38597 16.7301 9.41862 16.8122C9.51974 17.0411 9.64614 17.2446 9.82311 17.4481C10.0001 17.6262 10.2023 17.7533 10.4551 17.8551C10.5815 17.9059 10.7585 17.9568 10.9607 17.9822C11.163 18.0077 11.3905 18.0331 11.6938 18.0585C11.9972 18.084 12.1994 18.084 12.3764 18.084H13.1095H13.6404H14.1713H14.9044C15.0814 18.084 15.3089 18.084 15.587 18.0585C15.8651 18.0585 16.1179 18.0331 16.3201 17.9822C16.5224 17.9568 16.6993 17.9059 16.8257 17.8551C17.0532 17.7533 17.2555 17.6262 17.4577 17.4481C17.6347 17.2701 17.7611 17.0666 17.8622 16.8122C17.9128 16.6851 17.9633 16.507 17.9886 16.3035C18.0139 16.1001 18.0392 15.8711 18.0644 15.5659C18.0644 15.4103 18.0723 15.2705 18.0792 15.1463V15.1463V15.1463L18.0792 15.1462V15.1462V15.1462V15.1462C18.0847 15.0472 18.0897 14.9582 18.0897 14.8792V14.1416V13.6074V13.0733V12.3357C18.0897 12.1576 18.0897 11.9287 18.0644 11.6489C18.0644 11.3691 18.0392 11.1148 17.9886 10.9113C17.9633 10.7078 17.9128 10.5298 17.8622 10.4026C17.7611 10.1737 17.6347 9.97021 17.4577 9.76673C17.2808 9.58869 17.0785 9.46151 16.8257 9.35977C16.6993 9.3089 16.5224 9.25803 16.3201 9.2326C16.1179 9.20716 15.8903 9.18173 15.587 9.15629C15.4323 9.15629 15.2933 9.14842 15.1699 9.14144C15.0714 9.13587 14.9829 9.13086 14.9044 9.13086H14.1713ZM16.3962 13.6074C16.3962 12.8189 16.1181 12.1576 15.5872 11.6235C15.0564 11.0639 14.3991 10.8096 13.6154 10.8096C12.8317 10.8096 12.1744 11.0894 11.6436 11.6235C11.1127 12.1831 10.8346 12.8189 10.8346 13.6074C10.8346 14.3959 11.1127 15.0572 11.6436 15.5914C12.1997 16.1255 12.8317 16.4053 13.6154 16.4053C14.3991 16.4053 15.0564 16.1255 15.5872 15.5914C16.1181 15.0318 16.3962 14.3959 16.3962 13.6074ZM14.9044 14.8795C15.2583 14.5234 15.4353 14.091 15.4353 13.6077C15.4353 13.1244 15.2583 12.6666 14.9044 12.3105C14.5505 11.9544 14.1208 11.7764 13.6152 11.7764C13.1096 11.7764 12.6798 11.9544 12.3259 12.3105C11.972 12.6666 11.795 13.099 11.795 13.6077C11.795 14.1164 11.972 14.5488 12.3259 14.8795C12.6798 15.2355 13.1096 15.4136 13.6152 15.4136C14.1208 15.4136 14.5505 15.2355 14.9044 14.8795ZM17.1797 10.6828C17.1797 10.5048 17.1038 10.3522 16.9774 10.225C16.851 10.0978 16.6994 10.0215 16.5224 10.0215C16.3454 10.0215 16.1937 10.0978 16.0673 10.225C15.9409 10.3522 15.8651 10.5048 15.8651 10.6828C15.8651 10.8609 15.9409 11.0135 16.0673 11.1407C16.1937 11.2679 16.3454 11.3442 16.5224 11.3442C16.6994 11.3442 16.851 11.2679 16.9774 11.1407C17.1038 11.0135 17.1797 10.8609 17.1797 10.6828Z" fill="white"/>
<circle id="Ellipse 5" cx="13.3334" cy="13.2676" r="12.8774" stroke="#EAC141" stroke-width="0.780446"/>
</g>
</svg>
