<svg width="27" height="27" viewBox="0 0 27 27" fill="none" xmlns="http://www.w3.org/2000/svg">
<g id="Group 719">
<path id="Youtube" fill-rule="evenodd" clip-rule="evenodd" d="M18.6651 9.77513C19.1865 9.9096 19.5976 10.3034 19.738 10.8029C19.9987 11.7154 19.9886 13.6173 19.9886 13.6173C19.9886 13.6173 19.9886 15.5095 19.738 16.422C19.5976 16.9215 19.1865 17.3153 18.6651 17.4498C17.7126 17.6899 13.9026 17.6899 13.9026 17.6899C13.9026 17.6899 10.1026 17.6899 9.14002 17.4402C8.61864 17.3057 8.20756 16.9119 8.06719 16.4124C7.81653 15.5095 7.81653 13.6077 7.81653 13.6077C7.81653 13.6077 7.81653 11.7154 8.06719 10.8029C8.20756 10.3034 8.62867 9.9 9.14002 9.76552C10.0925 9.52539 13.9026 9.52539 13.9026 9.52539C13.9026 9.52539 17.7126 9.52539 18.6651 9.77513ZM15.8183 13.6086L12.6656 15.3569V11.8604L15.8183 13.6086Z" fill="white"/>
<circle id="Ellipse 6" cx="13.5998" cy="13.2676" r="12.8774" stroke="#EAC141" stroke-width="0.780446"/>
</g>
</svg>
