<svg width="28" height="27" viewBox="0 0 28 27" fill="none" xmlns="http://www.w3.org/2000/svg">
<g id="Group 716">
<path id="Ok" fill-rule="evenodd" clip-rule="evenodd" d="M13.9093 6.80371C12.0441 6.80371 10.5321 8.30359 10.5321 10.1537C10.5321 12.0039 12.0441 13.5039 13.9093 13.5039C15.7744 13.5039 17.2864 12.0039 17.2864 10.1537C17.2864 8.30359 15.7744 6.80371 13.9093 6.80371ZM13.9095 11.5381C13.1386 11.5381 12.5135 10.918 12.5135 10.1533C12.5135 9.38854 13.1386 8.76855 13.9095 8.76855C14.6805 8.76855 15.3056 9.38854 15.3056 10.1533C15.3056 10.918 14.6805 11.5381 13.9095 11.5381ZM17.3067 15.2269C17.2638 15.261 16.4536 15.8961 15.1016 16.1693L17.1424 18.1756C17.5013 18.531 17.5017 19.1077 17.1434 19.4637C16.7851 19.8196 16.2038 19.8202 15.8448 19.4647L13.8635 17.5509L12.064 19.4523C11.8839 19.6377 11.6435 19.731 11.4029 19.731C11.1735 19.731 10.9438 19.6463 10.7656 19.4758C10.4006 19.1266 10.39 18.5501 10.742 18.1879L12.6791 16.1799C11.2892 15.9131 10.4456 15.2615 10.4021 15.2269C10.0065 14.9122 9.94293 14.339 10.2602 13.9465C10.5774 13.5541 11.1553 13.4911 11.551 13.8057C11.5594 13.8124 12.4418 14.4699 13.8635 14.4709C15.2853 14.4699 16.1494 13.8124 16.1578 13.8057C16.5535 13.4911 17.1313 13.5541 17.4486 13.9465C17.7658 14.339 17.7023 14.9122 17.3067 15.2269Z" fill="white"/>
<circle id="Ellipse 3" cx="13.8004" cy="13.2676" r="12.8774" stroke="#EAC141" stroke-width="0.780446"/>
</g>
</svg>
