<svg width="27" height="27" viewBox="0 0 27 27" fill="none" xmlns="http://www.w3.org/2000/svg">
<path fill-rule="evenodd" clip-rule="evenodd" d="M17.2469 13.542C17.2469 13.542 18.7954 11.3823 18.9493 10.6725C19.0005 10.419 18.8877 10.277 18.6211 10.277H17.2777C16.9701 10.277 16.8572 10.4088 16.765 10.6015C16.765 10.6015 16.0386 12.1317 15.155 13.0959C14.8712 13.4076 14.727 13.5015 14.5704 13.5015C14.4441 13.5015 14.3858 13.3973 14.3858 13.1161V10.6522C14.3858 10.3075 14.3448 10.2061 14.0577 10.2061H11.9041C11.74 10.2061 11.6375 10.3004 11.6375 10.4291C11.6375 10.7538 12.14 10.8271 12.14 11.7067V13.5217C12.14 13.8867 12.1195 14.0287 11.9451 14.0287C11.4837 14.0287 10.3864 12.4571 9.77111 10.6725C9.64803 10.3075 9.51471 10.2061 9.16606 10.2061H7.82266C7.62785 10.2061 7.48425 10.3378 7.48425 10.5305C7.48425 10.8854 7.90467 12.528 9.55578 14.7283C10.6633 16.2087 12.1195 17.0098 13.4321 17.0098C14.232 17.0098 14.4268 16.878 14.4268 16.5433V15.4077C14.4268 15.1238 14.5397 15.0021 14.7037 15.0021C14.8883 15.0021 15.2141 15.0607 15.9753 15.8031C16.8777 16.6549 16.9393 17.0098 17.4316 17.0098H18.939C19.0928 17.0098 19.2364 16.9388 19.2364 16.6853C19.2364 16.3506 18.7954 15.7525 18.1186 15.0427C17.8417 14.6777 17.3905 14.2822 17.2469 14.0997C17.0419 13.8867 17.1034 13.765 17.2469 13.542Z" fill="white"/>
<circle cx="13.2676" cy="13.2676" r="12.8774" stroke="#EAC141" stroke-width="0.780446"/>
</svg>
