<svg width="41" height="41" viewBox="0 0 41 41" fill="none" xmlns="http://www.w3.org/2000/svg">
<g id="&#209;&#129;&#209;&#130;&#209;&#128;&#208;&#181;&#208;&#187;&#208;&#186;&#208;&#184;">
<g id="Group 1268">
<circle id="Ellipse 187" cx="20.5" cy="20.5" r="20.5" fill="#FFCD17"/>
<path id="Arrow 3" d="M10.8139 20.3855C10.3955 20.8039 10.3955 21.4823 10.8139 21.9007L17.6324 28.7192C18.0509 29.1376 18.7293 29.1376 19.1477 28.7192C19.5661 28.3008 19.5661 27.6224 19.1477 27.204L13.0868 21.1431L19.1477 15.0822C19.5661 14.6637 19.5661 13.9853 19.1477 13.5669C18.7293 13.1485 18.0509 13.1485 17.6324 13.5669L10.8139 20.3855ZM28.0001 22.2145C28.5918 22.2145 29.0715 21.7348 29.0715 21.1431C29.0715 20.5513 28.5918 20.0716 28.0001 20.0716V22.2145ZM11.5715 22.2145L28.0001 22.2145V20.0716L11.5715 20.0716V22.2145Z" fill="#141414"/>
</g>
</g>
</svg>
