<svg width="973" height="1103" viewBox="0 0 973 1103" fill="none" xmlns="http://www.w3.org/2000/svg">
<mask id="mask0_919_7578" style="mask-type:alpha" maskUnits="userSpaceOnUse" x="-234" y="0" width="1207" height="1104">
<ellipse cx="369.5" cy="551.501" rx="603.5" ry="551.5" fill="url(#paint0_radial_919_7578)"/>
</mask>
<g mask="url(#mask0_919_7578)">
<g opacity="0.2">
<path d="M-78.8454 -37.9998C-78.8454 -37.9998 -58.5477 -33.6921 -58.5477 -56.5766C-58.5477 -91.8455 -101.954 -105.576 -101.954 -105.576C-101.954 -105.576 -66.0423 -98.0378 -40.436 -98.0378C-14.8296 -98.0378 11.4013 -100.73 5.78043 -109.884C11.7136 -111.768 33.2604 -113.653 33.2604 -103.422C33.2604 -93.1917 -5.77363 -86.9994 -28.2572 -89.1533C4.21909 -82.6918 5.15585 -82.6918 22.3308 -82.6918C39.5058 -82.6918 77.9154 -88.3456 68.5472 -105.038C68.5472 -105.038 95.715 -116.076 95.715 -97.2301C95.715 -84.0379 61.9895 -69.2303 19.5204 -74.6149C18.5836 -73.8072 35.7586 -67.0765 56.0563 -67.0765C76.6663 -67.0765 123.195 -73.2687 123.195 -106.115C123.195 -106.115 150.363 -105.576 150.363 -81.8841C150.363 -58.1919 85.7223 -50.3843 62.9264 -56.5766C62.9264 -56.5766 131.938 -15.6538 175.032 -15.6538C223.747 -15.6538 233.427 -71.1149 185.649 -71.1149C166.601 -71.1149 161.292 -57.6535 161.292 -57.6535C161.292 -57.6535 154.734 -105.307 205.947 -105.307C275.272 -105.307 264.654 -4.07691 189.709 -4.07691C155.983 -4.07691 140.682 -11.0769 140.682 -11.0769C173.158 4.26919 194.081 43.0381 234.676 28.769C234.676 28.769 239.985 31.9998 239.985 41.4228C239.985 50.8458 216.252 74.5379 172.222 41.4228C181.59 59.7303 210.007 101.73 254.349 101.73C268.714 101.73 266.528 92.3071 266.528 92.3071C266.528 92.3071 293.071 99.307 293.071 124.615C293.071 150.191 254.349 162.845 206.259 108.461C218.75 144.537 257.472 176.037 286.201 176.037C329.295 176.037 334.916 114.922 308.997 114.922C331.793 95.2686 363.02 113.576 363.02 140.499C363.02 158.537 337.102 183.306 315.867 183.306C356.15 188.422 388.314 161.499 388.314 119.23C388.314 86.384 353.652 65.9226 323.049 90.9609C322.737 91.2301 318.053 85.5763 318.053 74.2687C318.053 63.2303 326.172 42.7689 362.083 42.7689C397.995 42.7689 435.155 71.5764 417.668 132.422C417.668 132.422 448.895 81.5379 390.188 16.3845C376.76 16.9229 372.076 8.57685 372.076 8.57685C364.894 14.7691 361.771 20.1537 336.477 20.1537C292.134 20.1537 281.205 -6.7692 281.205 -6.7692C311.807 -6.7692 323.986 -25.346 347.719 -25.346C365.206 -25.346 373.638 -15.6538 373.638 -15.6538C373.638 -15.6538 363.02 -30.1921 363.02 -45.2689C363.02 -76.2303 379.883 -96.9609 375.511 -105.038C375.511 -105.038 408.3 -90.4994 408.3 -52.2689C408.3 -32.0767 394.872 -15.923 394.872 -15.923C400.493 -12.6922 407.987 1.03844 400.493 10.9999C400.493 10.9999 443.586 59.4611 443.586 100.115C443.586 122.461 435.467 143.73 435.467 143.73C435.467 143.73 456.702 132.422 478.249 132.422C519.469 132.422 516.346 173.883 480.435 173.883C487.617 167.691 481.059 159.884 464.821 159.884C413.608 159.884 389.251 202.691 329.607 202.691C232.802 202.691 204.698 126.499 204.698 126.499C204.698 126.499 221.248 227.46 328.982 227.46C345.533 227.46 357.087 222.614 358.024 222.883C358.961 223.152 364.894 242.268 327.733 247.652C326.484 248.729 384.255 256.537 394.872 216.691C408.612 216.691 408.924 239.845 387.69 256.537C411.735 256.537 460.449 228.806 456.702 197.845C473.877 197.845 500.108 214.537 477.312 250.614C485.119 250.614 539.142 215.075 539.142 176.306C539.142 146.691 518.844 138.345 518.844 138.345C518.844 138.345 537.893 123.268 561.001 138.884C584.422 154.499 578.8 195.96 565.373 206.46C565.373 206.46 610.028 169.576 580.362 118.691C580.362 118.691 615.649 104.153 615.649 146.961C615.649 146.961 632.824 121.922 632.824 72.6534C632.824 -62.4996 481.996 -42.0382 481.996 36.0382C481.996 110.345 571.931 104.422 571.931 57.8457C571.931 11.2691 506.666 21.2306 506.666 32.8074C506.666 -6.23074 605.656 -17.5384 605.656 57.8457C605.656 132.422 450.769 138.884 450.769 39.8074C450.769 -41.2305 564.748 -37.1921 564.748 -37.1921C564.748 -37.1921 536.331 -58.4612 536.331 -82.961C536.331 -107.461 551.945 -113.384 569.432 -111.23C567.871 -110.153 540.703 -91.0379 593.165 -40.4228C593.165 -45.8074 583.172 -57.6535 583.172 -75.961C583.172 -94.2686 598.786 -116.345 621.894 -104.23C610.028 -78.6533 631.887 -57.6535 630.013 -42.3074C630.013 -42.3074 630.95 -90.4994 689.033 -93.7301C649.374 -40.4228 646.564 10.1922 646.564 10.1922C646.564 10.1922 676.23 -16.1922 702.773 -1.11539C674.044 14.4999 654.058 31.1921 649.686 55.6919C645.315 80.1917 651.56 268.921 387.69 268.921C228.119 268.921 200.638 144.268 200.638 144.268C200.638 144.268 205.01 268.921 44.1899 268.921C-131.932 268.921 -182.832 45.9997 -28.2572 45.9997C75.1049 45.9997 66.9858 160.153 5.15585 160.153C-25.1346 160.153 -30.7555 146.691 -30.7555 146.691C17.3345 146.691 22.9554 73.7303 -46.3691 73.7303C-115.694 73.7303 -123.188 161.768 -55.1127 220.46C-70.7263 183.576 -31.6923 173.076 -31.6923 173.076C-31.6923 173.076 -46.0569 220.46 -4.52461 246.575C-4.52461 246.575 -22.3241 216.152 2.97 193.806C13.5873 244.96 51.6844 253.037 51.6844 253.037C51.6844 253.037 37.32 231.229 50.4355 218.306C50.4355 217.768 63.5509 258.96 119.135 243.344C174.72 227.46 189.709 168.768 189.709 141.037C189.709 82.3456 161.292 43.0381 161.292 43.0381C161.292 43.0381 168.787 72.9226 153.798 100.653C153.173 101.192 165.664 106.576 160.043 124.615C176.593 138.884 186.898 170.922 155.671 206.191C160.668 164.46 128.816 169.576 140.058 128.653C131.626 141.845 121.633 143.999 107.893 143.999C94.1535 143.999 82.2871 137.268 71.3576 137.268C60.428 137.268 54.495 143.999 54.495 143.999C54.495 143.999 51.6846 104.153 97.2763 104.153C113.515 104.153 124.756 112.23 124.756 112.23C124.756 112.23 131.002 96.3455 146.615 97.9609C153.485 79.1148 172.534 23.6537 115.388 -13.4999C148.489 27.1536 148.489 85.3071 101.648 85.3071C76.354 85.3071 69.1718 63.7688 69.1718 63.7688C82.9118 70.7687 126.63 34.692 82.5995 -37.4613C71.9822 -43.1151 64.7999 -46.8843 64.7999 -46.8843C64.7999 -46.8843 89.4695 -18.6153 89.4695 5.88456C89.4695 30.3844 77.2908 43.5766 56.3685 43.5766C35.4463 43.5766 29.5132 26.6152 29.5132 26.6152C40.4427 26.6152 58.2423 7.76917 58.2423 -17.2691C58.2423 -42.3074 31.0745 -66.538 2.34542 -74.3457C44.8145 -37.7305 28.8886 11.8076 -2.02637 11.8076C-32.9414 11.8076 -29.1941 -7.30766 -29.1941 -7.30766C-10.4578 2.92303 22.3309 -71.6534 -62.9195 -92.6532C-62.9195 -92.6532 -26.6959 -74.8841 -26.6959 -46.0766C-26.6959 -17.2691 -58.86 -13.2307 -78.8454 -37.9998Z" fill="#FF7676"/>
<path d="M548.51 59.1906C548.51 67.5367 540.703 74.2674 531.022 74.2674C521.342 74.2674 513.535 67.5367 513.535 59.1906C513.535 50.8445 521.342 44.1138 531.022 44.1138C540.703 44.1138 548.51 51.1137 548.51 59.1906Z" fill="#FF7676"/>
<path d="M330.544 35.5005C330.544 35.5005 302.751 23.9237 277.77 30.3852C248.104 38.1928 253.1 65.9234 273.71 65.9234C290.261 65.9234 294.945 51.3851 330.544 35.5005Z" fill="#FF7676"/>
<path d="M204.698 181.69C204.386 180.882 205.947 246.035 150.051 264.612C152.237 266.497 179.404 277.535 195.643 256.535C195.643 267.035 212.193 272.15 212.193 272.15C212.193 272.15 225.933 264.612 226.87 253.843C226.87 253.843 241.234 276.997 277.77 264.881C277.77 265.151 218.126 240.112 204.698 181.69Z" fill="#FF7676"/>
<path d="M94.1533 154.768C87.2833 162.038 85.4097 171.461 89.4692 179.268C93.2165 185.999 100.711 190.037 109.142 190.037C114.139 190.037 121.945 188.422 129.752 181.422L130.065 181.153C132.875 178.46 135.061 175.768 136.31 173.076C136.31 173.076 152.236 196.499 134.124 213.729C116.012 230.96 101.648 226.114 96.339 210.23C89.1568 218.576 78.8518 218.576 71.3573 213.999C63.8627 209.153 64.7996 196.499 64.7996 196.499C64.7996 196.499 42.6283 200.806 42.6283 183.576C42.6283 166.076 54.4947 152.884 70.1083 151.538C84.4728 150.461 94.1533 154.768 94.1533 154.768Z" fill="#FF7676"/>
<path d="M128.191 149.384C124.756 159.077 131.626 165 121.633 174.423C106.644 188.153 91.6552 173.076 103.209 160.961C111.016 153.153 121.633 153.692 128.191 149.384Z" fill="#FF7676"/>
<path d="M783.344 -111.769C783.344 -111.769 804.266 -71.3842 749.306 -60.6151C846.423 -21.8461 855.167 72.9225 871.717 124.614C888.268 176.306 918.87 134.845 918.87 134.845C930.112 172.268 887.331 197.845 866.409 148.307C855.167 196.768 872.654 220.191 907.316 220.191C948.849 220.191 933.859 166.345 933.859 166.345C933.859 166.345 956.031 193.268 956.031 216.691C956.031 240.114 926.989 244.421 926.989 244.421C926.989 244.421 921.993 268.383 892.327 268.383C805.203 268.383 853.918 164.73 853.918 115.461C832.371 174.691 748.682 202.422 732.131 154.23C732.131 154.23 856.416 151.807 838.929 59.1918C838.929 143.73 724.637 138.345 746.184 103.076C746.184 117.884 812.386 106.307 812.386 37.3843C812.386 -40.4229 737.44 -54.4228 737.44 -54.4228C737.44 -54.4228 785.53 -31.5383 785.53 19.6152C785.53 102.807 695.908 66.1918 695.908 66.1918C695.908 66.1918 742.436 55.1534 742.436 2.38453C742.436 -50.3843 689.35 -63.3073 689.35 -63.3073C689.35 -63.3073 758.987 -70.3073 783.344 -111.769Z" fill="#FF7676"/>
<path d="M702.778 139.96C702.778 127.576 647.505 128.114 647.505 159.614C647.505 185.46 664.056 209.69 725.261 209.69C759.924 209.69 780.221 200.806 780.221 200.806C780.221 200.806 723.075 250.613 655.625 250.613C617.215 250.613 624.709 218.306 651.253 218.306C666.866 218.306 661.245 234.729 661.245 234.729C670.301 236.613 681.855 195.96 636.264 195.96C590.984 195.96 576.62 269.459 645.32 269.459C714.02 269.459 770.541 219.921 770.541 219.921C770.541 219.921 766.481 226.921 766.481 234.19C766.481 266.498 820.192 256.267 820.192 230.421C820.192 219.383 811.136 220.998 811.136 220.998C811.136 230.959 786.467 240.652 786.467 223.421C786.467 206.19 818.631 185.729 818.631 185.729C824.876 181.691 824.564 175.229 813.947 181.152C803.33 187.075 785.842 195.69 759.924 195.69C734.005 195.69 689.35 186.806 689.35 159.075C689.662 143.999 702.778 139.96 702.778 139.96Z" fill="#FF7676"/>
<path d="M1300.16 200.267C1300.16 201.075 1304.53 213.729 1287.66 213.729C1270.49 213.729 1262.37 196.767 1278.61 167.96C1294.85 139.152 1291.1 139.153 1281.11 149.652C1271.11 160.152 1259.25 193.268 1214.28 193.268C1169.31 193.268 1179.62 148.845 1207.72 148.845C1207.72 143.191 1151.83 133.768 1151.83 179.806C1151.83 219.652 1214.9 210.498 1214.9 210.498C1214.9 210.498 1192.73 233.383 1164.63 233.383C1136.52 233.383 1099.36 211.037 1099.36 170.383C1099.36 129.729 1123.41 128.922 1123.41 128.922C1123.41 128.922 1066.26 121.114 1066.26 169.845C1066.26 218.844 1111.54 244.421 1111.54 244.421C1111.54 244.421 1043.47 245.767 1043.47 162.575C1043.47 111.691 1088.75 102.537 1088.75 102.537C1088.75 102.537 1016.3 71.8453 1015.05 152.614C1015.05 189.229 1032.85 207.267 1032.85 207.267C1032.85 207.267 996.314 180.345 996.314 139.96C996.314 71.8453 1048.46 56.23 1048.46 56.23C1048.46 56.23 1014.74 25.5379 990.693 61.6146C976.641 84.499 979.764 122.73 979.764 122.73C967.585 77.7683 970.708 -44.4616 1100.93 -44.4616C1190.24 -44.4616 1194.92 59.9992 1127.47 59.9992C1109.36 59.9992 1093.74 47.0762 1093.74 30.9225C1093.74 14.7688 1108.73 1.84576 1127.47 1.84576C1133.4 1.84576 1139.02 3.1919 1143.71 5.34573C1140.27 -20.5002 1059.08 -21.5772 1059.08 33.6148C1059.08 106.576 1209.91 111.153 1209.91 25.5379C1209.91 -51.1923 1113.73 -59 1113.73 -59C1138.71 -59 1144.02 -89.9613 1116.23 -89.9613C1124.97 -61.423 1078.75 -58.4615 1078.75 -58.4615C1078.75 -58.4615 1099.05 -70.5768 1099.05 -86.9998C1099.05 -103.423 1082.5 -109.077 1065.64 -109.077C1065.64 -109.077 1078.75 -58.4615 1036.28 -46.3462C1036.28 -46.3462 1051.27 -60.3461 1051.27 -86.7305C1051.27 -113.115 1001.93 -116.884 1001.93 -112.577C1046.59 -82.1537 1014.11 -29.1156 1014.11 -29.1156C1014.11 -29.1156 998.5 -11.3465 996.002 -7.57725C996.002 -7.57725 1009.43 -33.4232 1009.43 -56.8461C1009.43 -80.269 995.065 -114.192 965.711 -114.192C947.6 -114.192 942.916 -105.307 942.916 -105.307C942.916 -105.307 1004.75 -82.1536 982.574 12.3457C977.266 26.3456 972.581 28.7687 972.269 32.5379C972.269 16.6534 977.265 -16.4618 961.964 -41.2309C946.975 -66.2691 915.123 -92.9228 927.614 -112.577C891.703 -117.961 887.019 -93.192 887.019 -93.192C853.918 -109.615 834.245 -83.2306 817.694 -80.5383C827.687 -70.846 812.386 -41.5001 857.977 -26.6925C832.059 -9.46185 850.483 16.1149 850.483 16.1149C850.483 16.1149 887.956 -12.1541 926.053 8.03802C964.462 27.961 961.964 73.7299 961.964 73.7299C961.964 73.7299 948.849 25.2687 914.811 25.2687C880.773 25.2687 872.654 58.6531 883.271 77.7683C883.896 75.8837 897.012 62.6915 913.874 62.6915C931.049 62.6915 956.968 70.7684 962.277 107.114C960.715 107.114 956.968 87.1913 929.176 87.1913C905.131 87.1913 908.253 111.691 908.253 111.691C908.253 111.691 917.934 101.46 931.361 111.691C951.659 127.037 1015.68 260.575 1120.91 260.575C1159.94 260.575 1214.9 226.921 1214.9 226.921C1214.9 226.921 1206.47 250.075 1231.77 260.575C1229.89 243.613 1249.57 207.537 1261.12 192.998C1255.19 206.998 1257.69 216.152 1257.06 216.96C1261.75 253.575 1314.21 242.536 1314.21 219.652C1313.9 205.114 1300.16 199.46 1300.16 200.267ZM889.517 -34.2309C859.539 -44.1924 876.089 -81.0767 905.13 -66.8076C934.172 -52.5385 950.098 -5.42342 950.098 -5.42342C938.231 -20.7695 919.495 -24.2694 889.517 -34.2309Z" fill="#FF7676"/>
<path d="M-78.8454 355.417C-78.8454 355.417 -58.5477 359.724 -58.5477 336.84C-58.5477 301.571 -101.954 287.84 -101.954 287.84C-101.954 287.84 -66.0423 295.379 -40.436 295.379C-14.8296 295.379 11.4013 292.686 5.78043 283.533C11.7136 281.648 33.2604 279.763 33.2604 289.994C33.2604 300.225 -5.77363 306.417 -28.2572 304.263C4.21909 310.725 5.15585 310.725 22.3308 310.725C39.5058 310.725 77.9154 305.071 68.5472 288.379C68.5472 288.379 95.715 277.34 95.715 296.186C95.715 309.379 61.9895 324.186 19.5204 318.802C18.5836 319.609 35.7586 326.34 56.0563 326.34C76.6663 326.34 123.195 320.148 123.195 287.302C123.195 287.302 150.363 287.84 150.363 311.532C150.363 335.225 85.7223 343.032 62.9264 336.84C62.9264 336.84 131.938 377.763 175.032 377.763C223.747 377.763 233.427 322.302 185.649 322.302C166.601 322.302 161.292 335.763 161.292 335.763C161.292 335.763 154.734 288.11 205.947 288.11C275.272 288.11 264.654 389.34 189.709 389.34C155.983 389.34 140.682 382.34 140.682 382.34C173.158 397.686 194.081 436.455 234.676 422.186C234.676 422.186 239.985 425.416 239.985 434.839C239.985 444.262 216.252 467.954 172.222 434.839C181.59 453.147 210.007 495.147 254.349 495.147C268.714 495.147 266.528 485.724 266.528 485.724C266.528 485.724 293.071 492.724 293.071 518.031C293.071 543.608 254.349 556.262 206.259 501.877C218.75 537.954 257.472 569.454 286.201 569.454C329.295 569.454 334.916 508.339 308.997 508.339C331.793 488.685 363.02 506.993 363.02 533.916C363.02 551.954 337.102 576.723 315.867 576.723C356.15 581.838 388.314 554.915 388.314 512.646C388.314 479.801 353.652 459.339 323.049 484.377C322.737 484.647 318.053 478.993 318.053 467.685C318.053 456.647 326.172 436.185 362.083 436.185C397.995 436.185 435.155 464.993 417.668 525.839C417.668 525.839 448.895 474.954 390.188 409.801C376.76 410.339 372.076 401.993 372.076 401.993C364.894 408.186 361.771 413.57 336.477 413.57C292.134 413.57 281.205 386.647 281.205 386.647C311.807 386.647 323.986 368.071 347.719 368.071C365.206 368.071 373.638 377.763 373.638 377.763C373.638 377.763 363.02 363.224 363.02 348.148C363.02 317.186 379.883 296.456 375.511 288.379C375.511 288.379 408.3 302.917 408.3 341.148C408.3 361.34 394.872 377.494 394.872 377.494C400.493 380.724 407.987 394.455 400.493 404.416C400.493 404.416 443.586 452.878 443.586 493.531C443.586 515.877 435.467 537.146 435.467 537.146C435.467 537.146 456.702 525.839 478.249 525.839C519.469 525.839 516.346 567.3 480.435 567.3C487.617 561.108 481.059 553.3 464.821 553.3C413.608 553.3 389.251 596.107 329.607 596.107C232.802 596.107 204.698 519.916 204.698 519.916C204.698 519.916 221.248 620.876 328.982 620.876C345.533 620.876 357.087 616.03 358.024 616.3C358.961 616.569 364.894 635.684 327.733 641.069C326.484 642.146 384.255 649.953 394.872 610.107C408.612 610.107 408.924 633.261 387.69 649.953C411.735 649.953 460.449 622.223 456.702 591.261C473.877 591.261 500.108 607.953 477.312 644.03C485.119 644.03 539.142 608.492 539.142 569.723C539.142 540.108 518.844 531.762 518.844 531.762C518.844 531.762 537.893 516.685 561.001 532.3C584.422 547.915 578.8 589.377 565.373 599.877C565.373 599.877 610.028 562.992 580.362 512.108C580.362 512.108 615.649 497.57 615.649 540.377C615.649 540.377 632.824 515.339 632.824 466.07C632.824 330.917 481.996 351.378 481.996 429.455C481.996 503.762 571.931 497.839 571.931 451.262C571.931 404.686 506.666 414.647 506.666 426.224C506.666 387.186 605.656 375.878 605.656 451.262C605.656 525.839 450.769 532.3 450.769 433.224C450.769 352.186 564.748 356.224 564.748 356.224C564.748 356.224 536.331 334.955 536.331 310.456C536.331 285.956 551.945 280.033 569.432 282.186C567.871 283.263 540.703 302.379 593.165 352.994C593.165 347.609 583.172 335.763 583.172 317.455C583.172 299.148 598.786 277.071 621.894 289.186C610.028 314.763 631.887 335.763 630.013 351.109C630.013 351.109 630.95 302.917 689.033 299.686C649.374 352.994 646.564 403.609 646.564 403.609C646.564 403.609 676.23 377.224 702.773 392.301C674.044 407.916 654.058 424.609 649.686 449.108C645.315 473.608 651.56 662.338 387.69 662.338C228.119 662.338 200.638 537.685 200.638 537.685C200.638 537.685 205.01 662.338 44.1899 662.338C-131.932 662.338 -182.832 439.416 -28.2572 439.416C75.1049 439.416 66.9858 553.569 5.15585 553.569C-25.1346 553.569 -30.7555 540.108 -30.7555 540.108C17.3345 540.108 22.9554 467.147 -46.3691 467.147C-115.694 467.147 -123.188 555.185 -55.1127 613.877C-70.7263 576.992 -31.6923 566.492 -31.6923 566.492C-31.6923 566.492 -46.0569 613.876 -4.52461 639.992C-4.52461 639.992 -22.3241 609.569 2.97 587.223C13.5873 638.376 51.6844 646.453 51.6844 646.453C51.6844 646.453 37.32 624.646 50.4355 611.723C50.4355 611.184 63.5509 652.376 119.135 636.761C174.72 620.876 189.709 562.185 189.709 534.454C189.709 475.762 161.292 436.455 161.292 436.455C161.292 436.455 168.787 466.339 153.798 494.07C153.173 494.608 165.664 499.993 160.043 518.031C176.593 532.3 186.898 564.338 155.671 599.607C160.668 557.877 128.816 562.992 140.058 522.069C131.626 535.262 121.633 537.416 107.893 537.416C94.1535 537.416 82.2871 530.685 71.3576 530.685C60.428 530.685 54.495 537.416 54.495 537.416C54.495 537.416 51.6846 497.57 97.2763 497.57C113.515 497.57 124.756 505.646 124.756 505.646C124.756 505.646 131.002 489.762 146.615 491.377C153.485 472.531 172.534 417.07 115.388 379.917C148.489 420.57 148.489 478.724 101.648 478.724C76.354 478.724 69.1718 457.185 69.1718 457.185C82.9118 464.185 126.63 428.109 82.5995 355.955C71.9822 350.301 64.7999 346.532 64.7999 346.532C64.7999 346.532 89.4695 374.801 89.4695 399.301C89.4695 423.801 77.2908 436.993 56.3685 436.993C35.4463 436.993 29.5132 420.032 29.5132 420.032C40.4427 420.032 58.2423 401.186 58.2423 376.147C58.2423 351.109 31.0745 326.878 2.34542 319.071C44.8145 355.686 28.8886 405.224 -2.02637 405.224C-32.9414 405.224 -29.1941 386.109 -29.1941 386.109C-10.4578 396.34 22.3309 321.763 -62.9195 300.763C-62.9195 300.763 -26.6959 318.532 -26.6959 347.34C-26.6959 376.147 -58.86 380.186 -78.8454 355.417Z" fill="#FF7676"/>
<path d="M197.516 351.109C197.516 357.839 191.271 362.955 183.776 362.955C176.282 362.955 170.036 357.57 170.036 351.109C170.036 344.647 176.282 339.263 183.776 339.263C191.271 339.263 197.516 344.378 197.516 351.109Z" fill="#FF7676"/>
<path d="M548.51 452.607C548.51 460.953 540.703 467.684 531.022 467.684C521.342 467.684 513.535 460.953 513.535 452.607C513.535 444.261 521.342 437.53 531.022 437.53C540.703 437.53 548.51 444.53 548.51 452.607Z" fill="#FF7676"/>
<path d="M358.025 330.108C353.028 324.455 347.407 322.839 338.976 322.839C327.422 322.839 322.425 327.955 320.24 330.916C317.429 335.224 317.429 339.531 317.429 341.685C317.429 348.954 324.299 354.608 332.73 359.993C313.057 364.031 304.314 373.993 288.7 371.839C249.978 366.724 259.659 329.032 282.455 324.724C268.715 306.147 294.946 285.955 318.366 302.109C318.991 269.801 363.021 271.686 363.021 297.532C362.709 306.147 358.649 320.955 358.025 330.108Z" fill="#FF7676"/>
<path d="M354.901 361.878C355.213 362.148 359.273 333.071 339.287 333.071C328.982 333.071 329.295 338.994 329.295 341.955C328.982 347.609 348.656 356.494 354.901 361.878Z" fill="#FF7676"/>
<path d="M330.544 428.917C330.544 428.917 302.751 417.34 277.77 423.802C248.104 431.609 253.1 459.34 273.71 459.34C290.261 459.34 294.945 444.802 330.544 428.917Z" fill="#FF7676"/>
<path d="M540.704 345.994C540.704 345.994 506.979 298.34 457.952 298.34C412.985 298.34 428.598 344.109 462.324 340.609C490.428 337.379 516.035 330.917 540.704 345.994Z" fill="#FF7676"/>
<path d="M204.698 575.106C204.386 574.298 205.947 639.452 150.051 658.029C152.237 659.913 179.404 670.952 195.643 649.952C195.643 660.452 212.193 665.567 212.193 665.567C212.193 665.567 225.933 658.029 226.87 647.259C226.87 647.259 241.234 670.413 277.77 658.298C277.77 658.567 218.126 633.529 204.698 575.106Z" fill="#FF7676"/>
<path d="M94.1533 548.185C87.2833 555.454 85.4097 564.877 89.4692 572.685C93.2165 579.415 100.711 583.454 109.142 583.454C114.139 583.454 121.945 581.838 129.752 574.839L130.065 574.569C132.875 571.877 135.061 569.185 136.31 566.492C136.31 566.492 152.236 589.915 134.124 607.146C116.012 624.377 101.648 619.531 96.339 603.646C89.1568 611.992 78.8518 611.992 71.3573 607.415C63.8627 602.569 64.7996 589.915 64.7996 589.915C64.7996 589.915 42.6283 594.223 42.6283 576.992C42.6283 559.492 54.4947 546.3 70.1083 544.954C84.4728 543.877 94.1533 548.185 94.1533 548.185Z" fill="#FF7676"/>
<path d="M128.191 542.801C124.756 552.493 131.626 558.416 121.633 567.839C106.644 581.57 91.6552 566.493 103.209 554.378C111.016 546.57 121.633 547.108 128.191 542.801Z" fill="#FF7676"/>
<path d="M783.344 281.648C783.344 281.648 804.266 322.032 749.306 332.801C846.423 371.57 855.167 466.339 871.717 518.031C888.268 569.723 918.87 528.262 918.87 528.262C930.112 565.685 887.331 591.261 866.409 541.723C855.167 590.184 872.654 613.607 907.316 613.607C948.849 613.607 933.859 559.761 933.859 559.761C933.859 559.761 956.031 586.684 956.031 610.107C956.031 633.53 926.989 637.838 926.989 637.838C926.989 637.838 921.993 661.799 892.327 661.799C805.203 661.799 853.918 558.146 853.918 508.877C832.371 568.108 748.682 595.838 732.131 547.646C732.131 547.646 856.416 545.223 838.929 452.608C838.929 537.146 724.637 531.762 746.184 496.493C746.184 511.3 812.386 499.723 812.386 430.801C812.386 352.994 737.44 338.994 737.44 338.994C737.44 338.994 785.53 361.878 785.53 413.032C785.53 496.223 695.908 459.608 695.908 459.608C695.908 459.608 742.436 448.57 742.436 395.801C742.436 343.032 689.35 330.109 689.35 330.109C689.35 330.109 758.987 323.109 783.344 281.648Z" fill="#FF7676"/>
<path d="M702.778 533.377C702.778 520.992 647.505 521.531 647.505 553.03C647.505 578.876 664.056 603.107 725.261 603.107C759.924 603.107 780.221 594.222 780.221 594.222C780.221 594.222 723.075 644.03 655.625 644.03C617.215 644.03 624.709 611.722 651.253 611.722C666.866 611.722 661.245 628.145 661.245 628.145C670.301 630.03 681.855 589.376 636.264 589.376C590.984 589.376 576.62 662.876 645.32 662.876C714.02 662.876 770.541 613.338 770.541 613.338C770.541 613.338 766.481 620.338 766.481 627.607C766.481 659.914 820.192 649.683 820.192 623.837C820.192 612.799 811.136 614.414 811.136 614.414C811.136 624.376 786.467 634.068 786.467 616.838C786.467 599.607 818.631 579.146 818.631 579.146C824.876 575.107 824.564 568.646 813.947 574.569C803.33 580.492 785.842 589.107 759.924 589.107C734.005 589.107 689.35 580.222 689.35 552.492C689.662 537.415 702.778 533.377 702.778 533.377Z" fill="#FF7676"/>
<path d="M1300.16 593.684C1300.16 594.492 1304.53 607.145 1287.66 607.145C1270.49 607.145 1262.37 590.184 1278.61 561.376C1294.85 532.569 1291.1 532.569 1281.11 543.069C1271.11 553.569 1259.25 586.684 1214.28 586.684C1169.31 586.684 1179.62 542.261 1207.72 542.261C1207.72 536.607 1151.83 527.184 1151.83 573.223C1151.83 613.068 1214.9 603.915 1214.9 603.915C1214.9 603.915 1192.73 626.799 1164.63 626.799C1136.52 626.799 1099.36 604.453 1099.36 563.8C1099.36 523.146 1123.41 522.338 1123.41 522.338C1123.41 522.338 1066.26 514.531 1066.26 563.261C1066.26 612.261 1111.54 637.838 1111.54 637.838C1111.54 637.838 1043.47 639.184 1043.47 555.992C1043.47 505.108 1088.75 495.954 1088.75 495.954C1088.75 495.954 1016.3 465.262 1015.05 546.03C1015.05 582.646 1032.85 600.684 1032.85 600.684C1032.85 600.684 996.314 573.761 996.314 533.377C996.314 465.262 1048.46 449.647 1048.46 449.647C1048.46 449.647 1014.74 418.954 990.693 455.031C976.641 477.916 979.764 516.146 979.764 516.146C967.585 471.185 970.708 348.955 1100.93 348.955C1190.24 348.955 1194.92 453.416 1127.47 453.416C1109.36 453.416 1093.74 440.493 1093.74 424.339C1093.74 408.185 1108.73 395.262 1127.47 395.262C1133.4 395.262 1139.02 396.608 1143.71 398.762C1140.27 372.916 1059.08 371.839 1059.08 427.031C1059.08 499.992 1209.91 504.569 1209.91 418.954C1209.91 342.224 1113.73 334.417 1113.73 334.417C1138.71 334.417 1144.02 303.455 1116.23 303.455C1124.97 331.993 1078.75 334.955 1078.75 334.955C1078.75 334.955 1099.05 322.84 1099.05 306.417C1099.05 289.994 1082.5 284.34 1065.64 284.34C1065.64 284.34 1078.75 334.955 1036.28 347.07C1036.28 347.07 1051.27 333.07 1051.27 306.686C1051.27 280.302 1001.93 276.532 1001.93 280.84C1046.59 311.263 1014.11 364.301 1014.11 364.301C1014.11 364.301 998.5 382.07 996.002 385.839C996.002 385.839 1009.43 359.993 1009.43 336.57C1009.43 313.147 995.065 279.225 965.711 279.225C947.6 279.225 942.916 288.109 942.916 288.109C942.916 288.109 1004.75 311.263 982.574 405.762C977.266 419.762 972.581 422.185 972.269 425.954C972.269 410.07 977.265 376.955 961.964 352.186C946.975 327.147 915.123 300.494 927.614 280.84C891.703 275.455 887.019 300.224 887.019 300.224C853.918 283.802 834.245 310.186 817.694 312.878C827.687 322.57 812.386 351.916 857.977 366.724C832.059 383.955 850.483 409.531 850.483 409.531C850.483 409.531 887.956 381.262 926.053 401.455C964.462 421.377 961.964 467.146 961.964 467.146C961.964 467.146 948.849 418.685 914.811 418.685C880.773 418.685 872.654 452.07 883.271 471.185C883.896 469.3 897.012 456.108 913.874 456.108C931.049 456.108 956.968 464.185 962.277 500.531C960.715 500.531 956.968 480.608 929.176 480.608C905.131 480.608 908.253 505.108 908.253 505.108C908.253 505.108 917.934 494.877 931.361 505.108C951.659 520.454 1015.68 653.991 1120.91 653.991C1159.94 653.991 1214.9 620.338 1214.9 620.338C1214.9 620.338 1206.47 643.491 1231.77 653.991C1229.89 637.03 1249.57 600.953 1261.12 586.415C1255.19 600.415 1257.69 609.568 1257.06 610.376C1261.75 646.991 1314.21 635.953 1314.21 613.068C1313.9 598.53 1300.16 592.876 1300.16 593.684ZM889.517 359.186C859.539 349.224 876.089 312.34 905.13 326.609C934.172 340.878 950.098 387.993 950.098 387.993C938.231 372.647 919.495 369.147 889.517 359.186Z" fill="#FF7676"/>
<path d="M-78.8454 748.417C-78.8454 748.417 -58.5477 752.724 -58.5477 729.84C-58.5477 694.571 -101.954 680.84 -101.954 680.84C-101.954 680.84 -66.0423 688.379 -40.436 688.379C-14.8296 688.379 11.4013 685.686 5.78043 676.533C11.7136 674.648 33.2604 672.763 33.2604 682.994C33.2604 693.225 -5.77363 699.417 -28.2572 697.263C4.21909 703.725 5.15585 703.725 22.3308 703.725C39.5058 703.725 77.9154 698.071 68.5472 681.379C68.5472 681.379 95.715 670.34 95.715 689.186C95.715 702.379 61.9895 717.186 19.5204 711.802C18.5836 712.609 35.7586 719.34 56.0563 719.34C76.6663 719.34 123.195 713.148 123.195 680.302C123.195 680.302 150.363 680.84 150.363 704.532C150.363 728.225 85.7223 736.032 62.9264 729.84C62.9264 729.84 131.938 770.763 175.032 770.763C223.747 770.763 233.427 715.302 185.649 715.302C166.601 715.302 161.292 728.763 161.292 728.763C161.292 728.763 154.734 681.11 205.947 681.11C275.272 681.11 264.654 782.34 189.709 782.34C155.983 782.34 140.682 775.34 140.682 775.34C173.158 790.686 194.081 829.455 234.676 815.186C234.676 815.186 239.985 818.416 239.985 827.839C239.985 837.262 216.252 860.954 172.222 827.839C181.59 846.147 210.007 888.147 254.349 888.147C268.714 888.147 266.528 878.724 266.528 878.724C266.528 878.724 293.071 885.724 293.071 911.031C293.071 936.608 254.349 949.262 206.259 894.877C218.75 930.954 257.472 962.454 286.201 962.454C329.295 962.454 334.916 901.339 308.997 901.339C331.793 881.685 363.02 899.993 363.02 926.916C363.02 944.954 337.102 969.723 315.867 969.723C356.15 974.838 388.314 947.915 388.314 905.646C388.314 872.801 353.652 852.339 323.049 877.377C322.737 877.647 318.053 871.993 318.053 860.685C318.053 849.647 326.172 829.185 362.083 829.185C397.995 829.185 435.155 857.993 417.668 918.839C417.668 918.839 448.895 867.954 390.188 802.801C376.76 803.339 372.076 794.993 372.076 794.993C364.894 801.186 361.771 806.57 336.477 806.57C292.134 806.57 281.205 779.647 281.205 779.647C311.807 779.647 323.986 761.071 347.719 761.071C365.206 761.071 373.638 770.763 373.638 770.763C373.638 770.763 363.02 756.224 363.02 741.148C363.02 710.186 379.883 689.456 375.511 681.379C375.511 681.379 408.3 695.917 408.3 734.148C408.3 754.34 394.872 770.494 394.872 770.494C400.493 773.724 407.987 787.455 400.493 797.416C400.493 797.416 443.586 845.878 443.586 886.531C443.586 908.877 435.467 930.146 435.467 930.146C435.467 930.146 456.702 918.839 478.249 918.839C519.469 918.839 516.346 960.3 480.435 960.3C487.617 954.108 481.059 946.3 464.821 946.3C413.608 946.3 389.251 989.107 329.607 989.107C232.802 989.107 204.698 912.916 204.698 912.916C204.698 912.916 221.248 1013.88 328.982 1013.88C345.533 1013.88 357.087 1009.03 358.024 1009.3C358.961 1009.57 364.894 1028.68 327.733 1034.07C326.484 1035.15 384.255 1042.95 394.872 1003.11C408.612 1003.11 408.924 1026.26 387.69 1042.95C411.735 1042.95 460.449 1015.22 456.702 984.261C473.877 984.261 500.108 1000.95 477.312 1037.03C485.119 1037.03 539.142 1001.49 539.142 962.723C539.142 933.108 518.844 924.762 518.844 924.762C518.844 924.762 537.893 909.685 561.001 925.3C584.422 940.915 578.8 982.377 565.373 992.877C565.373 992.877 610.028 955.992 580.362 905.108C580.362 905.108 615.649 890.57 615.649 933.377C615.649 933.377 632.824 908.339 632.824 859.07C632.824 723.917 481.996 744.378 481.996 822.455C481.996 896.762 571.931 890.839 571.931 844.262C571.931 797.686 506.666 807.647 506.666 819.224C506.666 780.186 605.656 768.878 605.656 844.262C605.656 918.839 450.769 925.3 450.769 826.224C450.769 745.186 564.748 749.224 564.748 749.224C564.748 749.224 536.331 727.955 536.331 703.456C536.331 678.956 551.945 673.033 569.432 675.186C567.871 676.263 540.703 695.379 593.165 745.994C593.165 740.609 583.172 728.763 583.172 710.455C583.172 692.148 598.786 670.071 621.894 682.186C610.028 707.763 631.887 728.763 630.013 744.109C630.013 744.109 630.95 695.917 689.033 692.686C649.374 745.994 646.564 796.609 646.564 796.609C646.564 796.609 676.23 770.224 702.773 785.301C674.044 800.916 654.058 817.609 649.686 842.108C645.315 866.608 651.56 1055.34 387.69 1055.34C228.119 1055.34 200.638 930.685 200.638 930.685C200.638 930.685 205.01 1055.34 44.1899 1055.34C-131.932 1055.34 -182.832 832.416 -28.2572 832.416C75.1049 832.416 66.9858 946.569 5.15585 946.569C-25.1346 946.569 -30.7555 933.108 -30.7555 933.108C17.3345 933.108 22.9554 860.147 -46.3691 860.147C-115.694 860.147 -123.188 948.185 -55.1127 1006.88C-70.7263 969.992 -31.6923 959.492 -31.6923 959.492C-31.6923 959.492 -46.0569 1006.88 -4.52461 1032.99C-4.52461 1032.99 -22.3241 1002.57 2.97 980.223C13.5873 1031.38 51.6844 1039.45 51.6844 1039.45C51.6844 1039.45 37.32 1017.65 50.4355 1004.72C50.4355 1004.18 63.5509 1045.38 119.135 1029.76C174.72 1013.88 189.709 955.185 189.709 927.454C189.709 868.762 161.292 829.455 161.292 829.455C161.292 829.455 168.787 859.339 153.798 887.07C153.173 887.608 165.664 892.993 160.043 911.031C176.593 925.3 186.898 957.338 155.671 992.607C160.668 950.877 128.816 955.992 140.058 915.069C131.626 928.262 121.633 930.416 107.893 930.416C94.1535 930.416 82.2871 923.685 71.3576 923.685C60.428 923.685 54.495 930.416 54.495 930.416C54.495 930.416 51.6846 890.57 97.2763 890.57C113.515 890.57 124.756 898.646 124.756 898.646C124.756 898.646 131.002 882.762 146.615 884.377C153.485 865.531 172.534 810.07 115.388 772.917C148.489 813.57 148.489 871.724 101.648 871.724C76.354 871.724 69.1718 850.185 69.1718 850.185C82.9118 857.185 126.63 821.109 82.5995 748.955C71.9822 743.301 64.7999 739.532 64.7999 739.532C64.7999 739.532 89.4695 767.801 89.4695 792.301C89.4695 816.801 77.2908 829.993 56.3685 829.993C35.4463 829.993 29.5132 813.032 29.5132 813.032C40.4427 813.032 58.2423 794.186 58.2423 769.147C58.2423 744.109 31.0745 719.878 2.34542 712.071C44.8145 748.686 28.8886 798.224 -2.02637 798.224C-32.9414 798.224 -29.1941 779.109 -29.1941 779.109C-10.4578 789.34 22.3309 714.763 -62.9195 693.763C-62.9195 693.763 -26.6959 711.532 -26.6959 740.34C-26.6959 769.147 -58.86 773.186 -78.8454 748.417Z" fill="#FF7676"/>
<path d="M197.516 744.109C197.516 750.839 191.271 755.955 183.776 755.955C176.282 755.955 170.036 750.57 170.036 744.109C170.036 737.647 176.282 732.263 183.776 732.263C191.271 732.263 197.516 737.378 197.516 744.109Z" fill="#FF7676"/>
<path d="M548.51 845.607C548.51 853.953 540.703 860.684 531.022 860.684C521.342 860.684 513.535 853.953 513.535 845.607C513.535 837.261 521.342 830.53 531.022 830.53C540.703 830.53 548.51 837.53 548.51 845.607Z" fill="#FF7676"/>
<path d="M358.025 723.108C353.028 717.455 347.407 715.839 338.976 715.839C327.422 715.839 322.425 720.955 320.24 723.916C317.429 728.224 317.429 732.531 317.429 734.685C317.429 741.954 324.299 747.608 332.73 752.993C313.057 757.031 304.314 766.993 288.7 764.839C249.978 759.724 259.659 722.032 282.455 717.724C268.715 699.147 294.946 678.955 318.366 695.109C318.991 662.801 363.021 664.686 363.021 690.532C362.709 699.147 358.649 713.955 358.025 723.108Z" fill="#FF7676"/>
<path d="M354.901 754.878C355.213 755.148 359.273 726.071 339.287 726.071C328.982 726.071 329.295 731.994 329.295 734.955C328.982 740.609 348.656 749.494 354.901 754.878Z" fill="#FF7676"/>
<path d="M330.544 821.917C330.544 821.917 302.751 810.34 277.77 816.802C248.104 824.609 253.1 852.34 273.71 852.34C290.261 852.34 294.945 837.802 330.544 821.917Z" fill="#FF7676"/>
<path d="M540.704 738.994C540.704 738.994 506.979 691.34 457.952 691.34C412.985 691.34 428.598 737.109 462.324 733.609C490.428 730.379 516.035 723.917 540.704 738.994Z" fill="#FF7676"/>
<path d="M204.698 968.106C204.386 967.298 205.947 1032.45 150.051 1051.03C152.237 1052.91 179.404 1063.95 195.643 1042.95C195.643 1053.45 212.193 1058.57 212.193 1058.57C212.193 1058.57 225.933 1051.03 226.87 1040.26C226.87 1040.26 241.234 1063.41 277.77 1051.3C277.77 1051.57 218.126 1026.53 204.698 968.106Z" fill="#FF7676"/>
<path d="M94.1533 941.185C87.2833 948.454 85.4097 957.877 89.4692 965.685C93.2165 972.415 100.711 976.454 109.142 976.454C114.139 976.454 121.945 974.838 129.752 967.839L130.065 967.569C132.875 964.877 135.061 962.185 136.31 959.492C136.31 959.492 152.236 982.915 134.124 1000.15C116.012 1017.38 101.648 1012.53 96.339 996.646C89.1568 1004.99 78.8518 1004.99 71.3573 1000.42C63.8627 995.569 64.7996 982.915 64.7996 982.915C64.7996 982.915 42.6283 987.223 42.6283 969.992C42.6283 952.492 54.4947 939.3 70.1083 937.954C84.4728 936.877 94.1533 941.185 94.1533 941.185Z" fill="#FF7676"/>
<path d="M128.191 935.801C124.756 945.493 131.626 951.416 121.633 960.839C106.644 974.57 91.6552 959.493 103.209 947.378C111.016 939.57 121.633 940.108 128.191 935.801Z" fill="#FF7676"/>
<path d="M783.344 674.648C783.344 674.648 804.266 715.032 749.306 725.801C846.423 764.57 855.167 859.339 871.717 911.031C888.268 962.723 918.87 921.262 918.87 921.262C930.112 958.685 887.331 984.261 866.409 934.723C855.167 983.184 872.654 1006.61 907.316 1006.61C948.849 1006.61 933.859 952.761 933.859 952.761C933.859 952.761 956.031 979.684 956.031 1003.11C956.031 1026.53 926.989 1030.84 926.989 1030.84C926.989 1030.84 921.993 1054.8 892.327 1054.8C805.203 1054.8 853.918 951.146 853.918 901.877C832.371 961.108 748.682 988.838 732.131 940.646C732.131 940.646 856.416 938.223 838.929 845.608C838.929 930.146 724.637 924.762 746.184 889.493C746.184 904.3 812.386 892.723 812.386 823.801C812.386 745.994 737.44 731.994 737.44 731.994C737.44 731.994 785.53 754.878 785.53 806.032C785.53 889.223 695.908 852.608 695.908 852.608C695.908 852.608 742.436 841.57 742.436 788.801C742.436 736.032 689.35 723.109 689.35 723.109C689.35 723.109 758.987 716.109 783.344 674.648Z" fill="#FF7676"/>
<path d="M702.778 926.377C702.778 913.992 647.505 914.531 647.505 946.03C647.505 971.876 664.056 996.107 725.261 996.107C759.924 996.107 780.221 987.222 780.221 987.222C780.221 987.222 723.075 1037.03 655.625 1037.03C617.215 1037.03 624.709 1004.72 651.253 1004.72C666.866 1004.72 661.245 1021.15 661.245 1021.15C670.301 1023.03 681.855 982.376 636.264 982.376C590.984 982.376 576.62 1055.88 645.32 1055.88C714.02 1055.88 770.541 1006.34 770.541 1006.34C770.541 1006.34 766.481 1013.34 766.481 1020.61C766.481 1052.91 820.192 1042.68 820.192 1016.84C820.192 1005.8 811.136 1007.41 811.136 1007.41C811.136 1017.38 786.467 1027.07 786.467 1009.84C786.467 992.607 818.631 972.146 818.631 972.146C824.876 968.107 824.564 961.646 813.947 967.569C803.33 973.492 785.842 982.107 759.924 982.107C734.005 982.107 689.35 973.222 689.35 945.492C689.662 930.415 702.778 926.377 702.778 926.377Z" fill="#FF7676"/>
<path d="M1300.16 986.684C1300.16 987.492 1304.53 1000.15 1287.66 1000.15C1270.49 1000.15 1262.37 983.184 1278.61 954.376C1294.85 925.569 1291.1 925.569 1281.11 936.069C1271.11 946.569 1259.25 979.684 1214.28 979.684C1169.31 979.684 1179.62 935.261 1207.72 935.261C1207.72 929.607 1151.83 920.184 1151.83 966.223C1151.83 1006.07 1214.9 996.915 1214.9 996.915C1214.9 996.915 1192.73 1019.8 1164.63 1019.8C1136.52 1019.8 1099.36 997.453 1099.36 956.8C1099.36 916.146 1123.41 915.338 1123.41 915.338C1123.41 915.338 1066.26 907.531 1066.26 956.261C1066.26 1005.26 1111.54 1030.84 1111.54 1030.84C1111.54 1030.84 1043.47 1032.18 1043.47 948.992C1043.47 898.108 1088.75 888.954 1088.75 888.954C1088.75 888.954 1016.3 858.262 1015.05 939.03C1015.05 975.646 1032.85 993.684 1032.85 993.684C1032.85 993.684 996.314 966.761 996.314 926.377C996.314 858.262 1048.46 842.647 1048.46 842.647C1048.46 842.647 1014.74 811.954 990.693 848.031C976.641 870.916 979.764 909.146 979.764 909.146C967.585 864.185 970.708 741.955 1100.93 741.955C1190.24 741.955 1194.92 846.416 1127.47 846.416C1109.36 846.416 1093.74 833.493 1093.74 817.339C1093.74 801.185 1108.73 788.262 1127.47 788.262C1133.4 788.262 1139.02 789.608 1143.71 791.762C1140.27 765.916 1059.08 764.839 1059.08 820.031C1059.08 892.992 1209.91 897.569 1209.91 811.954C1209.91 735.224 1113.73 727.417 1113.73 727.417C1138.71 727.417 1144.02 696.455 1116.23 696.455C1124.97 724.993 1078.75 727.955 1078.75 727.955C1078.75 727.955 1099.05 715.84 1099.05 699.417C1099.05 682.994 1082.5 677.34 1065.64 677.34C1065.64 677.34 1078.75 727.955 1036.28 740.07C1036.28 740.07 1051.27 726.07 1051.27 699.686C1051.27 673.302 1001.93 669.532 1001.93 673.84C1046.59 704.263 1014.11 757.301 1014.11 757.301C1014.11 757.301 998.5 775.07 996.002 778.839C996.002 778.839 1009.43 752.993 1009.43 729.57C1009.43 706.147 995.065 672.225 965.711 672.225C947.6 672.225 942.916 681.109 942.916 681.109C942.916 681.109 1004.75 704.263 982.574 798.762C977.266 812.762 972.581 815.185 972.269 818.954C972.269 803.07 977.265 769.955 961.964 745.186C946.975 720.147 915.123 693.494 927.614 673.84C891.703 668.455 887.019 693.224 887.019 693.224C853.918 676.802 834.245 703.186 817.694 705.878C827.687 715.57 812.386 744.916 857.977 759.724C832.059 776.955 850.483 802.531 850.483 802.531C850.483 802.531 887.956 774.262 926.053 794.455C964.462 814.377 961.964 860.146 961.964 860.146C961.964 860.146 948.849 811.685 914.811 811.685C880.773 811.685 872.654 845.07 883.271 864.185C883.896 862.3 897.012 849.108 913.874 849.108C931.049 849.108 956.968 857.185 962.277 893.531C960.715 893.531 956.968 873.608 929.176 873.608C905.131 873.608 908.253 898.108 908.253 898.108C908.253 898.108 917.934 887.877 931.361 898.108C951.659 913.454 1015.68 1046.99 1120.91 1046.99C1159.94 1046.99 1214.9 1013.34 1214.9 1013.34C1214.9 1013.34 1206.47 1036.49 1231.77 1046.99C1229.89 1030.03 1249.57 993.953 1261.12 979.415C1255.19 993.415 1257.69 1002.57 1257.06 1003.38C1261.75 1039.99 1314.21 1028.95 1314.21 1006.07C1313.9 991.53 1300.16 985.876 1300.16 986.684ZM889.517 752.186C859.539 742.224 876.089 705.34 905.13 719.609C934.172 733.878 950.098 780.993 950.098 780.993C938.231 765.647 919.495 762.147 889.517 752.186Z" fill="#FF7676"/>
</g>
</g>
<defs>
<radialGradient id="paint0_radial_919_7578" cx="0" cy="0" r="1" gradientUnits="userSpaceOnUse" gradientTransform="translate(369.5 551.501) rotate(91.8183) scale(551.778 603.874)">
<stop stop-color="#C4C4C4"/>
<stop offset="1" stop-color="#C4C4C4" stop-opacity="0"/>
</radialGradient>
</defs>
</svg>
