<svg width="180" height="135" viewBox="0 0 180 135" fill="none" xmlns="http://www.w3.org/2000/svg">
<g id="&#208;&#177;&#208;&#184;&#208;&#187;&#208;&#181;&#209;&#130;&#209;&#139;">
<g id="ticket">
<g id="Group">
<path id="Vector" d="M46.1167 13.1326H167.471C173.842 13.1326 179 18.2901 179 24.6612V121.745C179 128.116 173.842 133.273 167.471 133.273H46.1167C39.7456 133.273 34.588 128.116 34.588 121.745V24.6612C34.588 18.2901 39.7456 13.1326 46.1167 13.1326Z" fill="white" stroke="#FFCD17" stroke-width="1.47975"/>
<path id="Vector_2" d="M48.2406 112.643H47.5731V110.277H44.964V112.643H44.2965V107.485H44.964V109.73H47.5731V107.485H48.2406V112.643ZM49.3327 110.701C49.3327 110.337 49.3934 109.973 49.5755 109.67C49.6968 109.366 49.9395 109.124 50.1822 109.002C50.4856 108.82 50.789 108.76 51.0924 108.76C51.6385 108.76 52.0632 108.942 52.3666 109.306C52.67 109.67 52.852 110.155 52.852 110.762V110.823C52.852 111.187 52.7914 111.551 52.6093 111.854C52.488 112.157 52.2453 112.4 52.0026 112.522C51.7598 112.704 51.4565 112.764 51.0924 112.764C50.5463 112.764 50.1216 112.582 49.8182 112.218C49.5148 111.793 49.3327 111.308 49.3327 110.701ZM50.0002 110.762C50.0002 111.187 50.1216 111.551 50.3036 111.793C50.4856 112.036 50.789 112.157 51.0924 112.157C51.3958 112.157 51.6992 112.036 51.8812 111.793C52.0632 111.551 52.1846 111.187 52.1846 110.701C52.1846 110.277 52.0632 109.912 51.8812 109.67C51.6992 109.427 51.3958 109.245 51.0924 109.306C50.789 109.306 50.4856 109.427 50.3036 109.67C50.1216 109.912 50.0002 110.277 50.0002 110.762ZM56.0073 111.793L57.3422 108.82H58.1916V112.643H57.5242V109.852L56.25 112.643H55.7645L54.4903 109.791V112.643H53.8229V108.82H54.6724L56.0073 111.793ZM60.9221 112.704C60.376 112.704 59.9513 112.522 59.6479 112.218C59.3445 111.854 59.1625 111.429 59.1625 110.823V110.701C59.1625 110.337 59.2232 109.973 59.4052 109.67C59.5265 109.366 59.7692 109.124 60.012 108.942C60.2547 108.76 60.5581 108.699 60.8614 108.699C61.3469 108.699 61.7716 108.881 62.0143 109.184C62.257 109.488 62.4391 109.973 62.4391 110.58V110.883H59.8299C59.8299 111.247 59.9513 111.551 60.1333 111.793C60.376 112.036 60.6187 112.157 60.9221 112.157C61.1648 112.157 61.3469 112.097 61.5289 112.036C61.7109 111.915 61.8323 111.793 61.9536 111.672L62.3784 111.975C62.0143 112.461 61.5289 112.704 60.9221 112.704ZM60.8008 109.245C60.5581 109.245 60.3153 109.366 60.1333 109.548C59.9513 109.73 59.8299 110.034 59.7692 110.337H61.7109V110.277C61.7109 109.912 61.5896 109.67 61.4682 109.488C61.2862 109.366 61.1041 109.245 60.8008 109.245ZM66.5044 110.762C66.5044 111.369 66.3831 111.793 66.0797 112.157C65.837 112.522 65.4729 112.704 64.9875 112.704C64.5021 112.704 64.138 112.582 63.8953 112.279V114.16H63.2279V108.82H63.8346L63.8953 109.245C64.138 108.942 64.5628 108.76 64.9875 108.76C65.4729 108.76 65.837 108.942 66.0797 109.306C66.3831 109.609 66.5044 110.094 66.5044 110.762ZM65.8977 110.701C65.8977 110.277 65.7763 109.912 65.5943 109.67C65.4122 109.427 65.1695 109.306 64.8055 109.306C64.3807 109.306 64.138 109.488 63.8953 109.852V111.672C64.0773 112.036 64.3807 112.218 64.8055 112.218C65.1089 112.218 65.3516 112.097 65.5336 111.854C65.7763 111.551 65.8977 111.187 65.8977 110.701ZM71.1159 109.002C71.6013 109.002 71.9654 109.184 72.2688 109.488C72.5722 109.791 72.6935 110.216 72.6935 110.762V110.823C72.6935 111.187 72.6328 111.49 72.5115 111.793C72.3901 112.097 72.1474 112.279 71.9047 112.461C71.662 112.643 71.3586 112.704 70.9946 112.704C70.4485 112.704 70.0844 112.522 69.7203 112.218C69.4169 111.854 69.2349 111.429 69.2349 110.823V110.519C69.2349 109.73 69.3563 109.063 69.6597 108.578C69.963 108.092 70.3878 107.789 70.9946 107.728C71.2979 107.667 71.5406 107.607 71.662 107.485C71.7834 107.425 71.844 107.243 71.844 107.121H72.3901C72.3901 107.425 72.3295 107.667 72.2081 107.789C72.0867 107.971 71.844 108.092 71.5406 108.153L71.0552 108.274C70.6912 108.396 70.3878 108.517 70.1451 108.76C69.963 109.002 69.8417 109.245 69.781 109.609C70.2057 109.245 70.6305 109.002 71.1159 109.002ZM70.9946 109.548C70.6912 109.548 70.3878 109.67 70.2057 109.852C70.0237 110.094 69.9024 110.398 69.9024 110.762V110.823C69.9024 111.247 70.0237 111.551 70.2057 111.793C70.3878 112.036 70.6305 112.157 70.9946 112.157C71.2979 112.157 71.6013 112.036 71.7834 111.793C71.9654 111.551 72.0867 111.187 72.0867 110.762C72.0867 110.398 71.9654 110.094 71.7834 109.912C71.5406 109.67 71.2979 109.548 70.9946 109.548ZM75.9701 108.82H76.6375V112.643H75.9701V109.852L74.2105 112.643H73.543V108.82H74.2105V111.611L75.9701 108.82ZM81.0063 108.82V112.643H80.3389V109.366H79.004L78.9433 110.823C78.8826 111.49 78.7612 111.975 78.5792 112.218C78.3972 112.522 78.0938 112.643 77.7297 112.643H77.487V112.036H77.6691C77.9118 112.036 78.0331 111.915 78.1545 111.672C78.2758 111.429 78.2758 111.065 78.3365 110.459L78.3972 108.82H81.0063ZM83.7368 112.704C83.1907 112.704 82.766 112.522 82.4626 112.218C82.1592 111.854 81.9771 111.429 81.9771 110.823V110.701C81.9771 110.337 82.0378 109.973 82.2199 109.67C82.3412 109.366 82.5839 109.124 82.8266 108.942C83.0693 108.76 83.3727 108.699 83.6761 108.699C84.1615 108.699 84.5863 108.881 84.829 109.184C85.0717 109.488 85.2537 109.973 85.2537 110.58V110.883H82.6446C82.6446 111.247 82.7659 111.551 82.948 111.793C83.1907 112.036 83.4334 112.157 83.7368 112.157C83.9795 112.157 84.1615 112.097 84.3436 112.036C84.5256 111.915 84.6469 111.793 84.7683 111.672L85.193 111.975C84.8897 112.461 84.4042 112.704 83.7368 112.704ZM83.6761 109.245C83.4334 109.245 83.1907 109.366 83.0087 109.548C82.8266 109.73 82.7053 110.034 82.6446 110.337H84.5863V110.277C84.5863 109.912 84.4649 109.67 84.3436 109.488C84.1615 109.366 83.9188 109.245 83.6761 109.245ZM88.955 109.306H87.6808V112.643H87.0134V109.306H85.7391V108.76H88.955V109.306ZM92.0496 112.643C91.9889 112.582 91.9889 112.461 91.9282 112.218C91.6248 112.522 91.2608 112.704 90.836 112.704C90.472 112.704 90.1686 112.582 89.9259 112.4C89.6832 112.218 89.5618 111.915 89.5618 111.611C89.5618 111.187 89.6832 110.883 90.0472 110.701C90.3506 110.459 90.7754 110.337 91.3215 110.337H91.9889V110.034C91.9889 109.791 91.9282 109.609 91.8069 109.488C91.6855 109.366 91.4428 109.306 91.2001 109.306C90.9574 109.306 90.7754 109.366 90.5933 109.488C90.4113 109.609 90.3506 109.73 90.3506 109.912H89.6832C89.6832 109.73 89.7438 109.548 89.8652 109.366C89.9865 109.184 90.2293 109.063 90.4113 108.942C90.654 108.82 90.8967 108.76 91.2001 108.76C91.6248 108.76 91.9889 108.881 92.2316 109.124C92.4743 109.366 92.5957 109.67 92.5957 110.034V111.793C92.5957 112.157 92.6564 112.4 92.717 112.643V112.704H92.0496V112.643ZM90.9574 112.157C91.1394 112.157 91.3821 112.097 91.5642 111.975C91.7462 111.854 91.8675 111.733 91.9889 111.551V110.762H91.5035C90.7147 110.762 90.2899 111.005 90.2899 111.49C90.2899 111.672 90.3506 111.854 90.472 111.975C90.5326 112.097 90.7147 112.157 90.9574 112.157ZM46.6629 120.045C46.5416 120.227 46.3596 120.349 46.1775 120.409C45.9955 120.531 45.7528 120.531 45.5708 120.531C45.2674 120.531 45.0247 120.47 44.782 120.288C44.5392 120.106 44.3572 119.924 44.2965 119.681C44.1752 119.378 44.1145 119.075 44.1145 118.771C44.1145 118.407 44.1752 118.104 44.2965 117.861C44.4179 117.558 44.5999 117.376 44.8426 117.254C45.0853 117.133 45.3887 117.012 45.6921 117.012C46.1775 117.012 46.6023 117.194 46.9057 117.558C47.209 117.922 47.3304 118.468 47.3304 119.135V119.317C47.3304 120.349 47.1484 121.077 46.7236 121.502C46.2989 121.987 45.7528 122.23 44.9033 122.23H44.782V121.684H44.9033C45.4494 121.684 45.8741 121.562 46.1775 121.259C46.4809 121.077 46.6023 120.652 46.6629 120.045ZM45.6314 120.045C45.8741 120.045 46.0562 119.985 46.2382 119.863C46.4202 119.742 46.5416 119.56 46.6629 119.378V119.135C46.6629 118.711 46.5416 118.346 46.3596 118.104C46.1775 117.861 45.9348 117.679 45.6314 117.679C45.3887 117.679 45.0853 117.8 44.964 118.043C44.782 118.286 44.7213 118.528 44.7213 118.893C44.7213 119.257 44.782 119.56 44.964 119.742C45.0853 119.985 45.328 120.106 45.6314 120.045ZM50.8497 120.045C50.7283 120.227 50.5463 120.349 50.3643 120.409C50.1822 120.531 49.9395 120.531 49.7575 120.531C49.4541 120.531 49.2114 120.47 48.9687 120.288C48.726 120.106 48.5439 119.924 48.4833 119.681C48.3619 119.378 48.3012 119.075 48.3012 118.771C48.3012 118.407 48.3619 118.104 48.4833 117.861C48.6046 117.558 48.7867 117.376 49.0294 117.254C49.2721 117.133 49.5755 117.012 49.8788 117.012C50.3643 117.012 50.789 117.194 51.0924 117.558C51.3958 117.922 51.5171 118.468 51.5171 119.135V119.317C51.5171 120.349 51.3351 121.077 50.9104 121.502C50.4856 121.987 49.9395 122.23 49.09 122.23H48.9687V121.684H49.1507C49.6968 121.684 50.1216 121.562 50.4249 121.259C50.6677 121.077 50.8497 120.652 50.8497 120.045ZM49.8182 120.045C50.0609 120.045 50.2429 119.985 50.4249 119.863C50.607 119.742 50.7283 119.56 50.8497 119.378V119.135C50.8497 118.711 50.7283 118.346 50.5463 118.104C50.3643 117.861 50.1216 117.679 49.8182 117.679C49.5148 117.679 49.2721 117.8 49.1507 118.043C48.9687 118.286 48.908 118.528 48.908 118.893C48.908 119.257 48.9687 119.56 49.1507 119.742C49.3328 119.985 49.5755 120.045 49.8182 120.045ZM55.0364 120.045C54.9151 120.227 54.733 120.349 54.551 120.409C54.369 120.531 54.1263 120.531 53.9442 120.531C53.6408 120.531 53.3981 120.47 53.1554 120.288C52.9127 120.106 52.7307 119.924 52.67 119.681C52.5486 119.378 52.488 119.075 52.488 118.771C52.488 118.407 52.5486 118.104 52.67 117.861C52.7914 117.558 52.9734 117.376 53.2161 117.254C53.4588 117.133 53.7622 117.012 54.0656 117.012C54.551 117.012 54.9757 117.194 55.2791 117.558C55.5825 117.922 55.7039 118.468 55.7039 119.135V119.317C55.7039 120.349 55.5218 121.077 55.0971 121.502C54.6724 121.987 54.1263 122.23 53.2768 122.23H53.1554V121.684H53.2768C53.8229 121.684 54.2476 121.562 54.551 121.259C54.8544 121.077 55.0364 120.652 55.0364 120.045ZM54.0656 120.045C54.3083 120.045 54.4903 119.985 54.6724 119.863C54.8544 119.742 54.9757 119.56 55.0971 119.378V119.135C55.0971 118.711 54.9757 118.346 54.7937 118.104C54.6117 117.861 54.369 117.679 54.0656 117.679C53.7622 117.679 53.5195 117.8 53.3981 118.043C53.2161 118.286 53.1554 118.528 53.1554 118.893C53.1554 119.257 53.2161 119.56 53.3981 119.742C53.5195 119.985 53.7622 120.045 54.0656 120.045ZM59.2838 120.045C59.1625 120.227 58.9804 120.349 58.7984 120.409C58.6164 120.531 58.3737 120.591 58.1916 120.531C57.8883 120.531 57.6455 120.47 57.4028 120.288C57.1601 120.106 56.9781 119.924 56.9174 119.681C56.7961 119.378 56.7354 119.075 56.7354 118.771C56.7354 118.407 56.7961 118.104 56.9174 117.861C57.0388 117.558 57.2208 117.376 57.4635 117.254C57.7062 117.133 58.0096 117.012 58.313 117.012C58.7984 117.012 59.2232 117.194 59.5265 117.558C59.8299 117.922 59.9513 118.468 59.9513 119.135V119.317C59.9513 120.349 59.7692 121.077 59.3445 121.502C58.9198 121.987 58.3737 122.23 57.5242 122.23H57.4028V121.684H57.5242C58.0703 121.684 58.495 121.562 58.7984 121.259C59.1018 121.077 59.2232 120.652 59.2838 120.045ZM58.2523 120.045C58.495 120.045 58.6771 119.985 58.8591 119.863C59.0411 119.742 59.1625 119.56 59.2838 119.378V119.135C59.2838 118.711 59.1625 118.346 58.9804 118.104C58.7984 117.861 58.5557 117.679 58.2523 117.679C57.9489 117.679 57.7062 117.8 57.5849 118.043C57.4028 118.286 57.3422 118.528 57.3422 118.893C57.3422 119.257 57.4028 119.56 57.5849 119.742C57.7669 119.985 57.9489 120.045 58.2523 120.045ZM65.4122 120.045C65.2909 120.227 65.1089 120.349 64.9268 120.409C64.7448 120.531 64.5021 120.531 64.32 120.531C64.0167 120.531 63.774 120.47 63.5312 120.288C63.2885 120.106 63.1065 119.924 63.0458 119.681C62.9245 119.378 62.8638 119.075 62.8638 118.771C62.8638 118.407 62.9245 118.104 63.0458 117.861C63.1672 117.558 63.3492 117.376 63.5919 117.254C63.8346 117.133 64.138 117.012 64.4414 117.012C64.9268 117.012 65.3516 117.194 65.6549 117.558C65.9583 117.922 66.0797 118.468 66.0797 119.135V119.317C66.0797 120.349 65.8977 121.077 65.4729 121.502C65.0482 121.987 64.5021 122.23 63.6526 122.23H63.5312V121.684H63.6526C64.1987 121.684 64.6234 121.562 64.9268 121.259C65.2302 121.077 65.3516 120.652 65.4122 120.045ZM64.3807 120.045C64.6234 120.045 64.8055 119.985 64.9875 119.863C65.1695 119.742 65.2909 119.56 65.4122 119.378V119.135C65.4122 118.711 65.2909 118.346 65.1089 118.104C64.9268 117.861 64.6841 117.679 64.3807 117.679C64.0773 117.679 63.8346 117.8 63.7133 118.043C63.5312 118.286 63.4706 118.528 63.4706 118.893C63.4706 119.257 63.5312 119.56 63.7133 119.742C63.8953 119.985 64.138 120.045 64.3807 120.045ZM69.599 120.045C69.4776 120.227 69.2956 120.349 69.1136 120.409C68.9315 120.531 68.6888 120.591 68.5068 120.531C68.2034 120.531 67.9607 120.47 67.718 120.288C67.4753 120.106 67.2932 119.924 67.2326 119.681C67.1112 119.378 67.0505 119.075 67.0505 118.771C67.0505 118.407 67.1112 118.104 67.2326 117.861C67.3539 117.558 67.5359 117.376 67.7787 117.254C68.0214 117.133 68.3247 117.012 68.6281 117.012C69.1136 117.012 69.5383 117.194 69.8417 117.558C70.1451 117.922 70.2664 118.468 70.2664 119.135V119.317C70.2664 120.349 70.0844 121.077 69.6597 121.502C69.2349 121.987 68.6888 122.23 67.8393 122.23H67.718V121.684H67.8393C68.3854 121.684 68.8102 121.562 69.1136 121.259C69.4169 121.077 69.599 120.652 69.599 120.045ZM68.6281 120.045C68.8708 120.045 69.0529 119.985 69.2349 119.863C69.4169 119.742 69.5383 119.56 69.6597 119.378V119.135C69.6597 118.711 69.5383 118.346 69.3563 118.104C69.1742 117.861 68.9315 117.679 68.6281 117.679C68.3854 117.679 68.082 117.8 67.9607 118.043C67.7787 118.286 67.718 118.528 67.718 118.893C67.718 119.257 67.7787 119.56 67.9607 119.742C68.082 119.985 68.3247 120.106 68.6281 120.045ZM73.8464 120.045C73.725 120.227 73.543 120.349 73.361 120.409C73.1789 120.531 72.9362 120.531 72.7542 120.531C72.4508 120.531 72.2081 120.47 71.9654 120.288C71.7227 120.106 71.5406 119.924 71.48 119.681C71.3586 119.378 71.2979 119.075 71.2979 118.771C71.2979 118.407 71.3586 118.104 71.48 117.861C71.6013 117.558 71.7834 117.376 72.0261 117.254C72.2688 117.133 72.5722 117.012 72.8755 117.012C73.361 117.012 73.7857 117.194 74.0891 117.558C74.3925 117.922 74.5138 118.468 74.5138 119.135V119.317C74.5138 120.349 74.3318 121.077 73.9071 121.502C73.4823 121.987 72.9362 122.23 72.0867 122.23H71.9654V121.684H72.0867C72.6328 121.684 73.0576 121.562 73.361 121.259C73.6644 121.077 73.7857 120.652 73.8464 120.045ZM72.8149 120.045C73.0576 120.045 73.2396 119.985 73.4216 119.863C73.6037 119.742 73.725 119.56 73.8464 119.378V119.135C73.8464 118.711 73.725 118.346 73.543 118.104C73.361 117.861 73.1183 117.679 72.8149 117.679C72.5115 117.679 72.2688 117.8 72.1474 118.043C71.9654 118.286 71.9047 118.528 71.9047 118.893C71.9047 119.257 71.9654 119.56 72.1474 119.742C72.3295 119.985 72.5115 120.045 72.8149 120.045ZM78.0331 120.045C77.9118 120.227 77.7297 120.349 77.5477 120.409C77.3657 120.531 77.123 120.531 76.9409 120.531C76.6375 120.531 76.3948 120.47 76.1521 120.288C75.9094 120.106 75.7274 119.924 75.6667 119.681C75.5453 119.378 75.4847 119.075 75.4847 118.771C75.4847 118.407 75.5453 118.104 75.6667 117.861C75.7881 117.558 75.9701 117.376 76.2128 117.254C76.4555 117.133 76.7589 117.012 77.0623 117.012C77.5477 117.012 77.9724 117.194 78.2758 117.558C78.5792 117.922 78.7006 118.468 78.7006 119.135V119.317C78.7006 120.349 78.5185 121.077 78.0938 121.502C77.6691 121.987 77.123 122.23 76.2735 122.23H76.1521V121.684H76.2735C76.8196 121.684 77.2443 121.562 77.5477 121.259C77.8511 121.077 78.0331 120.652 78.0331 120.045ZM77.0016 120.045C77.2443 120.045 77.4263 119.985 77.6084 119.863C77.7904 119.742 77.9118 119.56 78.0331 119.378V119.135C78.0331 118.711 77.9118 118.346 77.7297 118.104C77.5477 117.861 77.305 117.679 77.0016 117.679C76.6982 117.679 76.4555 117.8 76.3342 118.043C76.1521 118.286 76.0914 118.528 76.0914 118.893C76.0914 119.257 76.1521 119.56 76.3342 119.742C76.5162 119.985 76.7589 120.045 77.0016 120.045ZM84.1615 120.045C84.0402 120.227 83.8581 120.349 83.6761 120.409C83.4941 120.531 83.2514 120.531 83.0693 120.531C82.7659 120.531 82.5232 120.47 82.2805 120.288C82.0378 120.106 81.8558 119.924 81.7951 119.681C81.6738 119.378 81.6131 119.075 81.6131 118.771C81.6131 118.407 81.6738 118.104 81.7951 117.861C81.9165 117.558 82.0985 117.376 82.3412 117.254C82.5839 117.133 82.8873 117.012 83.1907 117.012C83.6761 117.012 84.1008 117.194 84.4042 117.558C84.7076 117.922 84.829 118.468 84.829 119.135V119.317C84.829 120.349 84.6469 121.077 84.2222 121.502C83.7975 121.987 83.2514 122.23 82.4019 122.23H82.2805V121.684H82.4019C82.948 121.684 83.3727 121.562 83.6761 121.259C83.9795 121.077 84.1615 120.652 84.1615 120.045ZM83.1907 120.045C83.4334 120.045 83.6154 119.985 83.7975 119.863C83.9795 119.742 84.1009 119.56 84.2222 119.378V119.135C84.2222 118.711 84.1009 118.346 83.9188 118.104C83.7368 117.861 83.4941 117.679 83.1907 117.679C82.8873 117.679 82.6446 117.8 82.5232 118.043C82.3412 118.286 82.2805 118.528 82.2805 118.893C82.2805 119.257 82.3412 119.56 82.5232 119.742C82.6446 119.985 82.8873 120.045 83.1907 120.045ZM88.4089 120.045C88.2876 120.227 88.1056 120.349 87.9235 120.409C87.7415 120.531 87.4988 120.531 87.3167 120.531C87.0134 120.531 86.7706 120.47 86.5279 120.288C86.2852 120.106 86.1032 119.924 86.0425 119.681C85.9212 119.378 85.8605 119.075 85.8605 118.771C85.8605 118.407 85.9212 118.104 86.0425 117.861C86.1639 117.558 86.3459 117.376 86.5886 117.254C86.8313 117.133 87.1347 117.012 87.4381 117.012C87.9235 117.012 88.3483 117.194 88.6516 117.558C88.955 117.922 89.0764 118.468 89.0764 119.135V119.317C89.0764 120.349 88.8944 121.077 88.4696 121.502C88.0449 121.987 87.4988 122.23 86.6493 122.23H86.5279V121.684H86.6493C87.1954 121.684 87.6201 121.562 87.9235 121.259C88.2269 121.077 88.3483 120.652 88.4089 120.045ZM87.3774 120.045C87.6201 120.045 87.8022 119.985 87.9842 119.863C88.1662 119.742 88.2876 119.56 88.4089 119.378V119.135C88.4089 118.711 88.2876 118.346 88.1056 118.104C87.9235 117.861 87.6808 117.679 87.3774 117.679C87.074 117.679 86.8313 117.8 86.71 118.043C86.5279 118.286 86.4673 118.528 86.4673 118.893C86.4673 119.257 86.5279 119.56 86.71 119.742C86.8313 119.985 87.074 120.045 87.3774 120.045ZM92.5957 120.045C92.4743 120.227 92.2923 120.349 92.1103 120.409C91.9282 120.531 91.6855 120.531 91.5035 120.531C91.2001 120.531 90.9574 120.47 90.7147 120.288C90.472 120.106 90.2899 119.924 90.2293 119.681C90.1079 119.378 90.0472 119.075 90.0472 118.771C90.0472 118.407 90.1079 118.104 90.2293 117.861C90.3506 117.558 90.5326 117.376 90.7754 117.254C91.0181 117.133 91.3215 117.012 91.6248 117.012C92.1103 117.012 92.535 117.194 92.8384 117.558C93.1418 117.922 93.2631 118.468 93.2631 119.135V119.317C93.2631 120.349 93.0811 121.077 92.6564 121.502C92.2316 121.987 91.6855 122.23 90.836 122.23H90.7147V121.684H90.836C91.3821 121.684 91.8069 121.562 92.1103 121.259C92.4136 121.077 92.5957 120.652 92.5957 120.045ZM91.5642 120.045C91.8069 120.045 91.9889 119.985 92.1709 119.863C92.353 119.742 92.4743 119.56 92.5957 119.378V119.135C92.5957 118.711 92.4743 118.346 92.2923 118.104C92.1103 117.861 91.8675 117.679 91.5642 117.679C91.3214 117.679 91.0181 117.8 90.8967 118.043C90.7147 118.286 90.654 118.528 90.654 118.893C90.654 119.257 90.7147 119.56 90.8967 119.742C91.0787 119.985 91.3214 120.106 91.5642 120.045ZM96.7824 120.045C96.6611 120.227 96.479 120.349 96.297 120.409C96.115 120.531 95.8722 120.531 95.6902 120.531C95.3868 120.531 95.1441 120.47 94.9014 120.288C94.6587 120.106 94.4767 119.924 94.416 119.681C94.2946 119.378 94.234 119.075 94.234 118.771C94.234 118.407 94.2946 118.104 94.416 117.861C94.5373 117.558 94.7194 117.376 94.9621 117.254C95.2048 117.133 95.5082 117.012 95.8116 117.012C96.297 117.012 96.7217 117.194 97.0251 117.558C97.3285 117.922 97.4499 118.468 97.4499 119.135V119.317C97.4499 120.349 97.2678 121.077 96.8431 121.502C96.4183 121.987 95.8722 122.23 95.0228 122.23H94.9014V121.684H95.0228C95.5689 121.684 95.9936 121.562 96.297 121.259C96.6004 121.077 96.7824 120.652 96.7824 120.045ZM95.8116 120.045C96.0543 120.045 96.2363 119.985 96.4183 119.863C96.6004 119.742 96.7217 119.56 96.8431 119.378V119.135C96.8431 118.711 96.7217 118.346 96.5397 118.104C96.3577 117.861 96.115 117.679 95.8116 117.679C95.5082 117.679 95.2655 117.8 95.1441 118.043C94.9621 118.286 94.9014 118.528 94.9014 118.893C94.9014 119.257 94.9621 119.56 95.1441 119.742C95.2655 119.985 95.5082 120.045 95.8116 120.045ZM102.971 120.045C102.85 120.227 102.668 120.349 102.486 120.409C102.304 120.531 102.061 120.531 101.879 120.531C101.576 120.531 101.333 120.47 101.09 120.288C100.848 120.106 100.666 119.924 100.605 119.681C100.484 119.378 100.423 119.075 100.423 118.771C100.423 118.407 100.484 118.104 100.605 117.861C100.726 117.558 100.908 117.376 101.151 117.254C101.394 117.133 101.697 117.012 102.001 117.012C102.486 117.012 102.911 117.194 103.214 117.558C103.518 117.922 103.639 118.468 103.639 119.135V119.317C103.639 120.349 103.457 121.077 103.032 121.502C102.607 121.987 102.061 122.23 101.212 122.23H101.09V121.684H101.212C101.758 121.684 102.183 121.562 102.486 121.259C102.729 121.077 102.911 120.652 102.971 120.045ZM101.94 120.045C102.183 120.045 102.365 119.985 102.547 119.863C102.729 119.742 102.85 119.56 102.971 119.378V119.135C102.971 118.711 102.85 118.346 102.668 118.104C102.486 117.861 102.243 117.679 101.94 117.679C101.697 117.679 101.394 117.8 101.273 118.043C101.09 118.286 101.03 118.528 101.03 118.893C101.03 119.257 101.09 119.56 101.273 119.742C101.394 119.985 101.637 120.106 101.94 120.045ZM107.158 120.045C107.037 120.227 106.855 120.349 106.673 120.409C106.491 120.531 106.248 120.531 106.066 120.531C105.763 120.531 105.52 120.47 105.277 120.288C105.035 120.106 104.852 119.924 104.792 119.681C104.67 119.378 104.61 119.075 104.61 118.771C104.61 118.407 104.67 118.104 104.792 117.861C104.913 117.558 105.095 117.376 105.338 117.254C105.581 117.133 105.884 117.012 106.187 117.012C106.673 117.012 107.098 117.194 107.401 117.558C107.704 117.922 107.826 118.468 107.826 119.135V119.317C107.826 120.349 107.644 121.077 107.219 121.502C106.794 121.987 106.248 122.23 105.399 122.23H105.277V121.684H105.399C105.945 121.684 106.369 121.562 106.673 121.259C106.976 121.077 107.098 120.652 107.158 120.045ZM106.127 120.045C106.369 120.045 106.551 119.985 106.733 119.863C106.916 119.742 107.037 119.56 107.158 119.378V119.135C107.158 118.711 107.037 118.346 106.855 118.104C106.673 117.861 106.43 117.679 106.127 117.679C105.823 117.679 105.581 117.8 105.459 118.043C105.277 118.286 105.217 118.528 105.217 118.893C105.217 119.257 105.277 119.56 105.459 119.742C105.641 119.985 105.884 120.045 106.127 120.045ZM111.345 120.045C111.224 120.227 111.042 120.349 110.86 120.409C110.678 120.531 110.435 120.531 110.253 120.531C109.949 120.531 109.707 120.47 109.464 120.288C109.221 120.106 109.039 119.924 108.979 119.681C108.857 119.378 108.797 119.075 108.797 118.771C108.797 118.407 108.857 118.104 108.979 117.861C109.1 117.558 109.282 117.376 109.525 117.254C109.767 117.133 110.071 117.012 110.374 117.012C110.86 117.012 111.284 117.194 111.588 117.558C111.891 117.922 112.012 118.468 112.012 119.135V119.317C112.012 120.349 111.83 121.077 111.406 121.502C110.981 121.987 110.435 122.23 109.585 122.23H109.464V121.684H109.585C110.131 121.684 110.556 121.562 110.86 121.259C111.163 121.077 111.345 120.652 111.345 120.045ZM110.374 120.045C110.617 120.045 110.799 119.985 110.981 119.863C111.163 119.742 111.284 119.56 111.406 119.378V119.135C111.406 118.711 111.284 118.346 111.102 118.104C110.92 117.861 110.678 117.679 110.374 117.679C110.071 117.679 109.828 117.8 109.707 118.043C109.525 118.286 109.464 118.528 109.464 118.893C109.464 119.257 109.525 119.56 109.707 119.742C109.828 119.985 110.071 120.045 110.374 120.045ZM115.592 120.045C115.471 120.227 115.289 120.349 115.107 120.409C114.925 120.531 114.682 120.531 114.5 120.531C114.197 120.531 113.954 120.47 113.711 120.288C113.469 120.106 113.287 119.924 113.226 119.681C113.105 119.378 113.044 119.075 113.044 118.771C113.044 118.407 113.105 118.104 113.226 117.861C113.347 117.558 113.529 117.376 113.772 117.254C114.015 117.133 114.318 117.012 114.622 117.012C115.107 117.012 115.532 117.194 115.835 117.558C116.138 117.922 116.26 118.468 116.26 119.135V119.317C116.26 120.349 116.078 121.077 115.653 121.502C115.228 121.987 114.682 122.23 113.833 122.23H113.711V121.684H113.833C114.379 121.684 114.804 121.562 115.107 121.259C115.41 121.077 115.532 120.652 115.592 120.045ZM114.561 120.045C114.804 120.045 114.986 119.985 115.168 119.863C115.35 119.742 115.471 119.56 115.592 119.378V119.135C115.592 118.711 115.471 118.346 115.289 118.104C115.107 117.861 114.864 117.679 114.561 117.679C114.318 117.679 114.015 117.8 113.893 118.043C113.711 118.286 113.651 118.528 113.651 118.893C113.651 119.257 113.711 119.56 113.893 119.742C114.015 119.985 114.318 120.106 114.561 120.045Z" fill="#C8C8C8"/>
<g id="Group_2">
<path id="Vector_3" d="M43.9938 30.0012C43.9938 28.6662 43.9938 27.6347 44.0545 26.8459C44.1151 26.0571 44.2365 25.511 44.4792 25.0256C44.9039 24.1761 45.6321 23.448 46.4815 23.0233C46.967 22.7806 47.5131 22.6592 48.3019 22.5985C49.0907 22.5378 50.1222 22.5378 51.4571 22.5378H56.4326V34.1879H43.9938V30.0012ZM106.855 22.5378H119.294V34.1879H106.855V22.5378ZM56.554 22.5378H68.9928V34.1879H56.554V22.5378ZM119.416 22.5378H131.855V34.1879H119.416V22.5378ZM69.1142 22.5378H81.553V34.1879H69.1142V22.5378ZM131.976 22.5378H144.415V34.1879H131.976V22.5378ZM81.7351 22.5378H94.1739V34.1879H81.7351V22.5378ZM144.536 22.5378H156.975V34.1879H144.536V22.5378ZM94.2953 22.5378H106.734V34.1879H94.2953V22.5378ZM157.157 22.5378H162.132C163.467 22.5378 164.499 22.5378 165.288 22.5985C166.077 22.6592 166.623 22.7806 167.108 23.0233C167.958 23.448 168.686 24.1761 169.11 25.0256C169.353 25.511 169.474 26.0571 169.535 26.8459C169.596 27.6347 169.596 28.6662 169.596 30.0012V34.1879H157.157V22.5378ZM43.9938 34.3092H56.4326V45.9593H43.9938V34.3092ZM106.855 34.3092H119.294V45.9593H106.855V34.3092ZM56.554 34.3092H68.9928V45.9593H56.554V34.3092ZM119.416 34.3092H131.855V45.9593H119.416V34.3092ZM69.1142 34.3092H81.553V45.9593H69.1142V34.3092ZM131.976 34.3092H144.415V45.9593H131.976V34.3092ZM81.7351 34.3092H94.1739V45.9593H81.7351V34.3092ZM144.536 34.3092H156.975V45.9593H144.536V34.3092ZM94.2953 34.3092H106.734V45.9593H94.2953V34.3092ZM157.157 34.3092H169.596V45.9593H157.157V34.3092ZM43.9938 46.0806H56.4326V57.7307H43.9938V46.0806ZM106.855 46.0806H119.294V57.7307H106.855V46.0806ZM56.554 46.0806H68.9928V57.7307H56.554V46.0806ZM119.416 46.0806H131.855V57.7307H119.416V46.0806ZM69.1142 46.0806H81.553V57.7307H69.1142V46.0806ZM131.976 46.0806H144.415V57.7307H131.976V46.0806ZM81.7351 46.0806H94.1739V57.7307H81.7351V46.0806ZM144.536 46.0806H156.975V57.7307H144.536V46.0806ZM94.2953 46.0806H106.734V57.7307H94.2953V46.0806ZM157.157 46.0806H169.596V57.7307H157.157V46.0806Z" stroke="#F1F1F1" stroke-width="0.739876"/>
<path id="Vector_4" d="M43.9938 30.0012C43.9938 28.6662 43.9938 27.6347 44.0545 26.8459C44.1151 26.0571 44.2365 25.511 44.4792 25.0256C44.9039 24.1761 45.6321 23.448 46.4815 23.0233C46.967 22.7806 47.5131 22.6592 48.3019 22.5985C49.0907 22.5378 50.1222 22.5378 51.4571 22.5378H162.132C163.467 22.5378 164.499 22.5378 165.288 22.5985C166.077 22.6592 166.623 22.7806 167.108 23.0233C167.958 23.448 168.686 24.1761 169.11 25.0256L169.353 24.9043L169.11 25.0256C169.353 25.511 169.474 26.0571 169.535 26.8459C169.596 27.6347 169.596 28.6662 169.596 30.0012V57.7307H43.9938V30.0012Z" stroke="#C8C8C8" stroke-width="0.739876"/>
<path id="Vector_5" d="M43.993 63.1912H56.4319V74.8412H43.993V63.1912ZM106.855 63.1912H119.294V74.8412H106.855V63.1912ZM56.5532 63.1912H68.9921V74.8412H56.5532V63.1912ZM119.415 63.1912H131.854V74.8412H119.415V63.1912ZM69.1134 63.1912H81.5523V74.8412H69.1134V63.1912ZM131.975 63.1912H144.414V74.8412H131.975V63.1912ZM81.7343 63.1912H94.1732V74.8412H81.7343V63.1912ZM144.535 63.1912H156.974V74.8412H144.535V63.1912ZM94.2945 63.1912H106.733V74.8412H94.2945V63.1912ZM157.156 63.1912H169.595V74.8412H157.156V63.1912ZM43.993 74.9626H56.4319V86.6126H43.993V74.9626ZM106.855 74.9626H119.294V86.6126H106.855V74.9626ZM56.5532 74.9626H68.9921V86.6126H56.5532V74.9626ZM119.415 74.9626H131.854V86.6126H119.415V74.9626ZM69.1134 74.9626H81.5523V86.6126H69.1134V74.9626ZM131.975 74.9626H144.414V86.6126H131.975V74.9626ZM81.7343 74.9626H94.1732V86.6126H81.7343V74.9626ZM144.535 74.9626H156.974V86.6126H144.535V74.9626ZM94.2945 74.9626H106.733V86.6126H94.2945V74.9626ZM157.156 74.9626H169.595V86.6126H157.156V74.9626ZM43.993 86.734H56.4319V98.384H51.4564C50.1214 98.384 49.0899 98.384 48.3011 98.3233C47.5123 98.2626 46.9662 98.1413 46.4808 97.8986C45.6313 97.4738 44.9032 96.7457 44.4785 95.8962C44.2358 95.4108 44.1144 94.8647 44.0537 94.0759C43.993 93.2871 43.993 92.2556 43.993 90.9207C43.993 90.9207 43.993 86.734 43.993 86.734ZM106.855 86.734H119.294V98.384H106.855V86.734ZM56.5532 86.734H68.9921V98.384H56.5532V86.734ZM119.415 86.734H131.854V98.384H119.415V86.734ZM69.1134 86.734H81.5523V98.384H69.1134V86.734ZM131.975 86.734H144.414V98.384H131.975V86.734ZM81.7343 86.734H94.1732V98.384H81.7343V86.734ZM144.535 86.734H156.974V98.384H144.535V86.734ZM94.2945 86.734H106.733V98.384H94.2945V86.734ZM157.156 86.734H169.595V90.9207C169.595 92.2556 169.595 93.2871 169.534 94.0759C169.474 94.8647 169.352 95.4108 169.11 95.8962C168.685 96.7457 167.957 97.4738 167.107 97.8986C166.622 98.1413 166.076 98.2626 165.287 98.3233C164.498 98.384 163.467 98.384 162.132 98.384H157.156V86.734Z" stroke="#F1F1F1" stroke-width="0.739876"/>
</g>
<path id="Vector_6" d="M43.9931 63.1912H169.595V90.9207C169.595 92.2556 169.595 93.2871 169.534 94.0759C169.474 94.8647 169.352 95.4108 169.11 95.8962C168.685 96.7457 167.957 97.4738 167.107 97.8986C166.622 98.1413 166.076 98.2626 165.287 98.3233C164.498 98.384 163.467 98.384 162.132 98.384H51.4564C50.1215 98.384 49.09 98.384 48.3012 98.3233C47.5124 98.2626 46.9663 98.1413 46.4809 97.8986C45.6314 97.4738 44.9033 96.7457 44.4785 95.8962C44.2358 95.4108 44.1145 94.8647 44.0538 94.0759C43.9931 93.2871 43.9931 92.2556 43.9931 90.9207V63.1912Z" stroke="#C8C8C8" stroke-width="0.739876"/>
<path id="Vector_7" d="M163.224 114.16L159.28 118.104L157.157 115.98L158.067 115.07L159.28 116.284L162.314 113.25L163.224 114.16Z" fill="#212121"/>
<path id="Vector_8" d="M157.763 106.575H162.617C166.319 106.575 169.292 109.549 169.292 113.25V118.104C169.292 121.806 166.319 124.779 162.617 124.779H157.763C154.062 124.779 151.089 121.806 151.089 118.104V113.25C151.089 109.549 154.062 106.575 157.763 106.575Z" stroke="#FFCD17" stroke-width="1.47975"/>
</g>
</g>
<g id="ticket_2">
<g id="Group_3">
<path id="Vector_9" d="M12.5287 1.79126H133.883C140.254 1.79126 145.412 6.94884 145.412 13.32V110.404C145.412 116.775 140.254 121.933 133.883 121.933H12.5287C6.15757 121.933 1 116.775 1 110.404V13.32C1 6.94884 6.15757 1.79126 12.5287 1.79126Z" fill="white" stroke="#FFCD17" stroke-width="1.47975"/>
<path id="Vector_10" d="M14.6523 101.302H13.9849V98.9352H11.3757V101.302H10.7083V96.1441H11.3757V98.3891H13.9849V96.1441H14.6523V101.302ZM15.7445 99.3599C15.7445 98.9959 15.8052 98.6318 15.9872 98.3284C16.1086 98.0251 16.3513 97.7824 16.594 97.661C16.8974 97.479 17.2007 97.4183 17.5041 97.4183C18.0502 97.4183 18.475 97.6003 18.7784 97.9644C19.0817 98.3284 19.2638 98.8138 19.2638 99.4206V99.4813C19.2638 99.8453 19.2031 100.209 19.0211 100.513C18.8997 100.816 18.657 101.059 18.4143 101.18C18.1716 101.362 17.8682 101.423 17.5041 101.423C16.958 101.423 16.5333 101.241 16.2299 100.877C15.9265 100.452 15.7445 99.9667 15.7445 99.3599ZM16.4119 99.4206C16.4119 99.8453 16.5333 100.209 16.7153 100.452C16.8974 100.695 17.2007 100.816 17.5041 100.816C17.8075 100.816 18.1109 100.695 18.2929 100.452C18.475 100.209 18.5963 99.8454 18.5963 99.3599C18.5963 98.9352 18.475 98.5711 18.2929 98.3284C18.1109 98.0857 17.8075 97.9037 17.5041 97.9644C17.2007 97.9644 16.8974 98.0857 16.7153 98.3284C16.5333 98.5711 16.4119 98.9352 16.4119 99.4206ZM22.419 100.452L23.7539 97.479H24.6034V101.302H23.9359V98.5105L22.6617 101.302H22.1763L20.9021 98.4498V101.302H20.2346V97.479H21.0841L22.419 100.452ZM27.3339 101.362C26.7878 101.362 26.363 101.18 26.0596 100.877C25.7563 100.513 25.5742 100.088 25.5742 99.4813V99.3599C25.5742 98.9959 25.6349 98.6318 25.8169 98.3284C25.9383 98.0251 26.181 97.7823 26.4237 97.6003C26.6664 97.4183 26.9698 97.3576 27.2732 97.3576C27.7586 97.3576 28.1833 97.5396 28.4261 97.843C28.6688 98.1464 28.8508 98.6318 28.8508 99.2386V99.542H26.2417C26.2417 99.906 26.363 100.209 26.5451 100.452C26.7878 100.695 27.0305 100.816 27.3339 100.816C27.5766 100.816 27.7586 100.755 27.9406 100.695C28.1227 100.573 28.244 100.452 28.3654 100.331L28.7901 100.634C28.4261 101.12 27.9406 101.362 27.3339 101.362ZM27.2125 97.9037C26.9698 97.9037 26.7271 98.0251 26.5451 98.2071C26.363 98.3891 26.2417 98.6925 26.181 98.9959H28.1227V98.9352C28.1227 98.5711 28.0013 98.3284 27.88 98.1464C27.6979 98.0251 27.5159 97.9037 27.2125 97.9037ZM32.9162 99.4206C32.9162 100.027 32.7948 100.452 32.4914 100.816C32.2487 101.18 31.8847 101.362 31.3992 101.362C30.9138 101.362 30.5498 101.241 30.307 100.938V102.818H29.6396V97.479H30.2464L30.307 97.9037C30.5498 97.6003 30.9745 97.4183 31.3992 97.4183C31.8847 97.4183 32.2487 97.6003 32.4914 97.9644C32.7948 98.2678 32.9162 98.7532 32.9162 99.4206ZM32.3094 99.3599C32.3094 98.9352 32.188 98.5711 32.006 98.3284C31.824 98.0857 31.5813 97.9644 31.2172 97.9644C30.7925 97.9644 30.5498 98.1464 30.307 98.5105V100.331C30.4891 100.695 30.7925 100.877 31.2172 100.877C31.5206 100.877 31.7633 100.755 31.9453 100.513C32.188 100.209 32.3094 99.8454 32.3094 99.3599ZM37.5276 97.661C38.0131 97.661 38.3771 97.843 38.6805 98.1464C38.9839 98.4498 39.1053 98.8745 39.1053 99.4206V99.4813C39.1053 99.8453 39.0446 100.149 38.9232 100.452C38.8019 100.755 38.5592 100.938 38.3165 101.12C38.0737 101.302 37.7704 101.362 37.4063 101.362C36.8602 101.362 36.4961 101.18 36.1321 100.877C35.8287 100.513 35.6467 100.088 35.6467 99.4813V99.1779C35.6467 98.3891 35.768 97.7217 36.0714 97.2363C36.3748 96.7509 36.7995 96.4475 37.4063 96.3868C37.7097 96.3261 37.9524 96.2654 38.0737 96.1441C38.1951 96.0834 38.2558 95.9014 38.2558 95.78H38.8019C38.8019 96.0834 38.7412 96.3261 38.6198 96.4475C38.4985 96.6295 38.2558 96.7509 37.9524 96.8115L37.467 96.9329C37.1029 97.0542 36.7995 97.1756 36.5568 97.4183C36.3748 97.661 36.2534 97.9037 36.1927 98.2678C36.6175 97.9037 37.0422 97.661 37.5276 97.661ZM37.4063 98.2071C37.1029 98.2071 36.7995 98.3284 36.6175 98.5105C36.4355 98.7532 36.3141 99.0566 36.3141 99.4206V99.4813C36.3141 99.906 36.4355 100.209 36.6175 100.452C36.7995 100.695 37.0422 100.816 37.4063 100.816C37.7097 100.816 38.0131 100.695 38.1951 100.452C38.3771 100.209 38.4985 99.8453 38.4985 99.4206C38.4985 99.0566 38.3771 98.7532 38.1951 98.5711C37.9524 98.3284 37.7097 98.2071 37.4063 98.2071ZM42.3818 97.479H43.0493V101.302H42.3818V98.5105L40.6222 101.302H39.9547V97.479H40.6222V100.27L42.3818 97.479ZM47.4181 97.479V101.302H46.7506V98.0251H45.4157L45.355 99.4813C45.2943 100.149 45.173 100.634 44.991 100.877C44.8089 101.18 44.5055 101.302 44.1415 101.302H43.8988V100.695H44.0808C44.3235 100.695 44.4449 100.573 44.5662 100.331C44.6876 100.088 44.6876 99.724 44.7482 99.1172L44.8089 97.479H47.4181ZM50.1485 101.362C49.6024 101.362 49.1777 101.18 48.8743 100.877C48.5709 100.513 48.3889 100.088 48.3889 99.4813V99.3599C48.3889 98.9959 48.4496 98.6318 48.6316 98.3284C48.753 98.0251 48.9957 97.7823 49.2384 97.6003C49.4811 97.4183 49.7845 97.3576 50.0879 97.3576C50.5733 97.3576 50.998 97.5396 51.2407 97.843C51.4834 98.1464 51.6655 98.6318 51.6655 99.2386V99.542H49.0563C49.0563 99.906 49.1777 100.209 49.3597 100.452C49.6024 100.695 49.8451 100.816 50.1485 100.816C50.3912 100.816 50.5733 100.755 50.7553 100.695C50.9373 100.573 51.0587 100.452 51.18 100.331L51.6048 100.634C51.3014 101.12 50.816 101.362 50.1485 101.362ZM50.0879 97.9037C49.8451 97.9037 49.6024 98.0251 49.4204 98.2071C49.2384 98.3891 49.117 98.6925 49.0563 98.9959H50.998V98.9352C50.998 98.5711 50.8767 98.3284 50.7553 98.1464C50.5733 98.0251 50.3306 97.9037 50.0879 97.9037ZM55.3668 97.9644H54.0926V101.302H53.4251V97.9644H52.1509V97.4183H55.3668V97.9644ZM58.4613 101.302C58.4006 101.241 58.4006 101.12 58.34 100.877C58.0366 101.18 57.6725 101.362 57.2478 101.362C56.8837 101.362 56.5803 101.241 56.3376 101.059C56.0949 100.877 55.9735 100.573 55.9735 100.27C55.9735 99.8454 56.0949 99.542 56.459 99.3599C56.7624 99.1172 57.1871 98.9959 57.7332 98.9959H58.4006V98.6925C58.4006 98.4498 58.34 98.2678 58.2186 98.1464C58.0973 98.0251 57.8546 97.9644 57.6118 97.9644C57.3691 97.9644 57.1871 98.0251 57.0051 98.1464C56.823 98.2678 56.7624 98.3891 56.7624 98.5711H56.0949C56.0949 98.3891 56.1556 98.2071 56.2769 98.0251C56.3983 97.843 56.641 97.7217 56.823 97.6003C57.0657 97.479 57.3085 97.4183 57.6118 97.4183C58.0366 97.4183 58.4006 97.5396 58.6434 97.7824C58.8861 98.0251 59.0074 98.3284 59.0074 98.6925V100.452C59.0074 100.816 59.0681 101.059 59.1288 101.302V101.362H58.4613V101.302ZM57.3691 100.816C57.5512 100.816 57.7939 100.755 57.9759 100.634C58.1579 100.513 58.2793 100.391 58.4006 100.209V99.4206H57.9152C57.1264 99.4206 56.7017 99.6633 56.7017 100.149C56.7017 100.331 56.7624 100.513 56.8837 100.634C56.9444 100.755 57.1264 100.816 57.3691 100.816ZM13.0747 108.704C12.9533 108.886 12.7713 109.007 12.5893 109.068C12.4072 109.19 12.1645 109.19 11.9825 109.19C11.6791 109.19 11.4364 109.129 11.1937 108.947C10.951 108.765 10.769 108.583 10.7083 108.34C10.5869 108.037 10.5262 107.733 10.5262 107.43C10.5262 107.066 10.5869 106.762 10.7083 106.52C10.8296 106.216 11.0117 106.034 11.2544 105.913C11.4971 105.792 11.8005 105.67 12.1039 105.67C12.5893 105.67 13.014 105.852 13.3174 106.216C13.6208 106.58 13.7421 107.127 13.7421 107.794V107.976C13.7421 109.007 13.5601 109.736 13.1354 110.16C12.7106 110.646 12.1645 110.888 11.315 110.888H11.1937V110.342H11.315C11.8611 110.342 12.2859 110.221 12.5893 109.918C12.8927 109.736 13.014 109.311 13.0747 108.704ZM12.0432 108.704C12.2859 108.704 12.4679 108.643 12.65 108.522C12.832 108.401 12.9533 108.219 13.0747 108.037V107.794C13.0747 107.369 12.9533 107.005 12.7713 106.762C12.5893 106.52 12.3466 106.338 12.0432 106.338C11.8005 106.338 11.4971 106.459 11.3757 106.702C11.1937 106.944 11.133 107.187 11.133 107.551C11.133 107.915 11.1937 108.219 11.3757 108.401C11.4971 108.643 11.7398 108.765 12.0432 108.704ZM17.2614 108.704C17.1401 108.886 16.958 109.007 16.776 109.068C16.594 109.19 16.3513 109.19 16.1692 109.19C15.8658 109.19 15.6231 109.129 15.3804 108.947C15.1377 108.765 14.9557 108.583 14.895 108.34C14.7737 108.037 14.713 107.733 14.713 107.43C14.713 107.066 14.7737 106.762 14.895 106.52C15.0164 106.216 15.1984 106.034 15.4411 105.913C15.6838 105.792 15.9872 105.67 16.2906 105.67C16.776 105.67 17.2007 105.852 17.5041 106.216C17.8075 106.58 17.9289 107.127 17.9289 107.794V107.976C17.9289 109.007 17.7468 109.736 17.3221 110.16C16.8974 110.646 16.3513 110.888 15.5018 110.888H15.3804V110.342H15.5625C16.1086 110.342 16.5333 110.221 16.8367 109.918C17.0794 109.736 17.2614 109.311 17.2614 108.704ZM16.2299 108.704C16.4726 108.704 16.6547 108.643 16.8367 108.522C17.0187 108.401 17.1401 108.219 17.2614 108.037V107.794C17.2614 107.369 17.1401 107.005 16.958 106.762C16.776 106.52 16.5333 106.338 16.2299 106.338C15.9265 106.338 15.6838 106.459 15.5625 106.702C15.3804 106.944 15.3198 107.187 15.3198 107.551C15.3198 107.915 15.3804 108.219 15.5625 108.401C15.7445 108.643 15.9872 108.704 16.2299 108.704ZM21.4482 108.704C21.3268 108.886 21.1448 109.007 20.9627 109.068C20.7807 109.19 20.538 109.19 20.356 109.19C20.0526 109.19 19.8099 109.129 19.5672 108.947C19.3245 108.765 19.1424 108.583 19.0817 108.34C18.9604 108.037 18.8997 107.733 18.8997 107.43C18.8997 107.066 18.9604 106.762 19.0817 106.52C19.2031 106.216 19.3851 106.034 19.6278 105.913C19.8706 105.792 20.1739 105.67 20.4773 105.67C20.9627 105.67 21.3875 105.852 21.6909 106.216C21.9943 106.58 22.1156 107.127 22.1156 107.794V107.976C22.1156 109.007 21.9336 109.736 21.5088 110.16C21.0841 110.646 20.538 110.888 19.6885 110.888H19.5672V110.342H19.6885C20.2346 110.342 20.6594 110.221 20.9627 109.918C21.2661 109.736 21.4482 109.311 21.4482 108.704ZM20.4773 108.704C20.72 108.704 20.9021 108.643 21.0841 108.522C21.2661 108.401 21.3875 108.219 21.5088 108.037V107.794C21.5088 107.369 21.3875 107.005 21.2055 106.762C21.0234 106.52 20.7807 106.338 20.4773 106.338C20.1739 106.338 19.9312 106.459 19.8099 106.702C19.6278 106.944 19.5672 107.187 19.5672 107.551C19.5672 107.915 19.6278 108.219 19.8099 108.401C19.9312 108.643 20.1739 108.704 20.4773 108.704ZM25.6956 108.704C25.5742 108.886 25.3922 109.007 25.2102 109.068C25.0281 109.19 24.7854 109.25 24.6034 109.19C24.3 109.19 24.0573 109.129 23.8146 108.947C23.5719 108.765 23.3898 108.583 23.3292 108.34C23.2078 108.037 23.1471 107.733 23.1471 107.43C23.1471 107.066 23.2078 106.762 23.3292 106.52C23.4505 106.216 23.6325 106.034 23.8753 105.913C24.118 105.792 24.4213 105.67 24.7247 105.67C25.2102 105.67 25.6349 105.852 25.9383 106.216C26.2417 106.58 26.363 107.127 26.363 107.794V107.976C26.363 109.007 26.181 109.736 25.7563 110.16C25.3315 110.646 24.7854 110.888 23.9359 110.888H23.8146V110.342H23.9359C24.482 110.342 24.9068 110.221 25.2102 109.918C25.5135 109.736 25.6349 109.311 25.6956 108.704ZM24.6641 108.704C24.9068 108.704 25.0888 108.643 25.2708 108.522C25.4529 108.401 25.5742 108.219 25.6956 108.037V107.794C25.6956 107.369 25.5742 107.005 25.3922 106.762C25.2102 106.52 24.9674 106.338 24.6641 106.338C24.3607 106.338 24.118 106.459 23.9966 106.702C23.8146 106.944 23.7539 107.187 23.7539 107.551C23.7539 107.915 23.8146 108.219 23.9966 108.401C24.1786 108.643 24.3607 108.704 24.6641 108.704ZM31.824 108.704C31.7026 108.886 31.5206 109.007 31.3386 109.068C31.1565 109.19 30.9138 109.19 30.7318 109.19C30.4284 109.19 30.1857 109.129 29.943 108.947C29.7003 108.765 29.5182 108.583 29.4576 108.34C29.3362 108.037 29.2755 107.733 29.2755 107.43C29.2755 107.066 29.3362 106.762 29.4576 106.52C29.5789 106.216 29.761 106.034 30.0037 105.913C30.2464 105.792 30.5498 105.67 30.8531 105.67C31.3386 105.67 31.7633 105.852 32.0667 106.216C32.3701 106.58 32.4914 107.127 32.4914 107.794V107.976C32.4914 109.007 32.3094 109.736 31.8847 110.16C31.4599 110.646 30.9138 110.888 30.0643 110.888H29.943V110.342H30.0643C30.6104 110.342 31.0352 110.221 31.3386 109.918C31.642 109.736 31.7633 109.311 31.824 108.704ZM30.7925 108.704C31.0352 108.704 31.2172 108.643 31.3992 108.522C31.5813 108.401 31.7026 108.219 31.824 108.037V107.794C31.824 107.369 31.7026 107.005 31.5206 106.762C31.3386 106.52 31.0959 106.338 30.7925 106.338C30.4891 106.338 30.2464 106.459 30.125 106.702C29.943 106.944 29.8823 107.187 29.8823 107.551C29.8823 107.915 29.943 108.219 30.125 108.401C30.307 108.643 30.5498 108.704 30.7925 108.704ZM36.0107 108.704C35.8894 108.886 35.7073 109.007 35.5253 109.068C35.3433 109.19 35.1006 109.25 34.9185 109.19C34.6151 109.19 34.3724 109.129 34.1297 108.947C33.887 108.765 33.705 108.583 33.6443 108.34C33.5229 108.037 33.4623 107.733 33.4623 107.43C33.4623 107.066 33.5229 106.762 33.6443 106.52C33.7657 106.216 33.9477 106.034 34.1904 105.913C34.4331 105.792 34.7365 105.67 35.0399 105.67C35.5253 105.67 35.95 105.852 36.2534 106.216C36.5568 106.58 36.6782 107.127 36.6782 107.794V107.976C36.6782 109.007 36.4961 109.736 36.0714 110.16C35.6467 110.646 35.1006 110.888 34.2511 110.888H34.1297V110.342H34.2511C34.7972 110.342 35.2219 110.221 35.5253 109.918C35.8287 109.736 36.0107 109.311 36.0107 108.704ZM35.0399 108.704C35.2826 108.704 35.4646 108.643 35.6467 108.522C35.8287 108.401 35.95 108.219 36.0714 108.037V107.794C36.0714 107.369 35.95 107.005 35.768 106.762C35.586 106.52 35.3433 106.338 35.0399 106.338C34.7972 106.338 34.4938 106.459 34.3724 106.702C34.1904 106.944 34.1297 107.187 34.1297 107.551C34.1297 107.915 34.1904 108.219 34.3724 108.401C34.4938 108.643 34.7365 108.765 35.0399 108.704ZM40.2581 108.704C40.1368 108.886 39.9547 109.007 39.7727 109.068C39.5907 109.19 39.348 109.19 39.1659 109.19C38.8626 109.19 38.6198 109.129 38.3771 108.947C38.1344 108.765 37.9524 108.583 37.8917 108.34C37.7704 108.037 37.7097 107.733 37.7097 107.43C37.7097 107.066 37.7704 106.762 37.8917 106.52C38.0131 106.216 38.1951 106.034 38.4378 105.913C38.6805 105.792 38.9839 105.67 39.2873 105.67C39.7727 105.67 40.1975 105.852 40.5008 106.216C40.8042 106.58 40.9256 107.127 40.9256 107.794V107.976C40.9256 109.007 40.7435 109.736 40.3188 110.16C39.8941 110.646 39.348 110.888 38.4985 110.888H38.3771V110.342H38.4985C39.0446 110.342 39.4693 110.221 39.7727 109.918C40.0761 109.736 40.1974 109.311 40.2581 108.704ZM39.2266 108.704C39.4693 108.704 39.6514 108.643 39.8334 108.522C40.0154 108.401 40.1368 108.219 40.2581 108.037V107.794C40.2581 107.369 40.1368 107.005 39.9547 106.762C39.7727 106.52 39.53 106.338 39.2266 106.338C38.9232 106.338 38.6805 106.459 38.5592 106.702C38.3771 106.944 38.3165 107.187 38.3165 107.551C38.3165 107.915 38.3771 108.219 38.5592 108.401C38.7412 108.643 38.9232 108.704 39.2266 108.704ZM44.4449 108.704C44.3235 108.886 44.1415 109.007 43.9594 109.068C43.7774 109.19 43.5347 109.19 43.3527 109.19C43.0493 109.19 42.8066 109.129 42.5639 108.947C42.3212 108.765 42.1391 108.583 42.0784 108.34C41.9571 108.037 41.8964 107.733 41.8964 107.43C41.8964 107.066 41.9571 106.762 42.0784 106.52C42.1998 106.216 42.3818 106.034 42.6245 105.913C42.8673 105.792 43.1706 105.67 43.474 105.67C43.9594 105.67 44.3842 105.852 44.6876 106.216C44.991 106.58 45.1123 107.127 45.1123 107.794V107.976C45.1123 109.007 44.9303 109.736 44.5055 110.16C44.0808 110.646 43.5347 110.888 42.6852 110.888H42.5639V110.342H42.6852C43.2313 110.342 43.6561 110.221 43.9594 109.918C44.2628 109.736 44.4449 109.311 44.4449 108.704ZM43.4133 108.704C43.6561 108.704 43.8381 108.643 44.0201 108.522C44.2022 108.401 44.3235 108.219 44.4449 108.037V107.794C44.4449 107.369 44.3235 107.005 44.1415 106.762C43.9594 106.52 43.7167 106.338 43.4133 106.338C43.11 106.338 42.8673 106.459 42.7459 106.702C42.5639 106.944 42.5032 107.187 42.5032 107.551C42.5032 107.915 42.5639 108.219 42.7459 108.401C42.9279 108.643 43.1706 108.704 43.4133 108.704ZM50.5733 108.704C50.4519 108.886 50.2699 109.007 50.0879 109.068C49.9058 109.19 49.6631 109.19 49.4811 109.19C49.1777 109.19 48.935 109.129 48.6923 108.947C48.4496 108.765 48.2675 108.583 48.2069 108.34C48.0855 108.037 48.0248 107.733 48.0248 107.43C48.0248 107.066 48.0855 106.762 48.2069 106.52C48.3282 106.216 48.5102 106.034 48.7529 105.913C48.9957 105.792 49.299 105.67 49.6024 105.67C50.0878 105.67 50.5126 105.852 50.816 106.216C51.1194 106.58 51.2407 107.127 51.2407 107.794V107.976C51.2407 109.007 51.0587 109.736 50.634 110.16C50.2092 110.646 49.6631 110.888 48.8136 110.888H48.6923V110.342H48.8136C49.3597 110.342 49.7845 110.221 50.0879 109.918C50.3912 109.736 50.5733 109.311 50.5733 108.704ZM49.6024 108.704C49.8451 108.704 50.0272 108.643 50.2092 108.522C50.3912 108.401 50.5126 108.219 50.634 108.037V107.794C50.634 107.369 50.5126 107.005 50.3306 106.762C50.1485 106.52 49.9058 106.338 49.6024 106.338C49.299 106.338 49.0563 106.459 48.935 106.702C48.753 106.944 48.6923 107.187 48.6923 107.551C48.6923 107.915 48.753 108.219 48.935 108.401C49.0563 108.643 49.299 108.704 49.6024 108.704ZM54.8207 108.704C54.6993 108.886 54.5173 109.007 54.3353 109.068C54.1532 109.19 53.9105 109.19 53.7285 109.19C53.4251 109.19 53.1824 109.129 52.9397 108.947C52.697 108.765 52.5149 108.583 52.4543 108.34C52.3329 108.037 52.2722 107.733 52.2722 107.43C52.2722 107.066 52.3329 106.762 52.4543 106.52C52.5756 106.216 52.7577 106.034 53.0004 105.913C53.2431 105.792 53.5465 105.67 53.8498 105.67C54.3353 105.67 54.76 105.852 55.0634 106.216C55.3668 106.58 55.4881 107.127 55.4881 107.794V107.976C55.4881 109.007 55.3061 109.736 54.8814 110.16C54.4566 110.646 53.9105 110.888 53.061 110.888H52.9397V110.342H53.061C53.6071 110.342 54.0319 110.221 54.3353 109.918C54.6386 109.736 54.76 109.311 54.8207 108.704ZM53.7892 108.704C54.0319 108.704 54.2139 108.643 54.3959 108.522C54.578 108.401 54.6993 108.219 54.8207 108.037V107.794C54.8207 107.369 54.6993 107.005 54.5173 106.762C54.3353 106.52 54.0926 106.338 53.7892 106.338C53.4858 106.338 53.2431 106.459 53.1217 106.702C52.9397 106.944 52.879 107.187 52.879 107.551C52.879 107.915 52.9397 108.219 53.1217 108.401C53.2431 108.643 53.4858 108.704 53.7892 108.704ZM59.0074 108.704C58.8861 108.886 58.704 109.007 58.522 109.068C58.34 109.19 58.0973 109.19 57.9152 109.19C57.6118 109.19 57.3691 109.129 57.1264 108.947C56.8837 108.765 56.7017 108.583 56.641 108.34C56.5196 108.037 56.459 107.733 56.459 107.43C56.459 107.066 56.5196 106.762 56.641 106.52C56.7624 106.216 56.9444 106.034 57.1871 105.913C57.4298 105.792 57.7332 105.67 58.0366 105.67C58.522 105.67 58.9467 105.852 59.2501 106.216C59.5535 106.58 59.6749 107.127 59.6749 107.794V107.976C59.6749 109.007 59.4928 109.736 59.0681 110.16C58.6434 110.646 58.0973 110.888 57.2478 110.888H57.1264V110.342H57.2478C57.7939 110.342 58.2186 110.221 58.522 109.918C58.8254 109.736 59.0074 109.311 59.0074 108.704ZM57.9759 108.704C58.2186 108.704 58.4006 108.643 58.5827 108.522C58.7647 108.401 58.8861 108.219 59.0074 108.037V107.794C59.0074 107.369 58.8861 107.005 58.704 106.762C58.522 106.52 58.2793 106.338 57.9759 106.338C57.7332 106.338 57.4298 106.459 57.3085 106.702C57.1264 106.944 57.0657 107.187 57.0657 107.551C57.0657 107.915 57.1264 108.219 57.3085 108.401C57.4905 108.643 57.7332 108.765 57.9759 108.704ZM63.1942 108.704C63.0728 108.886 62.8908 109.007 62.7087 109.068C62.5267 109.19 62.284 109.19 62.102 109.19C61.7986 109.19 61.5559 109.129 61.3132 108.947C61.0704 108.765 60.8884 108.583 60.8277 108.34C60.7064 108.037 60.6457 107.733 60.6457 107.43C60.6457 107.066 60.7064 106.762 60.8277 106.52C60.9491 106.216 61.1311 106.034 61.3738 105.913C61.6165 105.792 61.9199 105.67 62.2233 105.67C62.7087 105.67 63.1335 105.852 63.4369 106.216C63.7402 106.58 63.8616 107.127 63.8616 107.794V107.976C63.8616 109.007 63.6796 109.736 63.2548 110.16C62.8301 110.646 62.284 110.888 61.4345 110.888H61.3132V110.342H61.4345C61.9806 110.342 62.4053 110.221 62.7087 109.918C63.0121 109.736 63.1942 109.311 63.1942 108.704ZM62.2233 108.704C62.466 108.704 62.6481 108.643 62.8301 108.522C63.0121 108.401 63.1335 108.219 63.2548 108.037V107.794C63.2548 107.369 63.1335 107.005 62.9514 106.762C62.7694 106.52 62.5267 106.338 62.2233 106.338C61.9199 106.338 61.6772 106.459 61.5559 106.702C61.3738 106.944 61.3132 107.187 61.3132 107.551C61.3132 107.915 61.3738 108.219 61.5559 108.401C61.6772 108.643 61.9199 108.704 62.2233 108.704ZM69.3832 108.704C69.2619 108.886 69.0798 109.007 68.8978 109.068C68.7158 109.19 68.4731 109.19 68.291 109.19C67.9877 109.19 67.7449 109.129 67.5022 108.947C67.2595 108.765 67.0775 108.583 67.0168 108.34C66.8955 108.037 66.8348 107.733 66.8348 107.43C66.8348 107.066 66.8955 106.762 67.0168 106.52C67.1382 106.216 67.3202 106.034 67.5629 105.913C67.8056 105.792 68.109 105.67 68.4124 105.67C68.8978 105.67 69.3226 105.852 69.6259 106.216C69.9293 106.58 70.0507 107.127 70.0507 107.794V107.976C70.0507 109.007 69.8687 109.736 69.4439 110.16C69.0192 110.646 68.4731 110.888 67.6236 110.888H67.5022V110.342H67.6236C68.1697 110.342 68.5944 110.221 68.8978 109.918C69.1405 109.736 69.3226 109.311 69.3832 108.704ZM68.3517 108.704C68.5944 108.704 68.7765 108.643 68.9585 108.522C69.1405 108.401 69.2619 108.219 69.3832 108.037V107.794C69.3832 107.369 69.2619 107.005 69.0799 106.762C68.8978 106.52 68.6551 106.338 68.3517 106.338C68.109 106.338 67.8056 106.459 67.6843 106.702C67.5022 106.944 67.4416 107.187 67.4416 107.551C67.4416 107.915 67.5022 108.219 67.6843 108.401C67.8056 108.643 68.0483 108.765 68.3517 108.704ZM73.57 108.704C73.4486 108.886 73.2666 109.007 73.0846 109.068C72.9025 109.19 72.6598 109.19 72.4778 109.19C72.1744 109.19 71.9317 109.129 71.689 108.947C71.4463 108.765 71.2642 108.583 71.2036 108.34C71.0822 108.037 71.0215 107.733 71.0215 107.43C71.0215 107.066 71.0822 106.762 71.2036 106.52C71.3249 106.216 71.5069 106.034 71.7497 105.913C71.9924 105.792 72.2958 105.67 72.5991 105.67C73.0846 105.67 73.5093 105.852 73.8127 106.216C74.1161 106.58 74.2374 107.127 74.2374 107.794V107.976C74.2374 109.007 74.0554 109.736 73.6307 110.16C73.2059 110.646 72.6598 110.888 71.8103 110.888H71.689V110.342H71.8103C72.3564 110.342 72.7812 110.221 73.0846 109.918C73.3879 109.736 73.5093 109.311 73.57 108.704ZM72.5385 108.704C72.7812 108.704 72.9632 108.643 73.1452 108.522C73.3273 108.401 73.4486 108.219 73.57 108.037V107.794C73.57 107.369 73.4486 107.005 73.2666 106.762C73.0846 106.52 72.8418 106.338 72.5385 106.338C72.2351 106.338 71.9924 106.459 71.871 106.702C71.689 106.944 71.6283 107.187 71.6283 107.551C71.6283 107.915 71.689 108.219 71.871 108.401C72.053 108.643 72.2957 108.704 72.5385 108.704ZM77.7567 108.704C77.6354 108.886 77.4533 109.007 77.2713 109.068C77.0893 109.19 76.8465 109.19 76.6645 109.19C76.3611 109.19 76.1184 109.129 75.8757 108.947C75.633 108.765 75.451 108.583 75.3903 108.34C75.2689 108.037 75.2083 107.733 75.2083 107.43C75.2083 107.066 75.2689 106.762 75.3903 106.52C75.5116 106.216 75.6937 106.034 75.9364 105.913C76.1791 105.792 76.4825 105.67 76.7859 105.67C77.2713 105.67 77.696 105.852 77.9994 106.216C78.3028 106.58 78.4242 107.127 78.4242 107.794V107.976C78.4242 109.007 78.2421 109.736 77.8174 110.16C77.3926 110.646 76.8465 110.888 75.9971 110.888H75.8757V110.342H75.9971C76.5432 110.342 76.9679 110.221 77.2713 109.918C77.5747 109.736 77.7567 109.311 77.7567 108.704ZM76.7859 108.704C77.0286 108.704 77.2106 108.643 77.3926 108.522C77.5747 108.401 77.696 108.219 77.8174 108.037V107.794C77.8174 107.369 77.696 107.005 77.514 106.762C77.332 106.52 77.0893 106.338 76.7859 106.338C76.4825 106.338 76.2398 106.459 76.1184 106.702C75.9364 106.944 75.8757 107.187 75.8757 107.551C75.8757 107.915 75.9364 108.219 76.1184 108.401C76.2398 108.643 76.4825 108.704 76.7859 108.704ZM82.0041 108.704C81.8828 108.886 81.7007 109.007 81.5187 109.068C81.3367 109.19 81.094 109.19 80.9119 109.19C80.6085 109.19 80.3658 109.129 80.1231 108.947C79.8804 108.765 79.6984 108.583 79.6377 108.34C79.5164 108.037 79.4557 107.733 79.4557 107.43C79.4557 107.066 79.5164 106.762 79.6377 106.52C79.7591 106.216 79.9411 106.034 80.1838 105.913C80.4265 105.792 80.7299 105.67 81.0333 105.67C81.5187 105.67 81.9434 105.852 82.2468 106.216C82.5502 106.58 82.6716 107.127 82.6716 107.794V107.976C82.6716 109.007 82.4895 109.736 82.0648 110.16C81.6401 110.646 81.094 110.888 80.2445 110.888H80.1231V110.342H80.2445C80.7906 110.342 81.2153 110.221 81.5187 109.918C81.8221 109.736 81.9434 109.311 82.0041 108.704ZM80.9726 108.704C81.2153 108.704 81.3974 108.643 81.5794 108.522C81.7614 108.401 81.8828 108.219 82.0041 108.037V107.794C82.0041 107.369 81.8828 107.005 81.7007 106.762C81.5187 106.52 81.276 106.338 80.9726 106.338C80.7299 106.338 80.4265 106.459 80.3052 106.702C80.1231 106.944 80.0625 107.187 80.0625 107.551C80.0625 107.915 80.1231 108.219 80.3052 108.401C80.4265 108.643 80.7299 108.765 80.9726 108.704Z" fill="#C8C8C8"/>
<g id="Group_4">
<path id="Vector_11" d="M128.112 11.1956H115.673V22.8456M128.294 11.1956H133.27C134.605 11.1956 135.636 11.1956 136.425 11.2562C137.214 11.3169 137.76 11.4383 138.245 11.681C139.095 12.1057 139.823 12.8338 140.248 13.6833C140.49 14.1687 140.612 14.7148 140.673 15.5036C140.733 16.2925 140.733 17.324 140.733 18.6589M128.112 22.967H115.673V34.617M128.112 34.7384H115.673V46.3884M15.1312 18.6589C15.1312 17.324 15.1312 16.2925 15.1918 15.5036C15.2525 14.7148 15.3739 14.1687 15.6166 13.6833C16.0413 12.8338 16.7695 12.1057 17.6189 11.681C18.1044 11.4383 18.6504 11.3169 19.4393 11.2562C20.2281 11.1956 21.2596 11.1956 22.5945 11.1956H27.57V22.8456H15.1312V18.6589ZM77.9929 11.1956H90.4317V22.8456H77.9929V11.1956ZM27.6914 11.1956H40.1302V22.8456H27.6914V11.1956ZM90.5531 11.1956H102.992V22.8456H90.5531V11.1956ZM40.2516 11.1956H52.6904V22.8456H40.2516V11.1956ZM103.113 11.1956H115.552V22.8456H103.113V11.1956ZM52.8724 11.1956H65.3113V22.8456H52.8724V11.1956ZM65.4327 11.1956H77.8715V22.8456H65.4327V11.1956ZM15.1312 22.967H27.57V34.617H15.1312V22.967ZM77.9929 22.967H90.4317V34.617H77.9929V22.967ZM27.6914 22.967H40.1302V34.617H27.6914V22.967ZM90.5531 22.967H102.992V34.617H90.5531V22.967ZM40.2516 22.967H52.6904V34.617H40.2516V22.967ZM103.113 22.967H115.552V34.617H103.113V22.967ZM52.8724 22.967H65.3113V34.617H52.8724V22.967ZM65.4327 22.967H77.8715V34.617H65.4327V22.967ZM15.1312 34.7384H27.57V46.3884H15.1312V34.7384ZM77.9929 34.7384H90.4317V46.3884H77.9929V34.7384ZM27.6914 34.7384H40.1302V46.3884H27.6914V34.7384ZM90.5531 34.7384H102.992V46.3884H90.5531V34.7384ZM40.2516 34.7384H52.6904V46.3884H40.2516V34.7384ZM103.113 34.7384H115.552V46.3884H103.113V34.7384ZM52.8724 34.7384H65.3113V46.3884H52.8724V34.7384ZM65.4327 34.7384H77.8715V46.3884H65.4327V34.7384Z" stroke="#F1F1F1" stroke-width="0.739876"/>
<path id="Vector_12" d="M128.158 85.0027H115.719V73.3526M128.34 85.0027H133.316C134.651 85.0027 135.682 85.0027 136.471 84.942C137.26 84.8813 137.806 84.76 138.291 84.5173C139.141 84.0925 139.869 83.3644 140.294 82.5149C140.536 82.0295 140.658 81.4834 140.718 80.6946C140.779 79.9058 140.779 78.8743 140.779 77.5394M128.158 73.2313H115.719V61.5812M128.158 61.4599H115.719V49.8098M15.177 77.5394C15.177 78.8743 15.177 79.9058 15.2377 80.6946C15.2984 81.4834 15.4197 82.0295 15.6624 82.5149C16.0872 83.3644 16.8153 84.0925 17.6648 84.5173C18.1502 84.76 18.6963 84.8813 19.4851 84.942C20.2739 85.0027 21.3054 85.0027 22.6403 85.0027H27.6159V73.3526H15.177V77.5394ZM78.0387 85.0027H90.4775V73.3526H78.0387V85.0027ZM27.7372 85.0027H40.1761V73.3526H27.7372V85.0027ZM90.5989 85.0027H103.038V73.3526H90.5989V85.0027ZM40.2974 85.0027H52.7363V73.3526H40.2974V85.0027ZM103.159 85.0027H115.598V73.3526H103.159V85.0027ZM52.9183 85.0027H65.3571V73.3526H52.9183V85.0027ZM65.4785 85.0027H77.9173V73.3526H65.4785V85.0027ZM15.177 73.2313H27.6159V61.5812H15.177V73.2313ZM78.0387 73.2313H90.4775V61.5812H78.0387V73.2313ZM27.7372 73.2313H40.1761V61.5812H27.7372V73.2313ZM90.5989 73.2313H103.038V61.5812H90.5989V73.2313ZM40.2974 73.2313H52.7363V61.5812H40.2974V73.2313ZM103.159 73.2313H115.598V61.5812H103.159V73.2313ZM52.9183 73.2313H65.3571V61.5812H52.9183V73.2313ZM65.4785 73.2313H77.9173V61.5812H65.4785V73.2313ZM15.177 61.4599H27.6159V49.8098H15.177V61.4599ZM78.0387 61.4599H90.4775V49.8098H78.0387V61.4599ZM27.7372 61.4599H40.1761V49.8098H27.7372V61.4599ZM90.5989 61.4599H103.038V49.8098H90.5989V61.4599ZM40.2974 61.4599H52.7363V49.8098H40.2974V61.4599ZM103.159 61.4599H115.598V49.8098H103.159V61.4599ZM52.9183 61.4599H65.3571V49.8098H52.9183V61.4599ZM65.4785 61.4599H77.9173V49.8098H65.4785V61.4599Z" stroke="#F1F1F1" stroke-width="0.739876"/>
<path id="Vector_13" d="M15.1312 18.6589C15.1312 17.324 15.1312 16.2925 15.1918 15.5036C15.2525 14.7148 15.3739 14.1687 15.6166 13.6833C16.0413 12.8338 16.7695 12.1057 17.6189 11.681C18.1044 11.4383 18.6504 11.3169 19.4393 11.2562C20.2281 11.1956 21.2596 11.1956 22.5945 11.1956H133.27C134.605 11.1956 135.636 11.1956 136.425 11.2562C137.214 11.3169 137.76 11.4383 138.245 11.681C139.095 12.1057 139.823 12.8338 140.248 13.6833L140.49 13.562L140.248 13.6833C140.49 14.1687 140.612 14.7148 140.673 15.5036C140.733 16.2925 140.733 17.324 140.733 18.6589V46.3884H15.1312V18.6589Z" stroke="#C8C8C8" stroke-width="0.739876"/>
<path id="Vector_14" d="M15.177 77.5394C15.177 78.8743 15.177 79.9058 15.2377 80.6946C15.2984 81.4834 15.4197 82.0295 15.6624 82.5149C16.0872 83.3644 16.8153 84.0925 17.6648 84.5173C18.1502 84.76 18.6963 84.8813 19.4851 84.942C20.2739 85.0027 21.3054 85.0027 22.6403 85.0027H133.316C134.651 85.0027 135.682 85.0027 136.471 84.942C137.26 84.8813 137.806 84.76 138.291 84.5173C139.141 84.0925 139.869 83.3644 140.294 82.5149L140.536 82.6363L140.294 82.5149C140.536 82.0295 140.658 81.4834 140.718 80.6946C140.779 79.9058 140.779 78.8743 140.779 77.5394V49.8098H15.177V77.5394Z" stroke="#C8C8C8" stroke-width="0.739876"/>
</g>
<path id="Vector_15" d="M129.636 102.819L125.692 106.763L123.568 104.639L124.478 103.729L125.692 104.942L128.726 101.908L129.636 102.819Z" fill="#212121"/>
<path id="Vector_16" d="M124.175 95.2341H129.029C132.73 95.2341 135.704 98.2074 135.704 101.909V106.763C135.704 110.464 132.73 113.438 129.029 113.438H124.175C120.474 113.438 117.5 110.464 117.5 106.763V101.909C117.5 98.2074 120.474 95.2341 124.175 95.2341Z" stroke="#FFCD17" stroke-width="1.47975"/>
</g>
<g id="Group 1250">
<g id="Vector_17">
<path d="M163.097 29.4079C163.5 29.2189 163.72 28.8912 163.72 28.4564C163.72 27.7192 163.078 27.2593 162.12 27.2593C161.168 27.2593 160.532 27.7192 160.532 28.4564C160.532 28.8912 160.746 29.2189 161.15 29.4079C160.652 29.5969 160.375 29.9687 160.375 30.4727C160.375 31.2729 161.049 31.7707 162.12 31.7707C163.197 31.7707 163.878 31.2729 163.878 30.4727C163.878 29.9687 163.601 29.6032 163.097 29.4079ZM162.12 27.7696C162.712 27.7696 163.103 28.0406 163.103 28.4816C163.103 28.9164 162.731 29.1873 162.12 29.1873C161.515 29.1873 161.156 28.9164 161.156 28.4816C161.156 28.0406 161.528 27.7696 162.12 27.7696ZM162.12 31.2603C161.42 31.2603 161.005 30.9516 161.005 30.4538C161.005 29.9687 161.42 29.6662 162.12 29.6662C162.819 29.6662 163.248 29.9687 163.248 30.4538C163.248 30.9516 162.819 31.2603 162.12 31.2603Z" fill="#595959"/>
<path d="M164.203 27.3097V27.8579H165.198V31.7203H165.822V27.3097H164.203Z" fill="#595959"/>
<path d="M163.097 70.3636C163.5 70.1746 163.72 69.8469 163.72 69.4122C163.72 68.675 163.078 68.215 162.12 68.215C161.168 68.215 160.532 68.675 160.532 69.4122C160.532 69.8469 160.746 70.1746 161.15 70.3636C160.652 70.5526 160.375 70.9244 160.375 71.4284C160.375 72.2287 161.049 72.7264 162.12 72.7264C163.197 72.7264 163.878 72.2287 163.878 71.4284C163.878 70.9244 163.601 70.5589 163.097 70.3636ZM162.12 68.7254C162.712 68.7254 163.103 68.9963 163.103 69.4374C163.103 69.8721 162.731 70.1431 162.12 70.1431C161.515 70.1431 161.156 69.8721 161.156 69.4374C161.156 68.9963 161.528 68.7254 162.12 68.7254ZM162.12 72.216C161.42 72.216 161.005 71.9073 161.005 71.4095C161.005 70.9244 161.42 70.6219 162.12 70.6219C162.819 70.6219 163.248 70.9244 163.248 71.4095C163.248 71.9073 162.819 72.216 162.12 72.216Z" fill="#595959"/>
<path d="M164.203 68.2654V68.8136H165.198V72.676H165.822V68.2654H164.203Z" fill="#595959"/>
<path d="M161.521 53.0362C161.925 52.8471 162.145 52.5195 162.145 52.0847C162.145 51.3475 161.502 50.8876 160.545 50.8876C159.593 50.8876 158.957 51.3475 158.957 52.0847C158.957 52.5195 159.171 52.8471 159.574 53.0362C159.077 53.2252 158.799 53.597 158.799 54.101C158.799 54.9012 159.474 55.399 160.545 55.399C161.622 55.399 162.303 54.9012 162.303 54.101C162.303 53.597 162.025 53.2315 161.521 53.0362ZM160.545 51.3979C161.137 51.3979 161.528 51.6689 161.528 52.1099C161.528 52.5447 161.156 52.8156 160.545 52.8156C159.94 52.8156 159.581 52.5447 159.581 52.1099C159.581 51.6689 159.952 51.3979 160.545 51.3979ZM160.545 54.8886C159.845 54.8886 159.429 54.5799 159.429 54.0821C159.429 53.597 159.845 53.2945 160.545 53.2945C161.244 53.2945 161.673 53.597 161.673 54.0821C161.673 54.5799 161.244 54.8886 160.545 54.8886Z" fill="#595959"/>
<path d="M162.766 50.938V52.2738H163.371V51.4862H165.387L163.642 55.3486H164.31L166.093 51.3664V50.938H162.766Z" fill="#595959"/>
<path d="M163.097 93.9919C163.5 93.8029 163.72 93.4752 163.72 93.0405C163.72 92.3032 163.078 91.8433 162.12 91.8433C161.168 91.8433 160.532 92.3032 160.532 93.0405C160.532 93.4752 160.746 93.8029 161.15 93.9919C160.652 94.1809 160.375 94.5527 160.375 95.0567C160.375 95.8569 161.049 96.3547 162.12 96.3547C163.197 96.3547 163.878 95.8569 163.878 95.0567C163.878 94.5527 163.601 94.1872 163.097 93.9919ZM162.12 92.3537C162.712 92.3537 163.103 92.6246 163.103 93.0657C163.103 93.5004 162.731 93.7714 162.12 93.7714C161.515 93.7714 161.156 93.5004 161.156 93.0657C161.156 92.6246 161.528 92.3537 162.12 92.3537ZM162.12 95.8443C161.42 95.8443 161.005 95.5356 161.005 95.0378C161.005 94.5527 161.42 94.2502 162.12 94.2502C162.819 94.2502 163.248 94.5527 163.248 95.0378C163.248 95.5356 162.819 95.8443 162.12 95.8443Z" fill="#595959"/>
<path d="M164.341 91.8937V93.2295H164.946V92.4419H166.962L165.217 96.3043H165.885L167.668 92.3222V91.8937H164.341Z" fill="#595959"/>
<path d="M147.685 27.3097V28.6455H148.289V27.8579H150.306L148.56 31.7203H149.228L151.011 27.7381V27.3097H147.685Z" fill="#595959"/>
<path d="M154.989 30.0947H154.151V29.1369H153.558V30.0947H151.863L154.025 27.3097H153.344L151.088 30.1955V30.6365H153.54V31.7203H154.151V30.6365H154.989V30.0947Z" fill="#595959"/>
<path d="M147.685 68.2654V69.6012H148.289V68.8136H150.306L148.56 72.676H149.228L151.011 68.6939V68.2654H147.685Z" fill="#595959"/>
<path d="M154.989 71.0504H154.151V70.0927H153.558V71.0504H151.863L154.025 68.2654H153.344L151.088 71.1512V71.5923H153.54V72.676H154.151V71.5923H154.989V71.0504Z" fill="#595959"/>
</g>
<g id="Vector_18">
<path d="M21.8938 16.5603L23.0468 15.1363V14.7079H20.1358V15.2561H22.2592L21.1503 16.617V17.0581H21.5031C22.2592 17.0581 22.5932 17.3605 22.5932 17.8268C22.5932 18.3057 22.2151 18.6081 21.5535 18.6081C21.0117 18.6081 20.5202 18.4128 20.224 18.1356L19.9342 18.6333C20.306 18.9673 20.9234 19.1689 21.5535 19.1689C22.6751 19.1689 23.2233 18.564 23.2233 17.8205C23.2233 17.14 22.7759 16.6422 21.8938 16.5603Z" fill="#595959"/>
<path d="M21.8938 55.9408L23.0468 54.5168V54.0884H20.1358V54.6365H22.2592L21.1503 55.9975V56.4386H21.5031C22.2592 56.4386 22.5932 56.741 22.5932 57.2073C22.5932 57.6862 22.2151 57.9886 21.5535 57.9886C21.0117 57.9886 20.5202 57.7933 20.224 57.516L19.9342 58.0138C20.306 58.3478 20.9234 58.5494 21.5535 58.5494C22.6751 58.5494 23.2233 57.9445 23.2233 57.201C23.2233 56.5205 22.7759 56.0227 21.8938 55.9408Z" fill="#595959"/>
<path d="M30.9796 14.7079V15.2561H31.9752V19.1185H32.599V14.7079H30.9796Z" fill="#595959"/>
<path d="M34.4018 18.5703L35.7501 17.2723C36.3487 16.699 36.4748 16.3146 36.4748 15.8861C36.4748 15.13 35.8825 14.6575 34.9625 14.6575C34.2757 14.6575 33.6898 14.9032 33.3495 15.3254L33.778 15.6971C34.0489 15.3695 34.4333 15.2182 34.9058 15.2182C35.5233 15.2182 35.8447 15.4955 35.8447 15.9492C35.8447 16.2264 35.7564 16.5036 35.2902 16.9573L33.4944 18.69V19.1185H36.6638V18.5703H34.4018Z" fill="#595959"/>
<path d="M30.9796 54.0884V54.6365H31.9752V58.499H32.599V54.0884H30.9796Z" fill="#595959"/>
<path d="M34.4018 57.9508L35.7501 56.6528C36.3487 56.0794 36.4748 55.6951 36.4748 55.2666C36.4748 54.5105 35.8825 54.038 34.9625 54.038C34.2757 54.038 33.6898 54.2837 33.3495 54.7059L33.778 55.0776C34.0489 54.75 34.4333 54.5987 34.9058 54.5987C35.5233 54.5987 35.8447 54.876 35.8447 55.3296C35.8447 55.6069 35.7564 55.8841 35.2902 56.3378L33.4944 58.0705V58.499H36.6638V57.9508H34.4018Z" fill="#595959"/>
<path d="M30.9796 27.3096V27.8578H31.9752V31.7202H32.599V27.3096H30.9796Z" fill="#595959"/>
<path d="M34.994 27.2592C34.1182 27.2592 33.4377 27.8011 33.4377 28.6517C33.4377 29.4645 34.0678 29.9875 34.9436 29.9875C35.4918 29.9875 35.9581 29.7922 36.2164 29.4078V29.5653C36.2164 30.668 35.6493 31.2288 34.7546 31.2288C34.4333 31.2288 34.1371 31.1721 33.904 31.0209L33.6646 31.5123C33.9481 31.6887 34.3451 31.7707 34.7609 31.7707C35.9959 31.7707 36.8465 30.9641 36.8465 29.4582C36.8465 28.0531 36.1786 27.2592 34.994 27.2592ZM35.0508 29.4771C34.4333 29.4771 34.0489 29.1432 34.0489 28.6265C34.0489 28.1035 34.4459 27.7696 35.0192 27.7696C35.706 27.7696 36.0715 28.1666 36.0715 28.6202C36.0715 29.1054 35.6556 29.4771 35.0508 29.4771Z" fill="#595959"/>
<path d="M30.9796 65.1149V65.6631H31.9752V69.5255H32.599V65.1149H30.9796Z" fill="#595959"/>
<path d="M34.994 65.0645C34.1182 65.0645 33.4377 65.6064 33.4377 66.457C33.4377 67.2698 34.0678 67.7928 34.9436 67.7928C35.4918 67.7928 35.9581 67.5975 36.2164 67.2131V67.3706C36.2164 68.4733 35.6493 69.0341 34.7546 69.0341C34.4333 69.0341 34.1371 68.9773 33.904 68.8261L33.6646 69.3176C33.9481 69.494 34.3451 69.5759 34.7609 69.5759C35.9959 69.5759 36.8465 68.7694 36.8465 67.2635C36.8465 65.8584 36.1786 65.0645 34.994 65.0645ZM35.0508 67.2824C34.4333 67.2824 34.0489 66.9485 34.0489 66.4318C34.0489 65.9088 34.4459 65.5749 35.0192 65.5749C35.706 65.5749 36.0715 65.9718 36.0715 66.4255C36.0715 66.9107 35.6556 67.2824 35.0508 67.2824Z" fill="#595959"/>
<path d="M43.0962 31.1721L44.4446 29.8741C45.0432 29.3007 45.1692 28.9164 45.1692 28.4879C45.1692 27.7318 44.5769 27.2592 43.657 27.2592C42.9702 27.2592 42.3842 27.505 42.044 27.9271L42.4724 28.2989C42.7434 27.9712 43.1277 27.82 43.6003 27.82C44.2178 27.82 44.5391 28.0972 44.5391 28.5509C44.5391 28.8281 44.4509 29.1054 43.9847 29.559L42.1889 31.2918V31.7202H45.3582V31.1721H43.0962Z" fill="#595959"/>
<path d="M47.7607 29.0424C47.2125 29.0424 46.7463 29.244 46.4942 29.6221C46.4879 29.5653 46.4879 29.5149 46.4879 29.4645C46.4879 28.3619 47.0613 27.8011 47.956 27.8011C48.2711 27.8011 48.5735 27.8578 48.8004 28.009L49.0398 27.5176C48.7562 27.3411 48.3593 27.2592 47.9434 27.2592C46.7085 27.2592 45.8578 28.0657 45.8578 29.5717C45.8578 30.9767 46.5257 31.7707 47.7103 31.7707C48.5861 31.7707 49.2729 31.2288 49.2729 30.3782C49.2729 29.5653 48.6365 29.0424 47.7607 29.0424ZM47.6851 31.2603C47.0046 31.2603 46.6391 30.8633 46.6391 30.4097C46.6391 29.9245 47.055 29.5527 47.6536 29.5527C48.2711 29.5527 48.6617 29.8867 48.6617 30.4034C48.6617 30.9263 48.2585 31.2603 47.6851 31.2603Z" fill="#595959"/>
<path d="M43.0962 68.9773L44.4446 67.6794C45.0432 67.106 45.1692 66.7216 45.1692 66.2932C45.1692 65.5371 44.5769 65.0645 43.657 65.0645C42.9702 65.0645 42.3842 65.3102 42.044 65.7324L42.4724 66.1041C42.7434 65.7765 43.1277 65.6253 43.6003 65.6253C44.2178 65.6253 44.5391 65.9025 44.5391 66.3562C44.5391 66.6334 44.4509 66.9107 43.9847 67.3643L42.1889 69.0971V69.5255H45.3582V68.9773H43.0962Z" fill="#595959"/>
<path d="M47.7607 66.8476C47.2125 66.8476 46.7463 67.0493 46.4942 67.4273C46.4879 67.3706 46.4879 67.3202 46.4879 67.2698C46.4879 66.1672 47.0613 65.6064 47.956 65.6064C48.2711 65.6064 48.5735 65.6631 48.8004 65.8143L49.0398 65.3228C48.7562 65.1464 48.3593 65.0645 47.9434 65.0645C46.7085 65.0645 45.8578 65.871 45.8578 67.3769C45.8578 68.782 46.5257 69.5759 47.7103 69.5759C48.5861 69.5759 49.2729 69.034 49.2729 68.1834C49.2729 67.3706 48.6365 66.8476 47.7607 66.8476ZM47.6851 69.0656C47.0046 69.0656 46.6391 68.6686 46.6391 68.2149C46.6391 67.7298 47.055 67.358 47.6536 67.358C48.2711 67.358 48.6617 67.692 48.6617 68.2086C48.6617 68.7316 48.2585 69.0656 47.6851 69.0656Z" fill="#595959"/>
<path d="M43.0962 42.1986L44.4446 40.9006C45.0432 40.3272 45.1692 39.9429 45.1692 39.5144C45.1692 38.7583 44.5769 38.2858 43.657 38.2858C42.9702 38.2858 42.3842 38.5315 42.044 38.9537L42.4724 39.3254C42.7434 38.9978 43.1277 38.8465 43.6003 38.8465C44.2178 38.8465 44.5391 39.1238 44.5391 39.5774C44.5391 39.8547 44.4509 40.1319 43.9847 40.5856L42.1889 42.3183V42.7468H45.3582V42.1986H43.0962Z" fill="#595959"/>
<path d="M47.3066 38.2858C46.4308 38.2858 45.7503 38.8276 45.7503 39.6783C45.7503 40.4911 46.3804 41.014 47.2562 41.014C47.8044 41.014 48.2706 40.8187 48.529 40.4344V40.5919C48.529 41.6945 47.9619 42.2553 47.0672 42.2553C46.7458 42.2553 46.4497 42.1986 46.2165 42.0474L45.9771 42.5389C46.2607 42.7153 46.6576 42.7972 47.0735 42.7972C48.3084 42.7972 49.1591 41.9907 49.1591 40.4848C49.1591 39.0797 48.4912 38.2858 47.3066 38.2858ZM47.3633 40.5037C46.7458 40.5037 46.3615 40.1697 46.3615 39.6531C46.3615 39.1301 46.7584 38.7961 47.3318 38.7961C48.0186 38.7961 48.3841 39.1931 48.3841 39.6468C48.3841 40.1319 47.9682 40.5037 47.3633 40.5037Z" fill="#595959"/>
<path d="M43.0962 80.0039L44.4446 78.7059C45.0432 78.1325 45.1692 77.7482 45.1692 77.3197C45.1692 76.5636 44.5769 76.091 43.657 76.091C42.9702 76.091 42.3842 76.3368 42.044 76.7589L42.4724 77.1307C42.7434 76.803 43.1277 76.6518 43.6003 76.6518C44.2178 76.6518 44.5391 76.9291 44.5391 77.3827C44.5391 77.66 44.4509 77.9372 43.9847 78.3909L42.1889 80.1236V80.5521H45.3582V80.0039H43.0962Z" fill="#595959"/>
<path d="M47.3066 76.091C46.4308 76.091 45.7503 76.6329 45.7503 77.4835C45.7503 78.2963 46.3804 78.8193 47.2562 78.8193C47.8044 78.8193 48.2706 78.624 48.529 78.2396V78.3972C48.529 79.4998 47.9619 80.0606 47.0672 80.0606C46.7458 80.0606 46.4497 80.0039 46.2165 79.8527L45.9771 80.3441C46.2607 80.5206 46.6576 80.6025 47.0735 80.6025C48.3084 80.6025 49.1591 79.796 49.1591 78.29C49.1591 76.8849 48.4912 76.091 47.3066 76.091ZM47.3633 78.3089C46.7458 78.3089 46.3615 77.975 46.3615 77.4583C46.3615 76.9354 46.7584 76.6014 47.3318 76.6014C48.0186 76.6014 48.3841 76.9984 48.3841 77.452C48.3841 77.9372 47.9682 78.3089 47.3633 78.3089Z" fill="#595959"/>
<path d="M58.1238 29.1621L59.2769 27.7381V27.3096H56.3659V27.8578H58.4893L57.3803 29.2188V29.6599H57.7332C58.4893 29.6599 58.8232 29.9623 58.8232 30.4286C58.8232 30.9074 58.4452 31.2099 57.7836 31.2099C57.2417 31.2099 56.7502 31.0146 56.4541 30.7373L56.1643 31.2351C56.536 31.569 57.1535 31.7707 57.7836 31.7707C58.9051 31.7707 59.4533 31.1658 59.4533 30.4223C59.4533 29.7418 59.006 29.244 58.1238 29.1621Z" fill="#595959"/>
<path d="M59.7889 27.3096V27.8578H60.7845V31.7202H61.4083V27.3096H59.7889Z" fill="#595959"/>
<path d="M58.1238 66.9674L59.2769 65.5434V65.1149H56.3659V65.6631H58.4893L57.3803 67.0241V67.4651H57.7332C58.4893 67.4651 58.8232 67.7676 58.8232 68.2338C58.8232 68.7127 58.4452 69.0151 57.7836 69.0151C57.2417 69.0151 56.7502 68.8198 56.4541 68.5426L56.1643 69.0404C56.536 69.3743 57.1535 69.5759 57.7836 69.5759C58.9051 69.5759 59.4533 68.971 59.4533 68.2275C59.4533 67.547 59.006 67.0493 58.1238 66.9674Z" fill="#595959"/>
<path d="M59.7889 65.1149V65.6631H60.7845V69.5255H61.4083V65.1149H59.7889Z" fill="#595959"/>
<path d="M82.8989 29.0676H82.4074L82.5271 27.8578H84.4867V27.3096H81.9979L81.7647 29.6158H82.7666C83.7873 29.6158 84.1024 29.9245 84.1024 30.4223C84.1024 30.9011 83.7243 31.2099 83.0564 31.2099C82.5208 31.2099 82.0294 31.0146 81.7332 30.7373L81.4434 31.2351C81.8214 31.569 82.4389 31.7707 83.0627 31.7707C84.1906 31.7707 84.7324 31.1595 84.7324 30.3971C84.7324 29.6158 84.2158 29.0676 82.8989 29.0676Z" fill="#595959"/>
<path d="M87.0589 31.7707C88.0859 31.7707 88.8546 30.9515 88.8546 29.5149C88.8546 28.0783 88.0859 27.2592 87.0589 27.2592C86.0255 27.2592 85.2568 28.0783 85.2568 29.5149C85.2568 30.9515 86.0255 31.7707 87.0589 31.7707ZM87.0589 31.2099C86.3658 31.2099 85.8869 30.6428 85.8869 29.5149C85.8869 28.3871 86.3658 27.82 87.0589 27.82C87.7456 27.82 88.2245 28.3871 88.2245 29.5149C88.2245 30.6428 87.7456 31.2099 87.0589 31.2099Z" fill="#595959"/>
<path d="M82.8989 66.8728H82.4074L82.5271 65.6631H84.4867V65.1149H81.9979L81.7647 67.421H82.7666C83.7873 67.421 84.1024 67.7298 84.1024 68.2275C84.1024 68.7064 83.7243 69.0151 83.0564 69.0151C82.5208 69.0151 82.0294 68.8198 81.7332 68.5426L81.4434 69.0404C81.8214 69.3743 82.4389 69.5759 83.0627 69.5759C84.1906 69.5759 84.7324 68.9647 84.7324 68.2023C84.7324 67.421 84.2158 66.8728 82.8989 66.8728Z" fill="#595959"/>
<path d="M87.0589 69.5759C88.0859 69.5759 88.8546 68.7568 88.8546 67.3202C88.8546 65.8836 88.0859 65.0645 87.0589 65.0645C86.0255 65.0645 85.2568 65.8836 85.2568 67.3202C85.2568 68.7568 86.0255 69.5759 87.0589 69.5759ZM87.0589 69.0151C86.3658 69.0151 85.8869 68.4481 85.8869 67.3202C85.8869 66.1924 86.3658 65.6253 87.0589 65.6253C87.7456 65.6253 88.2245 66.1924 88.2245 67.3202C88.2245 68.4481 87.7456 69.0151 87.0589 69.0151Z" fill="#595959"/>
<path d="M96.1433 29.0424C95.5952 29.0424 95.1289 29.244 94.8769 29.6221C94.8706 29.5653 94.8706 29.5149 94.8706 29.4645C94.8706 28.3619 95.4439 27.8011 96.3387 27.8011C96.6537 27.8011 96.9562 27.8578 97.183 28.009L97.4224 27.5176C97.1389 27.3411 96.7419 27.2592 96.3261 27.2592C95.0911 27.2592 94.2405 28.0657 94.2405 29.5717C94.2405 30.9767 94.9084 31.7707 96.0929 31.7707C96.9688 31.7707 97.6555 31.2288 97.6555 30.3782C97.6555 29.5653 97.0192 29.0424 96.1433 29.0424ZM96.0677 31.2603C95.3872 31.2603 95.0218 30.8633 95.0218 30.4097C95.0218 29.9245 95.4376 29.5527 96.0362 29.5527C96.6537 29.5527 97.0444 29.8867 97.0444 30.4034C97.0444 30.9263 96.6411 31.2603 96.0677 31.2603Z" fill="#595959"/>
<path d="M97.8773 27.3096V27.8578H98.8728V31.7202H99.4966V27.3096H97.8773Z" fill="#595959"/>
<path d="M96.1433 66.8476C95.5952 66.8476 95.1289 67.0493 94.8769 67.4273C94.8706 67.3706 94.8706 67.3202 94.8706 67.2698C94.8706 66.1672 95.4439 65.6064 96.3387 65.6064C96.6537 65.6064 96.9562 65.6631 97.183 65.8143L97.4224 65.3228C97.1389 65.1464 96.7419 65.0645 96.3261 65.0645C95.0911 65.0645 94.2405 65.871 94.2405 67.3769C94.2405 68.782 94.9084 69.5759 96.0929 69.5759C96.9688 69.5759 97.6555 69.034 97.6555 68.1834C97.6555 67.3706 97.0192 66.8476 96.1433 66.8476ZM96.0677 69.0656C95.3872 69.0656 95.0218 68.6686 95.0218 68.2149C95.0218 67.7298 95.4376 67.358 96.0362 67.358C96.6537 67.358 97.0444 67.692 97.0444 68.2086C97.0444 68.7316 96.6411 69.0656 96.0677 69.0656Z" fill="#595959"/>
<path d="M97.8773 65.1149V65.6631H98.8728V69.5255H99.4966V65.1149H97.8773Z" fill="#595959"/>
<path d="M58.1238 40.1886L59.2769 38.7646V38.3362H56.3659V38.8843H58.4893L57.3803 40.2453V40.6864H57.7332C58.4893 40.6864 58.8232 40.9888 58.8232 41.4551C58.8232 41.934 58.4452 42.2364 57.7836 42.2364C57.2417 42.2364 56.7502 42.0411 56.4541 41.7639L56.1643 42.2616C56.536 42.5956 57.1535 42.7972 57.7836 42.7972C58.9051 42.7972 59.4533 42.1923 59.4533 41.4488C59.4533 40.7683 59.006 40.2705 58.1238 40.1886Z" fill="#595959"/>
<path d="M61.2396 40.0941H60.7481L60.8679 38.8843H62.8274V38.3362H60.3386L60.1055 40.6423H61.1073C62.128 40.6423 62.4431 40.951 62.4431 41.4488C62.4431 41.9277 62.065 42.2364 61.3971 42.2364C60.8616 42.2364 60.3701 42.0411 60.074 41.7639L59.7841 42.2616C60.1622 42.5956 60.7797 42.7972 61.4034 42.7972C62.5313 42.7972 63.0732 42.186 63.0732 41.4236C63.0732 40.6423 62.5565 40.0941 61.2396 40.0941Z" fill="#595959"/>
<path d="M58.1238 77.9939L59.2769 76.5699V76.1414H56.3659V76.6896H58.4893L57.3803 78.0506V78.4917H57.7332C58.4893 78.4917 58.8232 78.7941 58.8232 79.2604C58.8232 79.7393 58.4452 80.0417 57.7836 80.0417C57.2417 80.0417 56.7502 79.8464 56.4541 79.5691L56.1643 80.0669C56.536 80.4008 57.1535 80.6025 57.7836 80.6025C58.9051 80.6025 59.4533 79.9976 59.4533 79.2541C59.4533 78.5736 59.006 78.0758 58.1238 77.9939Z" fill="#595959"/>
<path d="M61.2396 77.8994H60.7481L60.8679 76.6896H62.8274V76.1414H60.3386L60.1055 78.4476H61.1073C62.128 78.4476 62.4431 78.7563 62.4431 79.2541C62.4431 79.7329 62.065 80.0417 61.3971 80.0417C60.8616 80.0417 60.3701 79.8464 60.074 79.5691L59.7841 80.0669C60.1622 80.4008 60.7797 80.6025 61.4034 80.6025C62.5313 80.6025 63.0732 79.9913 63.0732 79.2289C63.0732 78.4476 62.5565 77.8994 61.2396 77.8994Z" fill="#595959"/>
<path d="M72.8742 41.1212H72.0362V40.1634H71.4439V41.1212H69.749L71.9102 38.3362H71.2297L68.9739 41.222V41.663H71.425V42.7468H72.0362V41.663H72.8742V41.1212Z" fill="#595959"/>
<path d="M72.8399 38.3362V38.8843H73.8354V42.7468H74.4592V38.3362H72.8399Z" fill="#595959"/>
<path d="M72.8742 78.9264H72.0362V77.9687H71.4439V78.9264H69.749L71.9102 76.1414H71.2297L68.9739 79.0272V79.4683H71.425V80.5521H72.0362V79.4683H72.8742V78.9264Z" fill="#595959"/>
<path d="M72.8399 76.1414V76.6896H73.8354V80.5521H74.4592V76.1414H72.8399Z" fill="#595959"/>
<path d="M71.299 17.4929H70.461V16.5351H69.8687V17.4929H68.1737L70.3349 14.7079H69.6544L67.3987 17.5937V18.0347H69.8498V19.1185H70.461V18.0347H71.299V17.4929Z" fill="#595959"/>
<path d="M75.5139 17.4929H74.6759V16.5351H74.0836V17.4929H72.3887L74.5499 14.7079H73.8694L71.6137 17.5937V18.0347H74.0647V19.1185H74.6759V18.0347H75.5139V17.4929Z" fill="#595959"/>
<path d="M71.299 56.8734H70.461V55.9156H69.8687V56.8734H68.1737L70.3349 54.0884H69.6544L67.3987 56.9742V57.4152H69.8498V58.499H70.461V57.4152H71.299V56.8734Z" fill="#595959"/>
<path d="M75.5139 56.8734H74.6759V55.9156H74.0836V56.8734H72.3887L74.5499 54.0884H73.8694L71.6137 56.9742V57.4152H74.0647V58.499H74.6759V57.4152H75.5139V56.8734Z" fill="#595959"/>
<path d="M122.141 16.8061C122.544 16.617 122.765 16.2894 122.765 15.8546C122.765 15.1174 122.122 14.6575 121.164 14.6575C120.213 14.6575 119.576 15.1174 119.576 15.8546C119.576 16.2894 119.791 16.617 120.194 16.8061C119.696 16.9951 119.419 17.3668 119.419 17.8709C119.419 18.6711 120.093 19.1689 121.164 19.1689C122.242 19.1689 122.922 18.6711 122.922 17.8709C122.922 17.3668 122.645 17.0014 122.141 16.8061ZM121.164 15.1678C121.756 15.1678 122.147 15.4388 122.147 15.8798C122.147 16.3146 121.775 16.5855 121.164 16.5855C120.559 16.5855 120.2 16.3146 120.2 15.8798C120.2 15.4388 120.572 15.1678 121.164 15.1678ZM121.164 18.6585C120.465 18.6585 120.049 18.3498 120.049 17.852C120.049 17.3668 120.465 17.0644 121.164 17.0644C121.864 17.0644 122.292 17.3668 122.292 17.852C122.292 18.3498 121.864 18.6585 121.164 18.6585Z" fill="#595959"/>
<path d="M123.247 14.7079V15.2561H124.242V19.1185H124.866V14.7079H123.247Z" fill="#595959"/>
<path d="M122.141 56.1866C122.544 55.9975 122.765 55.6699 122.765 55.2351C122.765 54.4979 122.122 54.038 121.164 54.038C120.213 54.038 119.576 54.4979 119.576 55.2351C119.576 55.6699 119.791 55.9975 120.194 56.1866C119.696 56.3756 119.419 56.7473 119.419 57.2514C119.419 58.0516 120.093 58.5494 121.164 58.5494C122.242 58.5494 122.922 58.0516 122.922 57.2514C122.922 56.7473 122.645 56.3819 122.141 56.1866ZM121.164 54.5483C121.756 54.5483 122.147 54.8193 122.147 55.2603C122.147 55.6951 121.775 55.966 121.164 55.966C120.559 55.966 120.2 55.6951 120.2 55.2603C120.2 54.8193 120.572 54.5483 121.164 54.5483ZM121.164 58.039C120.465 58.039 120.049 57.7303 120.049 57.2325C120.049 56.7473 120.465 56.4449 121.164 56.4449C121.864 56.4449 122.292 56.7473 122.292 57.2325C122.292 57.7303 121.864 58.039 121.164 58.039Z" fill="#595959"/>
<path d="M123.247 54.0884V54.6365H124.242V58.499H124.866V54.0884H123.247Z" fill="#595959"/>
<path d="M120.566 40.4344C120.969 40.2453 121.189 39.9177 121.189 39.4829C121.189 38.7457 120.547 38.2858 119.589 38.2858C118.637 38.2858 118.001 38.7457 118.001 39.4829C118.001 39.9177 118.215 40.2453 118.619 40.4344C118.121 40.6234 117.844 40.9951 117.844 41.4992C117.844 42.2994 118.518 42.7972 119.589 42.7972C120.666 42.7972 121.347 42.2994 121.347 41.4992C121.347 40.9951 121.07 40.6297 120.566 40.4344ZM119.589 38.7961C120.181 38.7961 120.572 39.0671 120.572 39.5081C120.572 39.9429 120.2 40.2138 119.589 40.2138C118.984 40.2138 118.625 39.9429 118.625 39.5081C118.625 39.0671 118.997 38.7961 119.589 38.7961ZM119.589 42.2868C118.89 42.2868 118.474 41.9781 118.474 41.4803C118.474 40.9951 118.89 40.6927 119.589 40.6927C120.288 40.6927 120.717 40.9951 120.717 41.4803C120.717 41.9781 120.288 42.2868 119.589 42.2868Z" fill="#595959"/>
<path d="M121.81 38.3362V39.672H122.415V38.8843H124.431L122.686 42.7468H123.354L125.137 38.7646V38.3362H121.81Z" fill="#595959"/>
<path d="M120.566 78.2396C120.969 78.0506 121.189 77.723 121.189 77.2882C121.189 76.551 120.547 76.091 119.589 76.091C118.637 76.091 118.001 76.551 118.001 77.2882C118.001 77.723 118.215 78.0506 118.619 78.2396C118.121 78.4287 117.844 78.8004 117.844 79.3045C117.844 80.1047 118.518 80.6025 119.589 80.6025C120.666 80.6025 121.347 80.1047 121.347 79.3045C121.347 78.8004 121.07 78.435 120.566 78.2396ZM119.589 76.6014C120.181 76.6014 120.572 76.8723 120.572 77.3134C120.572 77.7482 120.2 78.0191 119.589 78.0191C118.984 78.0191 118.625 77.7482 118.625 77.3134C118.625 76.8723 118.997 76.6014 119.589 76.6014ZM119.589 80.0921C118.89 80.0921 118.474 79.7833 118.474 79.2856C118.474 78.8004 118.89 78.498 119.589 78.498C120.288 78.498 120.717 78.8004 120.717 79.2856C120.717 79.7833 120.288 80.0921 119.589 80.0921Z" fill="#595959"/>
<path d="M121.81 76.1414V77.4772H122.415V76.6896H124.431L122.686 80.5521H123.354L125.137 76.5699V76.1414H121.81Z" fill="#595959"/>
<path d="M96.1433 40.0689C95.5952 40.0689 95.1289 40.2705 94.8769 40.6486C94.8706 40.5919 94.8706 40.5415 94.8706 40.4911C94.8706 39.3884 95.4439 38.8276 96.3387 38.8276C96.6537 38.8276 96.9562 38.8843 97.183 39.0356L97.4224 38.5441C97.1389 38.3677 96.7419 38.2858 96.3261 38.2858C95.0911 38.2858 94.2405 39.0923 94.2405 40.5982C94.2405 42.0033 94.9084 42.7972 96.0929 42.7972C96.9688 42.7972 97.6555 42.2553 97.6555 41.4047C97.6555 40.5919 97.0192 40.0689 96.1433 40.0689ZM96.0677 42.2868C95.3872 42.2868 95.0218 41.8899 95.0218 41.4362C95.0218 40.951 95.4376 40.5793 96.0362 40.5793C96.6537 40.5793 97.0444 40.9132 97.0444 41.4299C97.0444 41.9529 96.6411 42.2868 96.0677 42.2868Z" fill="#595959"/>
<path d="M99.5596 38.2858C98.6838 38.2858 98.0033 38.8276 98.0033 39.6783C98.0033 40.4911 98.6334 41.014 99.5092 41.014C100.057 41.014 100.524 40.8187 100.782 40.4344V40.5919C100.782 41.6945 100.215 42.2553 99.3202 42.2553C98.9988 42.2553 98.7027 42.1986 98.4695 42.0474L98.2301 42.5389C98.5136 42.7153 98.9106 42.7972 99.3265 42.7972C100.561 42.7972 101.412 41.9907 101.412 40.4848C101.412 39.0797 100.744 38.2858 99.5596 38.2858ZM99.6163 40.5037C98.9988 40.5037 98.6145 40.1697 98.6145 39.6531C98.6145 39.1301 99.0114 38.7961 99.5848 38.7961C100.272 38.7961 100.637 39.1931 100.637 39.6468C100.637 40.1319 100.221 40.5037 99.6163 40.5037Z" fill="#595959"/>
<path d="M105.154 14.7079V16.0437H105.758V15.2561H107.775L106.029 19.1185H106.697L108.48 15.1363V14.7079H105.154Z" fill="#595959"/>
<path d="M112.458 17.4929H111.62V16.5351H111.027V17.4929H109.333L111.494 14.7079H110.813L108.557 17.5937V18.0347H111.009V19.1185H111.62V18.0347H112.458V17.4929Z" fill="#595959"/>
<path d="M105.154 54.0884V55.4242H105.758V54.6365H107.775L106.029 58.499H106.697L108.48 54.5168V54.0884H105.154Z" fill="#595959"/>
<path d="M112.458 56.8734H111.62V55.9156H111.027V56.8734H109.333L111.494 54.0884H110.813L108.557 56.9742V57.4152H111.009V58.499H111.62V57.4152H112.458V56.8734Z" fill="#595959"/>
</g>
<path id="Rectangle 391" d="M126.903 8.09293L141.195 9.66753L143.293 51.8772L128.845 47.3677L126.903 8.09293Z" fill="white"/>
<path id="Rectangle 393" d="M126.949 83.3762L141.982 88.4284L143.339 39.592L128.891 44.1015L126.949 83.3762Z" fill="white"/>
<path id="Rectangle 392" d="M120.717 7.30444L127.689 6.82629L142.77 15.9682L131.423 20.037L120.717 7.30444Z" fill="white"/>
<path id="Rectangle 394" d="M112.841 93.1699L121.504 93.9582L139.931 83.4345L125.73 78.1972L112.841 93.1699Z" fill="white"/>
<path id="Vector 97" d="M115.203 11.2424H123.867C125.442 11.2424 128.593 12.1876 128.593 15.9681C128.593 19.7486 128.593 38.2837 128.593 46.6849" stroke="#C8C8C8" stroke-width="0.78761"/>
<path id="Vector 98" d="M115.249 84.9556H123.913C125.488 84.9556 128.639 84.0104 128.639 80.2299C128.639 76.4494 128.639 57.9143 128.639 49.5131" stroke="#C8C8C8" stroke-width="0.78761"/>
</g>
</g>
</g>
</svg>
