<svg width="234" height="103" viewBox="0 0 234 103" fill="none" xmlns="http://www.w3.org/2000/svg">
<g id="payment">
<g id="Group 1283">
<g id="applepay">
<g id="XMLID 3">
<mask id="path-1-inside-1_919_7823" fill="white">
<path d="M228.252 0.000732422L228.998 0.00216071C229.2 0.00358898 229.402 0.00577599 229.605 0.0113105C229.959 0.0208621 230.372 0.0400098 230.758 0.109102C231.093 0.169446 231.374 0.261213 231.644 0.398505C231.91 0.533788 232.154 0.711072 232.367 0.92375C232.58 1.13786 232.758 1.38218 232.895 1.65136C233.032 1.91894 233.123 2.19861 233.183 2.53613C233.252 2.91739 233.271 3.33203 233.28 3.68771C233.286 3.88847 233.289 4.08924 233.29 4.29477C233.291 4.54333 233.291 4.79176 233.291 5.04082V39.104C233.291 39.3531 233.291 39.601 233.289 39.8549C233.289 40.0556 233.286 40.2564 233.28 40.4575C233.271 40.8126 233.252 41.2271 233.182 41.6128C233.123 41.9457 233.032 42.2254 232.894 42.4943C232.758 42.7629 232.58 43.0069 232.368 43.2197C232.153 43.4339 231.91 43.6107 231.641 43.7472C231.373 43.8838 231.093 43.9755 230.761 44.0352C230.368 44.1053 229.937 44.1246 229.612 44.1334C229.408 44.138 229.205 44.1407 228.997 44.1417C228.749 44.1436 228.5 44.1436 228.252 44.1436H167.606C167.603 44.1436 167.6 44.1436 167.597 44.1436C167.351 44.1436 167.106 44.1436 166.856 44.1417C166.652 44.1407 166.449 44.138 166.253 44.1335C165.921 44.1246 165.49 44.1053 165.1 44.0357C164.765 43.9755 164.485 43.8838 164.213 43.7454C163.947 43.6101 163.704 43.4335 163.489 43.2189C163.277 43.0066 163.1 42.7633 162.963 42.4944C162.827 42.2257 162.735 41.9452 162.675 41.6083C162.605 41.2233 162.586 40.8106 162.577 40.4578C162.571 40.2558 162.569 40.0539 162.568 39.8532L162.567 39.2605L162.567 39.104V5.04082L162.567 4.88433L162.568 4.2929C162.569 4.09093 162.571 3.88901 162.577 3.68722C162.586 3.33413 162.605 2.92118 162.676 2.53296C162.735 2.19915 162.827 1.91858 162.964 1.64859C163.1 1.38173 163.277 1.13812 163.49 0.924419C163.703 0.711429 163.947 0.534368 164.216 0.39779C164.484 0.261168 164.765 0.169446 165.1 0.109236C165.485 0.0399651 165.899 0.020862 166.253 0.0112658C166.455 0.00577593 166.657 0.00358893 166.858 0.0022053L167.606 0.000732422H228.252Z"/>
</mask>
<path d="M228.252 0.000732422L228.998 0.00216071C229.2 0.00358898 229.402 0.00577599 229.605 0.0113105C229.959 0.0208621 230.372 0.0400098 230.758 0.109102C231.093 0.169446 231.374 0.261213 231.644 0.398505C231.91 0.533788 232.154 0.711072 232.367 0.92375C232.58 1.13786 232.758 1.38218 232.895 1.65136C233.032 1.91894 233.123 2.19861 233.183 2.53613C233.252 2.91739 233.271 3.33203 233.28 3.68771C233.286 3.88847 233.289 4.08924 233.29 4.29477C233.291 4.54333 233.291 4.79176 233.291 5.04082V39.104C233.291 39.3531 233.291 39.601 233.289 39.8549C233.289 40.0556 233.286 40.2564 233.28 40.4575C233.271 40.8126 233.252 41.2271 233.182 41.6128C233.123 41.9457 233.032 42.2254 232.894 42.4943C232.758 42.7629 232.58 43.0069 232.368 43.2197C232.153 43.4339 231.91 43.6107 231.641 43.7472C231.373 43.8838 231.093 43.9755 230.761 44.0352C230.368 44.1053 229.937 44.1246 229.612 44.1334C229.408 44.138 229.205 44.1407 228.997 44.1417C228.749 44.1436 228.5 44.1436 228.252 44.1436H167.606C167.603 44.1436 167.6 44.1436 167.597 44.1436C167.351 44.1436 167.106 44.1436 166.856 44.1417C166.652 44.1407 166.449 44.138 166.253 44.1335C165.921 44.1246 165.49 44.1053 165.1 44.0357C164.765 43.9755 164.485 43.8838 164.213 43.7454C163.947 43.6101 163.704 43.4335 163.489 43.2189C163.277 43.0066 163.1 42.7633 162.963 42.4944C162.827 42.2257 162.735 41.9452 162.675 41.6083C162.605 41.2233 162.586 40.8106 162.577 40.4578C162.571 40.2558 162.569 40.0539 162.568 39.8532L162.567 39.2605L162.567 39.104V5.04082L162.567 4.88433L162.568 4.2929C162.569 4.09093 162.571 3.88901 162.577 3.68722C162.586 3.33413 162.605 2.92118 162.676 2.53296C162.735 2.19915 162.827 1.91858 162.964 1.64859C163.1 1.38173 163.277 1.13812 163.49 0.924419C163.703 0.711429 163.947 0.534368 164.216 0.39779C164.484 0.261168 164.765 0.169446 165.1 0.109236C165.485 0.0399651 165.899 0.020862 166.253 0.0112658C166.455 0.00577593 166.657 0.00358893 166.858 0.0022053L167.606 0.000732422H228.252Z" fill="white"/>
<path d="M228.998 0.00216071L229.007 -1.31159L229 -1.31161L228.998 0.00216071ZM229.605 0.0113105L229.57 1.32459L229.57 1.3246L229.605 0.0113105ZM230.758 0.109102L230.991 -1.18387L230.99 -1.18406L230.758 0.109102ZM231.644 0.398505L231.048 1.56929L231.048 1.56974L231.644 0.398505ZM232.367 0.92375L233.296 -0.00454916L233.295 -0.00588888L232.367 0.92375ZM232.895 1.65136L231.724 2.2475L231.725 2.24847L232.895 1.65136ZM233.183 2.53613L231.889 2.76602L231.89 2.76981L233.183 2.53613ZM233.28 3.68771L234.594 3.65212V3.65194L233.28 3.68771ZM233.29 4.29477L231.976 4.30108L231.976 4.30489L233.29 4.29477ZM233.289 39.8549L231.976 39.8448L231.976 39.8487L233.289 39.8549ZM233.28 40.4575L231.967 40.4217V40.4218L233.28 40.4575ZM233.182 41.6128L231.889 41.379L231.888 41.383L233.182 41.6128ZM232.894 42.4943L231.724 41.897L231.724 41.8984L232.894 42.4943ZM232.368 43.2197L231.439 42.2905L231.439 42.2908L232.368 43.2197ZM231.641 43.7472L231.047 42.5753L231.044 42.577L231.641 43.7472ZM230.761 44.0352L230.991 45.3286L230.994 45.3282L230.761 44.0352ZM229.612 44.1334L229.642 45.4468L229.648 45.4467L229.612 44.1334ZM228.997 44.1417L228.991 42.828L228.987 42.828L228.997 44.1417ZM166.856 44.1417L166.866 42.8279L166.862 42.8279L166.856 44.1417ZM166.253 44.1335L166.217 45.4468L166.223 45.447L166.253 44.1335ZM165.1 44.0357L164.867 45.3287L164.869 45.329L165.1 44.0357ZM164.213 43.7454L164.811 42.5752L164.808 42.5737L164.213 43.7454ZM163.489 43.2189L164.419 42.2907L164.418 42.2891L163.489 43.2189ZM162.963 42.4944L164.135 41.8993L164.134 41.8984L162.963 42.4944ZM162.675 41.6083L163.968 41.3773L163.968 41.3748L162.675 41.6083ZM162.577 40.4578L161.263 40.4933L161.263 40.4934L162.577 40.4578ZM162.568 39.8532L161.254 39.8553L161.254 39.8616L162.568 39.8532ZM162.567 39.2605L161.253 39.2601L161.253 39.2627L162.567 39.2605ZM162.567 39.104L163.881 39.1044V39.104H162.567ZM162.567 5.04082H163.881L163.881 5.04044L162.567 5.04082ZM162.567 4.88433L161.253 4.88225L161.253 4.88471L162.567 4.88433ZM162.568 4.2929L161.254 4.28419L161.254 4.29082L162.568 4.2929ZM162.577 3.68722L161.263 3.65171L161.263 3.65175L162.577 3.68722ZM162.676 2.53296L163.968 2.76647L163.969 2.76399L162.676 2.53296ZM162.964 1.64859L164.135 2.24471L164.135 2.24356L162.964 1.64859ZM163.49 0.924419L164.419 1.8535L164.42 1.8532L163.49 0.924419ZM164.216 0.39779L164.811 1.56883L164.812 1.56851L164.216 0.39779ZM165.1 0.109236L164.867 -1.18383L164.867 -1.18377L165.1 0.109236ZM166.253 0.0112658L166.289 1.32456L166.289 1.32455L166.253 0.0112658ZM166.858 0.0022053L166.855 -1.31158L166.849 -1.31153L166.858 0.0022053ZM167.606 0.000732422V-1.31304L167.604 -1.31304L167.606 0.000732422ZM228.249 1.3145L228.995 1.31593L229 -1.31161L228.254 -1.31304L228.249 1.3145ZM228.989 1.3159C229.188 1.31731 229.38 1.31943 229.57 1.32459L229.641 -1.30197C229.424 -1.30788 229.212 -1.31013 229.007 -1.31158L228.989 1.3159ZM229.57 1.3246C229.915 1.33393 230.244 1.35179 230.526 1.40226L230.99 -1.18406C230.5 -1.27177 230.003 -1.2922 229.641 -1.30198L229.57 1.3246ZM230.525 1.40207C230.749 1.44249 230.906 1.4971 231.048 1.56929L232.24 -0.772278C231.842 -0.974673 231.436 -1.1036 230.991 -1.18387L230.525 1.40207ZM231.048 1.56974C231.19 1.64182 231.322 1.73718 231.438 1.85339L233.295 -0.00588888C232.985 -0.315037 232.629 -0.57424 232.239 -0.772734L231.048 1.56974ZM231.437 1.85205C231.554 1.96914 231.65 2.10148 231.724 2.2475L234.066 1.05522C233.866 0.662882 233.607 0.306572 233.296 -0.00454819L231.437 1.85205ZM231.725 2.24847C231.795 2.38623 231.849 2.53966 231.889 2.76602L234.476 2.30623C234.397 1.85756 234.268 1.45165 234.065 1.05426L231.725 2.24847ZM231.89 2.76981C231.94 3.04554 231.958 3.37442 231.967 3.72349L234.594 3.65194C234.584 3.28964 234.564 2.78923 234.476 2.30245L231.89 2.76981ZM231.967 3.7233C231.972 3.91204 231.975 4.10274 231.976 4.30108L234.603 4.28847C234.602 4.07573 234.599 3.86491 234.594 3.65212L231.967 3.7233ZM231.976 4.30489C231.978 4.54749 231.978 4.79073 231.978 5.04082H234.605C234.605 4.79279 234.605 4.53918 234.603 4.28465L231.976 4.30489ZM231.978 5.04082V39.104H234.605V5.04082H231.978ZM231.978 39.104C231.978 39.354 231.978 39.5968 231.976 39.8448L234.603 39.865C234.605 39.6052 234.605 39.3521 234.605 39.104H231.978ZM231.976 39.8487C231.975 40.042 231.972 40.2326 231.967 40.4217L234.594 40.4934C234.599 40.2801 234.602 40.0692 234.603 39.8611L231.976 39.8487ZM231.967 40.4218C231.958 40.7695 231.94 41.0985 231.889 41.379L234.475 41.8466C234.564 41.3556 234.584 40.8558 234.594 40.4932L231.967 40.4218ZM231.888 41.383C231.849 41.6035 231.796 41.7571 231.724 41.897L234.064 43.0917C234.268 42.6938 234.396 42.2879 234.475 41.8427L231.888 41.383ZM231.724 41.8984C231.649 42.0439 231.554 42.1755 231.439 42.2905L233.296 44.1489C233.607 43.8383 233.866 43.4818 234.065 43.0903L231.724 41.8984ZM231.439 42.2908C231.322 42.4078 231.191 42.5022 231.047 42.5753L232.235 44.9191C232.629 44.7191 232.985 44.46 233.297 44.1485L231.439 42.2908ZM231.044 42.577C230.904 42.6482 230.749 42.7025 230.528 42.7422L230.994 45.3282C231.436 45.2485 231.842 45.1195 232.238 44.9174L231.044 42.577ZM230.53 42.7418C230.24 42.7935 229.893 42.8115 229.577 42.8201L229.648 45.4467C229.981 45.4376 230.495 45.4171 230.991 45.3286L230.53 42.7418ZM229.583 42.8199C229.386 42.8244 229.191 42.827 228.991 42.828L229.003 45.4555C229.219 45.4544 229.43 45.4516 229.642 45.4468L229.583 42.8199ZM228.987 42.828C228.745 42.8299 228.501 42.8298 228.252 42.8298V45.4574C228.499 45.4574 228.753 45.4574 229.007 45.4554L228.987 42.828ZM228.252 42.8298H167.606V45.4574H228.252V42.8298ZM167.606 42.8298C167.606 42.8298 167.606 42.8298 167.606 42.8298C167.606 42.8298 167.606 42.8298 167.606 42.8298C167.606 42.8298 167.606 42.8298 167.606 42.8298C167.606 42.8298 167.606 42.8298 167.606 42.8298C167.606 42.8298 167.606 42.8298 167.606 42.8298C167.606 42.8298 167.606 42.8298 167.606 42.8298C167.606 42.8298 167.606 42.8298 167.606 42.8298C167.606 42.8298 167.606 42.8298 167.606 42.8298C167.606 42.8298 167.606 42.8298 167.606 42.8298C167.606 42.8298 167.606 42.8298 167.606 42.8298C167.606 42.8298 167.606 42.8298 167.606 42.8298C167.606 42.8298 167.606 42.8298 167.606 42.8298C167.606 42.8298 167.606 42.8298 167.606 42.8298C167.606 42.8298 167.606 42.8298 167.606 42.8298C167.606 42.8298 167.606 42.8298 167.606 42.8298C167.606 42.8298 167.606 42.8298 167.606 42.8298C167.606 42.8298 167.606 42.8298 167.606 42.8298C167.606 42.8298 167.606 42.8298 167.606 42.8298C167.606 42.8298 167.606 42.8298 167.606 42.8298C167.606 42.8298 167.606 42.8298 167.606 42.8298C167.606 42.8298 167.606 42.8298 167.606 42.8298C167.606 42.8298 167.606 42.8298 167.606 42.8298C167.606 42.8298 167.606 42.8298 167.606 42.8298C167.606 42.8298 167.606 42.8298 167.606 42.8298C167.606 42.8298 167.606 42.8298 167.606 42.8298C167.606 42.8298 167.606 42.8298 167.606 42.8298C167.606 42.8298 167.606 42.8298 167.606 42.8298C167.606 42.8298 167.606 42.8298 167.606 42.8298C167.606 42.8298 167.606 42.8298 167.606 42.8298C167.606 42.8298 167.606 42.8298 167.606 42.8298C167.606 42.8298 167.606 42.8298 167.606 42.8298C167.606 42.8298 167.606 42.8298 167.606 42.8298C167.606 42.8298 167.606 42.8298 167.606 42.8298C167.606 42.8298 167.606 42.8298 167.606 42.8298C167.606 42.8298 167.606 42.8298 167.606 42.8298C167.606 42.8298 167.606 42.8298 167.606 42.8298C167.606 42.8298 167.606 42.8298 167.606 42.8298C167.606 42.8298 167.606 42.8298 167.606 42.8298C167.606 42.8298 167.606 42.8298 167.606 42.8298C167.606 42.8298 167.606 42.8298 167.606 42.8298C167.606 42.8298 167.606 42.8298 167.606 42.8298C167.606 42.8298 167.606 42.8298 167.606 42.8298C167.606 42.8298 167.606 42.8298 167.606 42.8298C167.606 42.8298 167.606 42.8298 167.606 42.8298C167.606 42.8298 167.606 42.8298 167.605 42.8298C167.605 42.8298 167.605 42.8298 167.605 42.8298C167.605 42.8298 167.605 42.8298 167.605 42.8298C167.605 42.8298 167.605 42.8298 167.605 42.8298C167.605 42.8298 167.605 42.8298 167.605 42.8298C167.605 42.8298 167.605 42.8298 167.605 42.8298C167.605 42.8298 167.605 42.8298 167.605 42.8298C167.605 42.8298 167.605 42.8298 167.605 42.8298C167.605 42.8298 167.605 42.8298 167.605 42.8298C167.605 42.8298 167.605 42.8298 167.605 42.8298C167.605 42.8298 167.605 42.8298 167.605 42.8298C167.605 42.8298 167.605 42.8298 167.605 42.8298C167.605 42.8298 167.605 42.8298 167.605 42.8298C167.605 42.8298 167.605 42.8298 167.605 42.8298C167.605 42.8298 167.605 42.8298 167.605 42.8298C167.605 42.8298 167.605 42.8298 167.605 42.8298C167.605 42.8298 167.605 42.8298 167.605 42.8298C167.605 42.8298 167.605 42.8298 167.605 42.8298C167.605 42.8298 167.605 42.8298 167.605 42.8298C167.605 42.8298 167.605 42.8298 167.605 42.8298C167.605 42.8298 167.605 42.8298 167.605 42.8298C167.605 42.8298 167.605 42.8298 167.605 42.8298C167.605 42.8298 167.605 42.8298 167.605 42.8298C167.605 42.8298 167.605 42.8298 167.605 42.8298C167.605 42.8298 167.605 42.8298 167.605 42.8298C167.605 42.8298 167.605 42.8298 167.605 42.8298C167.605 42.8298 167.605 42.8298 167.605 42.8298C167.605 42.8298 167.605 42.8298 167.605 42.8298C167.605 42.8298 167.605 42.8298 167.605 42.8298C167.605 42.8298 167.605 42.8298 167.605 42.8298C167.605 42.8298 167.605 42.8298 167.605 42.8298C167.605 42.8298 167.605 42.8298 167.605 42.8298C167.605 42.8298 167.605 42.8298 167.605 42.8298C167.605 42.8298 167.605 42.8298 167.605 42.8298C167.605 42.8298 167.605 42.8298 167.605 42.8298C167.605 42.8298 167.605 42.8298 167.605 42.8298C167.605 42.8298 167.605 42.8298 167.605 42.8298C167.605 42.8298 167.605 42.8298 167.605 42.8298C167.605 42.8298 167.605 42.8298 167.605 42.8298C167.605 42.8298 167.605 42.8298 167.605 42.8298C167.605 42.8298 167.605 42.8298 167.605 42.8298C167.605 42.8298 167.605 42.8298 167.605 42.8298C167.605 42.8298 167.605 42.8298 167.605 42.8298C167.605 42.8298 167.605 42.8298 167.605 42.8298C167.605 42.8298 167.605 42.8298 167.605 42.8298C167.605 42.8298 167.605 42.8298 167.605 42.8298C167.605 42.8298 167.605 42.8298 167.605 42.8298C167.605 42.8298 167.605 42.8298 167.605 42.8298C167.605 42.8298 167.605 42.8298 167.605 42.8298C167.605 42.8298 167.605 42.8298 167.605 42.8298C167.605 42.8298 167.605 42.8298 167.605 42.8298C167.605 42.8298 167.605 42.8298 167.605 42.8298C167.605 42.8298 167.605 42.8298 167.604 42.8298C167.604 42.8298 167.604 42.8298 167.604 42.8298C167.604 42.8298 167.604 42.8298 167.604 42.8298C167.604 42.8298 167.604 42.8298 167.604 42.8298C167.604 42.8298 167.604 42.8298 167.604 42.8298C167.604 42.8298 167.604 42.8298 167.604 42.8298C167.604 42.8298 167.604 42.8298 167.604 42.8298C167.604 42.8298 167.604 42.8298 167.604 42.8298C167.604 42.8298 167.604 42.8298 167.604 42.8298C167.604 42.8298 167.604 42.8298 167.604 42.8298C167.604 42.8298 167.604 42.8298 167.604 42.8298C167.604 42.8298 167.604 42.8298 167.604 42.8298C167.604 42.8298 167.604 42.8298 167.604 42.8298C167.604 42.8298 167.604 42.8298 167.604 42.8298C167.604 42.8298 167.604 42.8298 167.604 42.8298C167.604 42.8298 167.604 42.8298 167.604 42.8298C167.604 42.8298 167.604 42.8298 167.604 42.8298C167.604 42.8298 167.604 42.8298 167.604 42.8298C167.604 42.8298 167.604 42.8298 167.604 42.8298C167.604 42.8298 167.604 42.8298 167.604 42.8298C167.604 42.8298 167.604 42.8298 167.604 42.8298C167.604 42.8298 167.604 42.8298 167.604 42.8298C167.604 42.8298 167.604 42.8298 167.604 42.8298C167.604 42.8298 167.604 42.8298 167.604 42.8298C167.604 42.8298 167.604 42.8298 167.604 42.8298C167.604 42.8298 167.604 42.8298 167.604 42.8298C167.604 42.8298 167.604 42.8298 167.604 42.8298C167.604 42.8298 167.604 42.8298 167.604 42.8298C167.604 42.8298 167.604 42.8298 167.604 42.8298C167.604 42.8298 167.604 42.8298 167.604 42.8298C167.604 42.8298 167.604 42.8298 167.604 42.8298C167.604 42.8298 167.604 42.8298 167.604 42.8298C167.604 42.8298 167.604 42.8298 167.604 42.8298C167.604 42.8298 167.604 42.8298 167.604 42.8298C167.604 42.8298 167.604 42.8298 167.604 42.8298C167.604 42.8298 167.604 42.8298 167.604 42.8298C167.604 42.8298 167.604 42.8298 167.604 42.8298C167.604 42.8298 167.604 42.8298 167.604 42.8298C167.604 42.8298 167.604 42.8298 167.604 42.8298C167.604 42.8298 167.604 42.8298 167.604 42.8298C167.604 42.8298 167.604 42.8298 167.604 42.8298C167.604 42.8298 167.604 42.8298 167.604 42.8298C167.604 42.8298 167.604 42.8298 167.604 42.8298C167.604 42.8298 167.604 42.8298 167.604 42.8298C167.604 42.8298 167.604 42.8298 167.604 42.8298C167.604 42.8298 167.604 42.8298 167.604 42.8298C167.604 42.8298 167.604 42.8298 167.604 42.8298C167.604 42.8298 167.604 42.8298 167.604 42.8298C167.604 42.8298 167.604 42.8298 167.604 42.8298C167.604 42.8298 167.604 42.8298 167.604 42.8298C167.604 42.8298 167.604 42.8298 167.604 42.8298C167.604 42.8298 167.604 42.8298 167.604 42.8298C167.604 42.8298 167.604 42.8298 167.604 42.8298C167.603 42.8298 167.603 42.8298 167.603 42.8298C167.603 42.8298 167.603 42.8298 167.603 42.8298C167.603 42.8298 167.603 42.8298 167.603 42.8298C167.603 42.8298 167.603 42.8298 167.603 42.8298C167.603 42.8298 167.603 42.8298 167.603 42.8298C167.603 42.8298 167.603 42.8298 167.603 42.8298C167.603 42.8298 167.603 42.8298 167.603 42.8298C167.603 42.8298 167.603 42.8298 167.603 42.8298C167.603 42.8298 167.603 42.8298 167.603 42.8298C167.603 42.8298 167.603 42.8298 167.603 42.8298C167.603 42.8298 167.603 42.8298 167.603 42.8298C167.603 42.8298 167.603 42.8298 167.603 42.8298C167.603 42.8298 167.603 42.8298 167.603 42.8298C167.603 42.8298 167.603 42.8298 167.603 42.8298C167.603 42.8298 167.603 42.8298 167.603 42.8298C167.603 42.8298 167.603 42.8298 167.603 42.8298C167.603 42.8298 167.603 42.8298 167.603 42.8298C167.603 42.8298 167.603 42.8298 167.603 42.8298C167.603 42.8298 167.603 42.8298 167.603 42.8298C167.603 42.8298 167.603 42.8298 167.603 42.8298C167.603 42.8298 167.603 42.8298 167.603 42.8298C167.603 42.8298 167.603 42.8298 167.603 42.8298C167.603 42.8298 167.603 42.8298 167.603 42.8298C167.603 42.8298 167.603 42.8298 167.603 42.8298C167.603 42.8298 167.603 42.8298 167.603 42.8298C167.603 42.8298 167.603 42.8298 167.603 42.8298C167.603 42.8298 167.603 42.8298 167.603 42.8298C167.603 42.8298 167.603 42.8298 167.603 42.8298C167.603 42.8298 167.603 42.8298 167.603 42.8298C167.603 42.8298 167.603 42.8298 167.603 42.8298C167.603 42.8298 167.603 42.8298 167.603 42.8298C167.603 42.8298 167.603 42.8298 167.603 42.8298C167.603 42.8298 167.603 42.8298 167.603 42.8298C167.603 42.8298 167.603 42.8298 167.603 42.8298C167.603 42.8298 167.603 42.8298 167.603 42.8298C167.603 42.8298 167.603 42.8298 167.603 42.8298C167.603 42.8298 167.603 42.8298 167.603 42.8298C167.603 42.8298 167.603 42.8298 167.603 42.8298C167.603 42.8298 167.603 42.8298 167.603 42.8298C167.603 42.8298 167.603 42.8298 167.603 42.8298C167.603 42.8298 167.603 42.8298 167.603 42.8298C167.603 42.8298 167.603 42.8298 167.603 42.8298C167.603 42.8298 167.603 42.8298 167.603 42.8298C167.603 42.8298 167.603 42.8298 167.603 42.8298C167.603 42.8298 167.603 42.8298 167.603 42.8298C167.603 42.8298 167.603 42.8298 167.603 42.8298C167.603 42.8298 167.603 42.8298 167.603 42.8298C167.603 42.8298 167.603 42.8298 167.603 42.8298C167.603 42.8298 167.603 42.8298 167.603 42.8298C167.603 42.8298 167.603 42.8298 167.603 42.8298C167.603 42.8298 167.603 42.8298 167.603 42.8298C167.603 42.8298 167.603 42.8298 167.603 42.8298C167.602 42.8298 167.602 42.8298 167.602 42.8298C167.602 42.8298 167.602 42.8298 167.602 42.8298C167.602 42.8298 167.602 42.8298 167.602 42.8298C167.602 42.8298 167.602 42.8298 167.602 42.8298C167.602 42.8298 167.602 42.8298 167.602 42.8298C167.602 42.8298 167.602 42.8298 167.602 42.8298C167.602 42.8298 167.602 42.8298 167.602 42.8298C167.602 42.8298 167.602 42.8298 167.602 42.8298C167.602 42.8298 167.602 42.8298 167.602 42.8298C167.602 42.8298 167.602 42.8298 167.602 42.8298C167.602 42.8298 167.602 42.8298 167.602 42.8298C167.602 42.8298 167.602 42.8298 167.602 42.8298C167.602 42.8298 167.602 42.8298 167.602 42.8298C167.602 42.8298 167.602 42.8298 167.602 42.8298C167.602 42.8298 167.602 42.8298 167.602 42.8298C167.602 42.8298 167.602 42.8298 167.602 42.8298C167.602 42.8298 167.602 42.8298 167.602 42.8298C167.602 42.8298 167.602 42.8298 167.602 42.8298C167.602 42.8298 167.602 42.8298 167.602 42.8298C167.602 42.8298 167.602 42.8298 167.602 42.8298C167.602 42.8298 167.602 42.8298 167.602 42.8298C167.602 42.8298 167.602 42.8298 167.602 42.8298C167.602 42.8298 167.602 42.8298 167.602 42.8298C167.602 42.8298 167.602 42.8298 167.602 42.8298C167.602 42.8298 167.602 42.8298 167.602 42.8298C167.602 42.8298 167.602 42.8298 167.602 42.8298C167.602 42.8298 167.602 42.8298 167.602 42.8298C167.602 42.8298 167.602 42.8298 167.602 42.8298C167.602 42.8298 167.602 42.8298 167.602 42.8298C167.602 42.8298 167.602 42.8298 167.602 42.8298C167.602 42.8298 167.602 42.8298 167.602 42.8298C167.602 42.8298 167.602 42.8298 167.602 42.8298C167.602 42.8298 167.602 42.8298 167.602 42.8298C167.602 42.8298 167.602 42.8298 167.602 42.8298C167.602 42.8298 167.602 42.8298 167.602 42.8298C167.602 42.8298 167.602 42.8298 167.602 42.8298C167.602 42.8298 167.602 42.8298 167.602 42.8298C167.602 42.8298 167.602 42.8298 167.602 42.8298C167.602 42.8298 167.602 42.8298 167.602 42.8298C167.602 42.8298 167.602 42.8298 167.602 42.8298C167.602 42.8298 167.602 42.8298 167.602 42.8298C167.602 42.8298 167.602 42.8298 167.602 42.8298C167.602 42.8298 167.602 42.8298 167.602 42.8298C167.602 42.8298 167.602 42.8298 167.602 42.8298C167.602 42.8298 167.602 42.8298 167.602 42.8298C167.602 42.8298 167.602 42.8298 167.602 42.8298C167.602 42.8298 167.602 42.8298 167.602 42.8298C167.602 42.8298 167.602 42.8298 167.602 42.8298C167.602 42.8298 167.602 42.8298 167.602 42.8298C167.602 42.8298 167.602 42.8298 167.602 42.8298C167.602 42.8298 167.602 42.8298 167.602 42.8298C167.602 42.8298 167.602 42.8298 167.602 42.8298C167.602 42.8298 167.601 42.8298 167.601 42.8298C167.601 42.8298 167.601 42.8298 167.601 42.8298C167.601 42.8298 167.601 42.8298 167.601 42.8298C167.601 42.8298 167.601 42.8298 167.601 42.8298C167.601 42.8298 167.601 42.8298 167.601 42.8298C167.601 42.8298 167.601 42.8298 167.601 42.8298C167.601 42.8298 167.601 42.8298 167.601 42.8298C167.601 42.8298 167.601 42.8298 167.601 42.8298C167.601 42.8298 167.601 42.8298 167.601 42.8298C167.601 42.8298 167.601 42.8298 167.601 42.8298C167.601 42.8298 167.601 42.8298 167.601 42.8298C167.601 42.8298 167.601 42.8298 167.601 42.8298C167.601 42.8298 167.601 42.8298 167.601 42.8298C167.601 42.8298 167.601 42.8298 167.601 42.8298C167.601 42.8298 167.601 42.8298 167.601 42.8298C167.601 42.8298 167.601 42.8298 167.601 42.8298C167.601 42.8298 167.601 42.8298 167.601 42.8298C167.601 42.8298 167.601 42.8298 167.601 42.8298C167.601 42.8298 167.601 42.8298 167.601 42.8298C167.601 42.8298 167.601 42.8298 167.601 42.8298C167.601 42.8298 167.601 42.8298 167.601 42.8298C167.601 42.8298 167.601 42.8298 167.601 42.8298C167.601 42.8298 167.601 42.8298 167.601 42.8298C167.601 42.8298 167.601 42.8298 167.601 42.8298C167.601 42.8298 167.601 42.8298 167.601 42.8298C167.601 42.8298 167.601 42.8298 167.601 42.8298C167.601 42.8298 167.601 42.8298 167.601 42.8298C167.601 42.8298 167.601 42.8298 167.601 42.8298C167.601 42.8298 167.601 42.8298 167.601 42.8298C167.601 42.8298 167.601 42.8298 167.601 42.8298C167.601 42.8298 167.601 42.8298 167.601 42.8298C167.601 42.8298 167.601 42.8298 167.601 42.8298C167.601 42.8298 167.601 42.8298 167.601 42.8298C167.601 42.8298 167.601 42.8298 167.601 42.8298C167.601 42.8298 167.601 42.8298 167.601 42.8298C167.601 42.8298 167.601 42.8298 167.601 42.8298C167.601 42.8298 167.601 42.8298 167.601 42.8298C167.601 42.8298 167.601 42.8298 167.601 42.8298C167.601 42.8298 167.601 42.8298 167.601 42.8298C167.601 42.8298 167.601 42.8298 167.601 42.8298C167.601 42.8298 167.601 42.8298 167.601 42.8298C167.601 42.8298 167.601 42.8298 167.601 42.8298C167.601 42.8298 167.601 42.8298 167.601 42.8298C167.601 42.8298 167.601 42.8298 167.601 42.8298C167.601 42.8298 167.601 42.8298 167.601 42.8298C167.601 42.8298 167.601 42.8298 167.601 42.8298C167.601 42.8298 167.601 42.8298 167.601 42.8298C167.601 42.8298 167.601 42.8298 167.601 42.8298C167.601 42.8298 167.601 42.8298 167.601 42.8298C167.601 42.8298 167.601 42.8298 167.601 42.8298C167.601 42.8298 167.601 42.8298 167.601 42.8298C167.601 42.8298 167.601 42.8298 167.601 42.8298C167.601 42.8298 167.6 42.8298 167.6 42.8298C167.6 42.8298 167.6 42.8298 167.6 42.8298C167.6 42.8298 167.6 42.8298 167.6 42.8298C167.6 42.8298 167.6 42.8298 167.6 42.8298C167.6 42.8298 167.6 42.8298 167.6 42.8298C167.6 42.8298 167.6 42.8298 167.6 42.8298C167.6 42.8298 167.6 42.8298 167.6 42.8298C167.6 42.8298 167.6 42.8298 167.6 42.8298C167.6 42.8298 167.6 42.8298 167.6 42.8298C167.6 42.8298 167.6 42.8298 167.6 42.8298C167.6 42.8298 167.6 42.8298 167.6 42.8298C167.6 42.8298 167.6 42.8298 167.6 42.8298C167.6 42.8298 167.6 42.8298 167.6 42.8298C167.6 42.8298 167.6 42.8298 167.6 42.8298C167.6 42.8298 167.6 42.8298 167.6 42.8298C167.6 42.8298 167.6 42.8298 167.6 42.8298C167.6 42.8298 167.6 42.8298 167.6 42.8298C167.6 42.8298 167.6 42.8298 167.6 42.8298C167.6 42.8298 167.6 42.8298 167.6 42.8298C167.6 42.8298 167.6 42.8298 167.6 42.8298C167.6 42.8298 167.6 42.8298 167.6 42.8298C167.6 42.8298 167.6 42.8298 167.6 42.8298C167.6 42.8298 167.6 42.8298 167.6 42.8298C167.6 42.8298 167.6 42.8298 167.6 42.8298C167.6 42.8298 167.6 42.8298 167.6 42.8298C167.6 42.8298 167.6 42.8298 167.6 42.8298C167.6 42.8298 167.6 42.8298 167.6 42.8298C167.6 42.8298 167.6 42.8298 167.6 42.8298C167.6 42.8298 167.6 42.8298 167.6 42.8298C167.6 42.8298 167.6 42.8298 167.6 42.8298C167.6 42.8298 167.6 42.8298 167.6 42.8298C167.6 42.8298 167.6 42.8298 167.6 42.8298C167.6 42.8298 167.6 42.8298 167.6 42.8298C167.6 42.8298 167.6 42.8298 167.6 42.8298C167.6 42.8298 167.6 42.8298 167.6 42.8298C167.6 42.8298 167.6 42.8298 167.6 42.8298C167.6 42.8298 167.6 42.8298 167.6 42.8298C167.6 42.8298 167.6 42.8298 167.6 42.8298C167.6 42.8298 167.6 42.8298 167.6 42.8298C167.6 42.8298 167.6 42.8298 167.6 42.8298C167.6 42.8298 167.6 42.8298 167.6 42.8298C167.6 42.8298 167.6 42.8298 167.6 42.8298C167.6 42.8298 167.6 42.8298 167.6 42.8298C167.6 42.8298 167.6 42.8298 167.6 42.8298C167.6 42.8298 167.6 42.8298 167.6 42.8298C167.6 42.8298 167.6 42.8298 167.6 42.8298C167.6 42.8298 167.6 42.8298 167.6 42.8298C167.6 42.8298 167.6 42.8298 167.6 42.8298C167.6 42.8298 167.6 42.8298 167.6 42.8298C167.6 42.8298 167.6 42.8298 167.6 42.8298C167.6 42.8298 167.6 42.8298 167.6 42.8298C167.6 42.8298 167.6 42.8298 167.6 42.8298C167.6 42.8298 167.599 42.8298 167.599 42.8298C167.599 42.8298 167.599 42.8298 167.599 42.8298C167.599 42.8298 167.599 42.8298 167.599 42.8298C167.599 42.8298 167.599 42.8298 167.599 42.8298C167.599 42.8298 167.599 42.8298 167.599 42.8298C167.599 42.8298 167.599 42.8298 167.599 42.8298C167.599 42.8298 167.599 42.8298 167.599 42.8298C167.599 42.8298 167.599 42.8298 167.599 42.8298C167.599 42.8298 167.599 42.8298 167.599 42.8298C167.599 42.8298 167.599 42.8298 167.599 42.8298C167.599 42.8298 167.599 42.8298 167.599 42.8298C167.599 42.8298 167.599 42.8298 167.599 42.8298C167.599 42.8298 167.599 42.8298 167.599 42.8298C167.599 42.8298 167.599 42.8298 167.599 42.8298C167.599 42.8298 167.599 42.8298 167.599 42.8298C167.599 42.8298 167.599 42.8298 167.599 42.8298C167.599 42.8298 167.599 42.8298 167.599 42.8298C167.599 42.8298 167.599 42.8298 167.599 42.8298C167.599 42.8298 167.599 42.8298 167.599 42.8298C167.599 42.8298 167.599 42.8298 167.599 42.8298C167.599 42.8298 167.599 42.8298 167.599 42.8298C167.599 42.8298 167.599 42.8298 167.599 42.8298C167.599 42.8298 167.599 42.8298 167.599 42.8298C167.599 42.8298 167.599 42.8298 167.599 42.8298C167.599 42.8298 167.599 42.8298 167.599 42.8298C167.599 42.8298 167.599 42.8298 167.599 42.8298C167.599 42.8298 167.599 42.8298 167.599 42.8298C167.599 42.8298 167.599 42.8298 167.599 42.8298C167.599 42.8298 167.599 42.8298 167.599 42.8298C167.599 42.8298 167.599 42.8298 167.599 42.8298C167.599 42.8298 167.599 42.8298 167.599 42.8298C167.599 42.8298 167.599 42.8298 167.599 42.8298C167.599 42.8298 167.599 42.8298 167.599 42.8298C167.599 42.8298 167.599 42.8298 167.599 42.8298C167.599 42.8298 167.599 42.8298 167.599 42.8298C167.599 42.8298 167.599 42.8298 167.599 42.8298C167.599 42.8298 167.599 42.8298 167.599 42.8298C167.599 42.8298 167.599 42.8298 167.599 42.8298C167.599 42.8298 167.599 42.8298 167.599 42.8298C167.599 42.8298 167.599 42.8298 167.599 42.8298C167.599 42.8298 167.599 42.8298 167.599 42.8298C167.599 42.8298 167.599 42.8298 167.599 42.8298C167.599 42.8298 167.599 42.8298 167.599 42.8298C167.599 42.8298 167.599 42.8298 167.599 42.8298C167.599 42.8298 167.599 42.8298 167.599 42.8298C167.599 42.8298 167.599 42.8298 167.599 42.8298C167.599 42.8298 167.599 42.8298 167.599 42.8298C167.599 42.8298 167.599 42.8298 167.599 42.8298C167.599 42.8298 167.599 42.8298 167.599 42.8298C167.599 42.8298 167.599 42.8298 167.599 42.8298C167.599 42.8298 167.599 42.8298 167.599 42.8298C167.599 42.8298 167.599 42.8298 167.599 42.8298C167.599 42.8298 167.598 42.8298 167.598 42.8298C167.598 42.8298 167.598 42.8298 167.598 42.8298C167.598 42.8298 167.598 42.8298 167.598 42.8298C167.598 42.8298 167.598 42.8298 167.598 42.8298C167.598 42.8298 167.598 42.8298 167.598 42.8298C167.598 42.8298 167.598 42.8298 167.598 42.8298C167.598 42.8298 167.598 42.8298 167.598 42.8298C167.598 42.8298 167.598 42.8298 167.598 42.8298C167.598 42.8298 167.598 42.8298 167.598 42.8298C167.598 42.8298 167.598 42.8298 167.598 42.8298C167.598 42.8298 167.598 42.8298 167.598 42.8298C167.598 42.8298 167.598 42.8298 167.598 42.8298C167.598 42.8298 167.598 42.8298 167.598 42.8298C167.598 42.8298 167.598 42.8298 167.598 42.8298C167.598 42.8298 167.598 42.8298 167.598 42.8298C167.598 42.8298 167.598 42.8298 167.598 42.8298C167.598 42.8298 167.598 42.8298 167.598 42.8298C167.598 42.8298 167.598 42.8298 167.598 42.8298C167.598 42.8298 167.598 42.8298 167.598 42.8298C167.598 42.8298 167.598 42.8298 167.598 42.8298C167.598 42.8298 167.598 42.8298 167.598 42.8298C167.598 42.8298 167.598 42.8298 167.598 42.8298C167.598 42.8298 167.598 42.8298 167.598 42.8298C167.598 42.8298 167.598 42.8298 167.598 42.8298C167.598 42.8298 167.598 42.8298 167.598 42.8298C167.598 42.8298 167.598 42.8298 167.598 42.8298C167.598 42.8298 167.598 42.8298 167.598 42.8298C167.598 42.8298 167.598 42.8298 167.598 42.8298C167.598 42.8298 167.598 42.8298 167.598 42.8298C167.598 42.8298 167.598 42.8298 167.598 42.8298C167.598 42.8298 167.598 42.8298 167.598 42.8298C167.598 42.8298 167.598 42.8298 167.598 42.8298C167.598 42.8298 167.598 42.8298 167.598 42.8298C167.598 42.8298 167.598 42.8298 167.598 42.8298C167.598 42.8298 167.598 42.8298 167.598 42.8298C167.598 42.8298 167.598 42.8298 167.598 42.8298C167.598 42.8298 167.598 42.8298 167.598 42.8298C167.598 42.8298 167.598 42.8298 167.598 42.8298C167.598 42.8298 167.598 42.8298 167.598 42.8298C167.598 42.8298 167.598 42.8298 167.598 42.8298C167.598 42.8298 167.598 42.8298 167.598 42.8298C167.598 42.8298 167.598 42.8298 167.598 42.8298C167.598 42.8298 167.598 42.8298 167.598 42.8298C167.598 42.8298 167.598 42.8298 167.598 42.8298C167.598 42.8298 167.598 42.8298 167.598 42.8298C167.598 42.8298 167.598 42.8298 167.598 42.8298C167.598 42.8298 167.598 42.8298 167.598 42.8298C167.598 42.8298 167.598 42.8298 167.598 42.8298C167.598 42.8298 167.598 42.8298 167.598 42.8298C167.598 42.8298 167.598 42.8298 167.598 42.8298C167.598 42.8298 167.598 42.8298 167.598 42.8298C167.598 42.8298 167.598 42.8298 167.597 42.8298C167.597 42.8298 167.597 42.8298 167.597 42.8298C167.597 42.8298 167.597 42.8298 167.597 42.8298C167.597 42.8298 167.597 42.8298 167.597 42.8298C167.597 42.8298 167.597 42.8298 167.597 42.8298C167.597 42.8298 167.597 42.8298 167.597 42.8298C167.597 42.8298 167.597 42.8298 167.597 42.8298C167.597 42.8298 167.597 42.8298 167.597 42.8298C167.597 42.8298 167.597 42.8298 167.597 42.8298C167.597 42.8298 167.597 42.8298 167.597 42.8298C167.597 42.8298 167.597 42.8298 167.597 42.8298C167.597 42.8298 167.597 42.8298 167.597 42.8298C167.597 42.8298 167.597 42.8298 167.597 42.8298C167.597 42.8298 167.597 42.8298 167.597 42.8298C167.597 42.8298 167.597 42.8298 167.597 42.8298C167.597 42.8298 167.597 42.8298 167.597 42.8298C167.597 42.8298 167.597 42.8298 167.597 42.8298C167.597 42.8298 167.597 42.8298 167.597 42.8298C167.597 42.8298 167.597 42.8298 167.597 42.8298C167.597 42.8298 167.597 42.8298 167.597 42.8298C167.597 42.8298 167.597 42.8298 167.597 42.8298C167.597 42.8298 167.597 42.8298 167.597 42.8298C167.597 42.8298 167.597 42.8298 167.597 42.8298C167.597 42.8298 167.597 42.8298 167.597 42.8298C167.597 42.8298 167.597 42.8298 167.597 42.8298C167.597 42.8298 167.597 42.8298 167.597 42.8298C167.597 42.8298 167.597 42.8298 167.597 42.8298C167.597 42.8298 167.597 42.8298 167.597 42.8298C167.597 42.8298 167.597 42.8298 167.597 42.8298C167.597 42.8298 167.597 42.8298 167.597 42.8298C167.597 42.8298 167.597 42.8298 167.597 42.8298C167.597 42.8298 167.597 42.8298 167.597 42.8298C167.597 42.8298 167.597 42.8298 167.597 42.8298C167.597 42.8298 167.597 42.8298 167.597 42.8298C167.597 42.8298 167.597 42.8298 167.597 42.8298C167.597 42.8298 167.597 42.8298 167.597 42.8298C167.597 42.8298 167.597 42.8298 167.597 42.8298C167.597 42.8298 167.597 42.8298 167.597 42.8298C167.597 42.8298 167.597 42.8298 167.597 42.8298C167.597 42.8298 167.597 42.8298 167.597 42.8298C167.597 42.8298 167.597 42.8298 167.597 42.8298C167.597 42.8298 167.597 42.8298 167.597 42.8298C167.597 42.8298 167.597 42.8298 167.597 42.8298C167.597 42.8298 167.597 42.8298 167.597 42.8298C167.597 42.8298 167.597 42.8298 167.597 42.8298C167.597 42.8298 167.597 42.8298 167.597 42.8298C167.597 42.8298 167.597 42.8298 167.597 42.8298C167.597 42.8298 167.597 42.8298 167.597 42.8298C167.597 42.8298 167.597 42.8298 167.597 42.8298C167.597 42.8298 167.597 42.8298 167.597 42.8298C167.597 42.8298 167.597 42.8298 167.597 42.8298C167.597 42.8298 167.597 42.8298 167.597 42.8298V45.4574C167.597 45.4574 167.597 45.4574 167.597 45.4574C167.597 45.4574 167.597 45.4574 167.597 45.4574C167.597 45.4574 167.597 45.4574 167.597 45.4574C167.597 45.4574 167.597 45.4574 167.597 45.4574C167.597 45.4574 167.597 45.4574 167.597 45.4574C167.597 45.4574 167.597 45.4574 167.597 45.4574C167.597 45.4574 167.597 45.4574 167.597 45.4574C167.597 45.4574 167.597 45.4574 167.597 45.4574C167.597 45.4574 167.597 45.4574 167.597 45.4574C167.597 45.4574 167.597 45.4574 167.597 45.4574C167.597 45.4574 167.597 45.4574 167.597 45.4574C167.597 45.4574 167.597 45.4574 167.597 45.4574C167.597 45.4574 167.597 45.4574 167.597 45.4574C167.597 45.4574 167.597 45.4574 167.597 45.4574C167.597 45.4574 167.597 45.4574 167.597 45.4574C167.597 45.4574 167.597 45.4574 167.597 45.4574C167.597 45.4574 167.597 45.4574 167.597 45.4574C167.597 45.4574 167.597 45.4574 167.597 45.4574C167.597 45.4574 167.597 45.4574 167.597 45.4574C167.597 45.4574 167.597 45.4574 167.597 45.4574C167.597 45.4574 167.597 45.4574 167.597 45.4574C167.597 45.4574 167.597 45.4574 167.597 45.4574C167.597 45.4574 167.597 45.4574 167.597 45.4574C167.597 45.4574 167.597 45.4574 167.597 45.4574C167.597 45.4574 167.597 45.4574 167.597 45.4574C167.597 45.4574 167.597 45.4574 167.597 45.4574C167.597 45.4574 167.597 45.4574 167.597 45.4574C167.597 45.4574 167.597 45.4574 167.597 45.4574C167.597 45.4574 167.597 45.4574 167.597 45.4574C167.597 45.4574 167.597 45.4574 167.597 45.4574C167.597 45.4574 167.597 45.4574 167.597 45.4574C167.597 45.4574 167.597 45.4574 167.597 45.4574C167.597 45.4574 167.597 45.4574 167.597 45.4574C167.597 45.4574 167.597 45.4574 167.597 45.4574C167.597 45.4574 167.597 45.4574 167.597 45.4574C167.597 45.4574 167.597 45.4574 167.597 45.4574C167.597 45.4574 167.597 45.4574 167.597 45.4574C167.597 45.4574 167.597 45.4574 167.597 45.4574C167.597 45.4574 167.597 45.4574 167.597 45.4574C167.597 45.4574 167.597 45.4574 167.597 45.4574C167.597 45.4574 167.597 45.4574 167.597 45.4574C167.597 45.4574 167.597 45.4574 167.597 45.4574C167.597 45.4574 167.597 45.4574 167.597 45.4574C167.597 45.4574 167.597 45.4574 167.597 45.4574C167.597 45.4574 167.597 45.4574 167.597 45.4574C167.597 45.4574 167.597 45.4574 167.597 45.4574C167.597 45.4574 167.597 45.4574 167.597 45.4574C167.597 45.4574 167.597 45.4574 167.597 45.4574C167.597 45.4574 167.597 45.4574 167.597 45.4574C167.597 45.4574 167.597 45.4574 167.597 45.4574C167.597 45.4574 167.597 45.4574 167.597 45.4574C167.598 45.4574 167.598 45.4574 167.598 45.4574C167.598 45.4574 167.598 45.4574 167.598 45.4574C167.598 45.4574 167.598 45.4574 167.598 45.4574C167.598 45.4574 167.598 45.4574 167.598 45.4574C167.598 45.4574 167.598 45.4574 167.598 45.4574C167.598 45.4574 167.598 45.4574 167.598 45.4574C167.598 45.4574 167.598 45.4574 167.598 45.4574C167.598 45.4574 167.598 45.4574 167.598 45.4574C167.598 45.4574 167.598 45.4574 167.598 45.4574C167.598 45.4574 167.598 45.4574 167.598 45.4574C167.598 45.4574 167.598 45.4574 167.598 45.4574C167.598 45.4574 167.598 45.4574 167.598 45.4574C167.598 45.4574 167.598 45.4574 167.598 45.4574C167.598 45.4574 167.598 45.4574 167.598 45.4574C167.598 45.4574 167.598 45.4574 167.598 45.4574C167.598 45.4574 167.598 45.4574 167.598 45.4574C167.598 45.4574 167.598 45.4574 167.598 45.4574C167.598 45.4574 167.598 45.4574 167.598 45.4574C167.598 45.4574 167.598 45.4574 167.598 45.4574C167.598 45.4574 167.598 45.4574 167.598 45.4574C167.598 45.4574 167.598 45.4574 167.598 45.4574C167.598 45.4574 167.598 45.4574 167.598 45.4574C167.598 45.4574 167.598 45.4574 167.598 45.4574C167.598 45.4574 167.598 45.4574 167.598 45.4574C167.598 45.4574 167.598 45.4574 167.598 45.4574C167.598 45.4574 167.598 45.4574 167.598 45.4574C167.598 45.4574 167.598 45.4574 167.598 45.4574C167.598 45.4574 167.598 45.4574 167.598 45.4574C167.598 45.4574 167.598 45.4574 167.598 45.4574C167.598 45.4574 167.598 45.4574 167.598 45.4574C167.598 45.4574 167.598 45.4574 167.598 45.4574C167.598 45.4574 167.598 45.4574 167.598 45.4574C167.598 45.4574 167.598 45.4574 167.598 45.4574C167.598 45.4574 167.598 45.4574 167.598 45.4574C167.598 45.4574 167.598 45.4574 167.598 45.4574C167.598 45.4574 167.598 45.4574 167.598 45.4574C167.598 45.4574 167.598 45.4574 167.598 45.4574C167.598 45.4574 167.598 45.4574 167.598 45.4574C167.598 45.4574 167.598 45.4574 167.598 45.4574C167.598 45.4574 167.598 45.4574 167.598 45.4574C167.598 45.4574 167.598 45.4574 167.598 45.4574C167.598 45.4574 167.598 45.4574 167.598 45.4574C167.598 45.4574 167.598 45.4574 167.598 45.4574C167.598 45.4574 167.598 45.4574 167.598 45.4574C167.598 45.4574 167.598 45.4574 167.598 45.4574C167.598 45.4574 167.598 45.4574 167.598 45.4574C167.598 45.4574 167.598 45.4574 167.598 45.4574C167.598 45.4574 167.598 45.4574 167.598 45.4574C167.598 45.4574 167.598 45.4574 167.598 45.4574C167.598 45.4574 167.598 45.4574 167.598 45.4574C167.598 45.4574 167.598 45.4574 167.598 45.4574C167.598 45.4574 167.599 45.4574 167.599 45.4574C167.599 45.4574 167.599 45.4574 167.599 45.4574C167.599 45.4574 167.599 45.4574 167.599 45.4574C167.599 45.4574 167.599 45.4574 167.599 45.4574C167.599 45.4574 167.599 45.4574 167.599 45.4574C167.599 45.4574 167.599 45.4574 167.599 45.4574C167.599 45.4574 167.599 45.4574 167.599 45.4574C167.599 45.4574 167.599 45.4574 167.599 45.4574C167.599 45.4574 167.599 45.4574 167.599 45.4574C167.599 45.4574 167.599 45.4574 167.599 45.4574C167.599 45.4574 167.599 45.4574 167.599 45.4574C167.599 45.4574 167.599 45.4574 167.599 45.4574C167.599 45.4574 167.599 45.4574 167.599 45.4574C167.599 45.4574 167.599 45.4574 167.599 45.4574C167.599 45.4574 167.599 45.4574 167.599 45.4574C167.599 45.4574 167.599 45.4574 167.599 45.4574C167.599 45.4574 167.599 45.4574 167.599 45.4574C167.599 45.4574 167.599 45.4574 167.599 45.4574C167.599 45.4574 167.599 45.4574 167.599 45.4574C167.599 45.4574 167.599 45.4574 167.599 45.4574C167.599 45.4574 167.599 45.4574 167.599 45.4574C167.599 45.4574 167.599 45.4574 167.599 45.4574C167.599 45.4574 167.599 45.4574 167.599 45.4574C167.599 45.4574 167.599 45.4574 167.599 45.4574C167.599 45.4574 167.599 45.4574 167.599 45.4574C167.599 45.4574 167.599 45.4574 167.599 45.4574C167.599 45.4574 167.599 45.4574 167.599 45.4574C167.599 45.4574 167.599 45.4574 167.599 45.4574C167.599 45.4574 167.599 45.4574 167.599 45.4574C167.599 45.4574 167.599 45.4574 167.599 45.4574C167.599 45.4574 167.599 45.4574 167.599 45.4574C167.599 45.4574 167.599 45.4574 167.599 45.4574C167.599 45.4574 167.599 45.4574 167.599 45.4574C167.599 45.4574 167.599 45.4574 167.599 45.4574C167.599 45.4574 167.599 45.4574 167.599 45.4574C167.599 45.4574 167.599 45.4574 167.599 45.4574C167.599 45.4574 167.599 45.4574 167.599 45.4574C167.599 45.4574 167.599 45.4574 167.599 45.4574C167.599 45.4574 167.599 45.4574 167.599 45.4574C167.599 45.4574 167.599 45.4574 167.599 45.4574C167.599 45.4574 167.599 45.4574 167.599 45.4574C167.599 45.4574 167.599 45.4574 167.599 45.4574C167.599 45.4574 167.599 45.4574 167.599 45.4574C167.599 45.4574 167.599 45.4574 167.599 45.4574C167.599 45.4574 167.599 45.4574 167.599 45.4574C167.599 45.4574 167.599 45.4574 167.599 45.4574C167.599 45.4574 167.599 45.4574 167.599 45.4574C167.599 45.4574 167.599 45.4574 167.599 45.4574C167.599 45.4574 167.599 45.4574 167.599 45.4574C167.599 45.4574 167.599 45.4574 167.599 45.4574C167.599 45.4574 167.599 45.4574 167.599 45.4574C167.599 45.4574 167.599 45.4574 167.599 45.4574C167.599 45.4574 167.6 45.4574 167.6 45.4574C167.6 45.4574 167.6 45.4574 167.6 45.4574C167.6 45.4574 167.6 45.4574 167.6 45.4574C167.6 45.4574 167.6 45.4574 167.6 45.4574C167.6 45.4574 167.6 45.4574 167.6 45.4574C167.6 45.4574 167.6 45.4574 167.6 45.4574C167.6 45.4574 167.6 45.4574 167.6 45.4574C167.6 45.4574 167.6 45.4574 167.6 45.4574C167.6 45.4574 167.6 45.4574 167.6 45.4574C167.6 45.4574 167.6 45.4574 167.6 45.4574C167.6 45.4574 167.6 45.4574 167.6 45.4574C167.6 45.4574 167.6 45.4574 167.6 45.4574C167.6 45.4574 167.6 45.4574 167.6 45.4574C167.6 45.4574 167.6 45.4574 167.6 45.4574C167.6 45.4574 167.6 45.4574 167.6 45.4574C167.6 45.4574 167.6 45.4574 167.6 45.4574C167.6 45.4574 167.6 45.4574 167.6 45.4574C167.6 45.4574 167.6 45.4574 167.6 45.4574C167.6 45.4574 167.6 45.4574 167.6 45.4574C167.6 45.4574 167.6 45.4574 167.6 45.4574C167.6 45.4574 167.6 45.4574 167.6 45.4574C167.6 45.4574 167.6 45.4574 167.6 45.4574C167.6 45.4574 167.6 45.4574 167.6 45.4574C167.6 45.4574 167.6 45.4574 167.6 45.4574C167.6 45.4574 167.6 45.4574 167.6 45.4574C167.6 45.4574 167.6 45.4574 167.6 45.4574C167.6 45.4574 167.6 45.4574 167.6 45.4574C167.6 45.4574 167.6 45.4574 167.6 45.4574C167.6 45.4574 167.6 45.4574 167.6 45.4574C167.6 45.4574 167.6 45.4574 167.6 45.4574C167.6 45.4574 167.6 45.4574 167.6 45.4574C167.6 45.4574 167.6 45.4574 167.6 45.4574C167.6 45.4574 167.6 45.4574 167.6 45.4574C167.6 45.4574 167.6 45.4574 167.6 45.4574C167.6 45.4574 167.6 45.4574 167.6 45.4574C167.6 45.4574 167.6 45.4574 167.6 45.4574C167.6 45.4574 167.6 45.4574 167.6 45.4574C167.6 45.4574 167.6 45.4574 167.6 45.4574C167.6 45.4574 167.6 45.4574 167.6 45.4574C167.6 45.4574 167.6 45.4574 167.6 45.4574C167.6 45.4574 167.6 45.4574 167.6 45.4574C167.6 45.4574 167.6 45.4574 167.6 45.4574C167.6 45.4574 167.6 45.4574 167.6 45.4574C167.6 45.4574 167.6 45.4574 167.6 45.4574C167.6 45.4574 167.6 45.4574 167.6 45.4574C167.6 45.4574 167.6 45.4574 167.6 45.4574C167.6 45.4574 167.6 45.4574 167.6 45.4574C167.6 45.4574 167.6 45.4574 167.6 45.4574C167.6 45.4574 167.6 45.4574 167.6 45.4574C167.6 45.4574 167.6 45.4574 167.6 45.4574C167.6 45.4574 167.6 45.4574 167.6 45.4574C167.6 45.4574 167.6 45.4574 167.6 45.4574C167.6 45.4574 167.601 45.4574 167.601 45.4574C167.601 45.4574 167.601 45.4574 167.601 45.4574C167.601 45.4574 167.601 45.4574 167.601 45.4574C167.601 45.4574 167.601 45.4574 167.601 45.4574C167.601 45.4574 167.601 45.4574 167.601 45.4574C167.601 45.4574 167.601 45.4574 167.601 45.4574C167.601 45.4574 167.601 45.4574 167.601 45.4574C167.601 45.4574 167.601 45.4574 167.601 45.4574C167.601 45.4574 167.601 45.4574 167.601 45.4574C167.601 45.4574 167.601 45.4574 167.601 45.4574C167.601 45.4574 167.601 45.4574 167.601 45.4574C167.601 45.4574 167.601 45.4574 167.601 45.4574C167.601 45.4574 167.601 45.4574 167.601 45.4574C167.601 45.4574 167.601 45.4574 167.601 45.4574C167.601 45.4574 167.601 45.4574 167.601 45.4574C167.601 45.4574 167.601 45.4574 167.601 45.4574C167.601 45.4574 167.601 45.4574 167.601 45.4574C167.601 45.4574 167.601 45.4574 167.601 45.4574C167.601 45.4574 167.601 45.4574 167.601 45.4574C167.601 45.4574 167.601 45.4574 167.601 45.4574C167.601 45.4574 167.601 45.4574 167.601 45.4574C167.601 45.4574 167.601 45.4574 167.601 45.4574C167.601 45.4574 167.601 45.4574 167.601 45.4574C167.601 45.4574 167.601 45.4574 167.601 45.4574C167.601 45.4574 167.601 45.4574 167.601 45.4574C167.601 45.4574 167.601 45.4574 167.601 45.4574C167.601 45.4574 167.601 45.4574 167.601 45.4574C167.601 45.4574 167.601 45.4574 167.601 45.4574C167.601 45.4574 167.601 45.4574 167.601 45.4574C167.601 45.4574 167.601 45.4574 167.601 45.4574C167.601 45.4574 167.601 45.4574 167.601 45.4574C167.601 45.4574 167.601 45.4574 167.601 45.4574C167.601 45.4574 167.601 45.4574 167.601 45.4574C167.601 45.4574 167.601 45.4574 167.601 45.4574C167.601 45.4574 167.601 45.4574 167.601 45.4574C167.601 45.4574 167.601 45.4574 167.601 45.4574C167.601 45.4574 167.601 45.4574 167.601 45.4574C167.601 45.4574 167.601 45.4574 167.601 45.4574C167.601 45.4574 167.601 45.4574 167.601 45.4574C167.601 45.4574 167.601 45.4574 167.601 45.4574C167.601 45.4574 167.601 45.4574 167.601 45.4574C167.601 45.4574 167.601 45.4574 167.601 45.4574C167.601 45.4574 167.601 45.4574 167.601 45.4574C167.601 45.4574 167.601 45.4574 167.601 45.4574C167.601 45.4574 167.601 45.4574 167.601 45.4574C167.601 45.4574 167.601 45.4574 167.601 45.4574C167.601 45.4574 167.601 45.4574 167.601 45.4574C167.601 45.4574 167.601 45.4574 167.601 45.4574C167.601 45.4574 167.601 45.4574 167.601 45.4574C167.601 45.4574 167.601 45.4574 167.601 45.4574C167.601 45.4574 167.601 45.4574 167.601 45.4574C167.601 45.4574 167.601 45.4574 167.601 45.4574C167.601 45.4574 167.602 45.4574 167.602 45.4574C167.602 45.4574 167.602 45.4574 167.602 45.4574C167.602 45.4574 167.602 45.4574 167.602 45.4574C167.602 45.4574 167.602 45.4574 167.602 45.4574C167.602 45.4574 167.602 45.4574 167.602 45.4574C167.602 45.4574 167.602 45.4574 167.602 45.4574C167.602 45.4574 167.602 45.4574 167.602 45.4574C167.602 45.4574 167.602 45.4574 167.602 45.4574C167.602 45.4574 167.602 45.4574 167.602 45.4574C167.602 45.4574 167.602 45.4574 167.602 45.4574C167.602 45.4574 167.602 45.4574 167.602 45.4574C167.602 45.4574 167.602 45.4574 167.602 45.4574C167.602 45.4574 167.602 45.4574 167.602 45.4574C167.602 45.4574 167.602 45.4574 167.602 45.4574C167.602 45.4574 167.602 45.4574 167.602 45.4574C167.602 45.4574 167.602 45.4574 167.602 45.4574C167.602 45.4574 167.602 45.4574 167.602 45.4574C167.602 45.4574 167.602 45.4574 167.602 45.4574C167.602 45.4574 167.602 45.4574 167.602 45.4574C167.602 45.4574 167.602 45.4574 167.602 45.4574C167.602 45.4574 167.602 45.4574 167.602 45.4574C167.602 45.4574 167.602 45.4574 167.602 45.4574C167.602 45.4574 167.602 45.4574 167.602 45.4574C167.602 45.4574 167.602 45.4574 167.602 45.4574C167.602 45.4574 167.602 45.4574 167.602 45.4574C167.602 45.4574 167.602 45.4574 167.602 45.4574C167.602 45.4574 167.602 45.4574 167.602 45.4574C167.602 45.4574 167.602 45.4574 167.602 45.4574C167.602 45.4574 167.602 45.4574 167.602 45.4574C167.602 45.4574 167.602 45.4574 167.602 45.4574C167.602 45.4574 167.602 45.4574 167.602 45.4574C167.602 45.4574 167.602 45.4574 167.602 45.4574C167.602 45.4574 167.602 45.4574 167.602 45.4574C167.602 45.4574 167.602 45.4574 167.602 45.4574C167.602 45.4574 167.602 45.4574 167.602 45.4574C167.602 45.4574 167.602 45.4574 167.602 45.4574C167.602 45.4574 167.602 45.4574 167.602 45.4574C167.602 45.4574 167.602 45.4574 167.602 45.4574C167.602 45.4574 167.602 45.4574 167.602 45.4574C167.602 45.4574 167.602 45.4574 167.602 45.4574C167.602 45.4574 167.602 45.4574 167.602 45.4574C167.602 45.4574 167.602 45.4574 167.602 45.4574C167.602 45.4574 167.602 45.4574 167.602 45.4574C167.602 45.4574 167.602 45.4574 167.602 45.4574C167.602 45.4574 167.602 45.4574 167.602 45.4574C167.602 45.4574 167.602 45.4574 167.602 45.4574C167.602 45.4574 167.602 45.4574 167.602 45.4574C167.602 45.4574 167.602 45.4574 167.602 45.4574C167.602 45.4574 167.602 45.4574 167.602 45.4574C167.602 45.4574 167.602 45.4574 167.602 45.4574C167.602 45.4574 167.602 45.4574 167.602 45.4574C167.602 45.4574 167.602 45.4574 167.602 45.4574C167.602 45.4574 167.602 45.4574 167.603 45.4574C167.603 45.4574 167.603 45.4574 167.603 45.4574C167.603 45.4574 167.603 45.4574 167.603 45.4574C167.603 45.4574 167.603 45.4574 167.603 45.4574C167.603 45.4574 167.603 45.4574 167.603 45.4574C167.603 45.4574 167.603 45.4574 167.603 45.4574C167.603 45.4574 167.603 45.4574 167.603 45.4574C167.603 45.4574 167.603 45.4574 167.603 45.4574C167.603 45.4574 167.603 45.4574 167.603 45.4574C167.603 45.4574 167.603 45.4574 167.603 45.4574C167.603 45.4574 167.603 45.4574 167.603 45.4574C167.603 45.4574 167.603 45.4574 167.603 45.4574C167.603 45.4574 167.603 45.4574 167.603 45.4574C167.603 45.4574 167.603 45.4574 167.603 45.4574C167.603 45.4574 167.603 45.4574 167.603 45.4574C167.603 45.4574 167.603 45.4574 167.603 45.4574C167.603 45.4574 167.603 45.4574 167.603 45.4574C167.603 45.4574 167.603 45.4574 167.603 45.4574C167.603 45.4574 167.603 45.4574 167.603 45.4574C167.603 45.4574 167.603 45.4574 167.603 45.4574C167.603 45.4574 167.603 45.4574 167.603 45.4574C167.603 45.4574 167.603 45.4574 167.603 45.4574C167.603 45.4574 167.603 45.4574 167.603 45.4574C167.603 45.4574 167.603 45.4574 167.603 45.4574C167.603 45.4574 167.603 45.4574 167.603 45.4574C167.603 45.4574 167.603 45.4574 167.603 45.4574C167.603 45.4574 167.603 45.4574 167.603 45.4574C167.603 45.4574 167.603 45.4574 167.603 45.4574C167.603 45.4574 167.603 45.4574 167.603 45.4574C167.603 45.4574 167.603 45.4574 167.603 45.4574C167.603 45.4574 167.603 45.4574 167.603 45.4574C167.603 45.4574 167.603 45.4574 167.603 45.4574C167.603 45.4574 167.603 45.4574 167.603 45.4574C167.603 45.4574 167.603 45.4574 167.603 45.4574C167.603 45.4574 167.603 45.4574 167.603 45.4574C167.603 45.4574 167.603 45.4574 167.603 45.4574C167.603 45.4574 167.603 45.4574 167.603 45.4574C167.603 45.4574 167.603 45.4574 167.603 45.4574C167.603 45.4574 167.603 45.4574 167.603 45.4574C167.603 45.4574 167.603 45.4574 167.603 45.4574C167.603 45.4574 167.603 45.4574 167.603 45.4574C167.603 45.4574 167.603 45.4574 167.603 45.4574C167.603 45.4574 167.603 45.4574 167.603 45.4574C167.603 45.4574 167.603 45.4574 167.603 45.4574C167.603 45.4574 167.603 45.4574 167.603 45.4574C167.603 45.4574 167.603 45.4574 167.603 45.4574C167.603 45.4574 167.603 45.4574 167.603 45.4574C167.603 45.4574 167.603 45.4574 167.603 45.4574C167.603 45.4574 167.603 45.4574 167.603 45.4574C167.603 45.4574 167.603 45.4574 167.603 45.4574C167.603 45.4574 167.603 45.4574 167.603 45.4574C167.603 45.4574 167.603 45.4574 167.603 45.4574C167.603 45.4574 167.603 45.4574 167.604 45.4574C167.604 45.4574 167.604 45.4574 167.604 45.4574C167.604 45.4574 167.604 45.4574 167.604 45.4574C167.604 45.4574 167.604 45.4574 167.604 45.4574C167.604 45.4574 167.604 45.4574 167.604 45.4574C167.604 45.4574 167.604 45.4574 167.604 45.4574C167.604 45.4574 167.604 45.4574 167.604 45.4574C167.604 45.4574 167.604 45.4574 167.604 45.4574C167.604 45.4574 167.604 45.4574 167.604 45.4574C167.604 45.4574 167.604 45.4574 167.604 45.4574C167.604 45.4574 167.604 45.4574 167.604 45.4574C167.604 45.4574 167.604 45.4574 167.604 45.4574C167.604 45.4574 167.604 45.4574 167.604 45.4574C167.604 45.4574 167.604 45.4574 167.604 45.4574C167.604 45.4574 167.604 45.4574 167.604 45.4574C167.604 45.4574 167.604 45.4574 167.604 45.4574C167.604 45.4574 167.604 45.4574 167.604 45.4574C167.604 45.4574 167.604 45.4574 167.604 45.4574C167.604 45.4574 167.604 45.4574 167.604 45.4574C167.604 45.4574 167.604 45.4574 167.604 45.4574C167.604 45.4574 167.604 45.4574 167.604 45.4574C167.604 45.4574 167.604 45.4574 167.604 45.4574C167.604 45.4574 167.604 45.4574 167.604 45.4574C167.604 45.4574 167.604 45.4574 167.604 45.4574C167.604 45.4574 167.604 45.4574 167.604 45.4574C167.604 45.4574 167.604 45.4574 167.604 45.4574C167.604 45.4574 167.604 45.4574 167.604 45.4574C167.604 45.4574 167.604 45.4574 167.604 45.4574C167.604 45.4574 167.604 45.4574 167.604 45.4574C167.604 45.4574 167.604 45.4574 167.604 45.4574C167.604 45.4574 167.604 45.4574 167.604 45.4574C167.604 45.4574 167.604 45.4574 167.604 45.4574C167.604 45.4574 167.604 45.4574 167.604 45.4574C167.604 45.4574 167.604 45.4574 167.604 45.4574C167.604 45.4574 167.604 45.4574 167.604 45.4574C167.604 45.4574 167.604 45.4574 167.604 45.4574C167.604 45.4574 167.604 45.4574 167.604 45.4574C167.604 45.4574 167.604 45.4574 167.604 45.4574C167.604 45.4574 167.604 45.4574 167.604 45.4574C167.604 45.4574 167.604 45.4574 167.604 45.4574C167.604 45.4574 167.604 45.4574 167.604 45.4574C167.604 45.4574 167.604 45.4574 167.604 45.4574C167.604 45.4574 167.604 45.4574 167.604 45.4574C167.604 45.4574 167.604 45.4574 167.604 45.4574C167.604 45.4574 167.604 45.4574 167.604 45.4574C167.604 45.4574 167.604 45.4574 167.604 45.4574C167.604 45.4574 167.604 45.4574 167.604 45.4574C167.604 45.4574 167.604 45.4574 167.604 45.4574C167.604 45.4574 167.604 45.4574 167.604 45.4574C167.604 45.4574 167.604 45.4574 167.604 45.4574C167.604 45.4574 167.604 45.4574 167.604 45.4574C167.604 45.4574 167.604 45.4574 167.604 45.4574C167.604 45.4574 167.604 45.4574 167.604 45.4574C167.605 45.4574 167.605 45.4574 167.605 45.4574C167.605 45.4574 167.605 45.4574 167.605 45.4574C167.605 45.4574 167.605 45.4574 167.605 45.4574C167.605 45.4574 167.605 45.4574 167.605 45.4574C167.605 45.4574 167.605 45.4574 167.605 45.4574C167.605 45.4574 167.605 45.4574 167.605 45.4574C167.605 45.4574 167.605 45.4574 167.605 45.4574C167.605 45.4574 167.605 45.4574 167.605 45.4574C167.605 45.4574 167.605 45.4574 167.605 45.4574C167.605 45.4574 167.605 45.4574 167.605 45.4574C167.605 45.4574 167.605 45.4574 167.605 45.4574C167.605 45.4574 167.605 45.4574 167.605 45.4574C167.605 45.4574 167.605 45.4574 167.605 45.4574C167.605 45.4574 167.605 45.4574 167.605 45.4574C167.605 45.4574 167.605 45.4574 167.605 45.4574C167.605 45.4574 167.605 45.4574 167.605 45.4574C167.605 45.4574 167.605 45.4574 167.605 45.4574C167.605 45.4574 167.605 45.4574 167.605 45.4574C167.605 45.4574 167.605 45.4574 167.605 45.4574C167.605 45.4574 167.605 45.4574 167.605 45.4574C167.605 45.4574 167.605 45.4574 167.605 45.4574C167.605 45.4574 167.605 45.4574 167.605 45.4574C167.605 45.4574 167.605 45.4574 167.605 45.4574C167.605 45.4574 167.605 45.4574 167.605 45.4574C167.605 45.4574 167.605 45.4574 167.605 45.4574C167.605 45.4574 167.605 45.4574 167.605 45.4574C167.605 45.4574 167.605 45.4574 167.605 45.4574C167.605 45.4574 167.605 45.4574 167.605 45.4574C167.605 45.4574 167.605 45.4574 167.605 45.4574C167.605 45.4574 167.605 45.4574 167.605 45.4574C167.605 45.4574 167.605 45.4574 167.605 45.4574C167.605 45.4574 167.605 45.4574 167.605 45.4574C167.605 45.4574 167.605 45.4574 167.605 45.4574C167.605 45.4574 167.605 45.4574 167.605 45.4574C167.605 45.4574 167.605 45.4574 167.605 45.4574C167.605 45.4574 167.605 45.4574 167.605 45.4574C167.605 45.4574 167.605 45.4574 167.605 45.4574C167.605 45.4574 167.605 45.4574 167.605 45.4574C167.605 45.4574 167.605 45.4574 167.605 45.4574C167.605 45.4574 167.605 45.4574 167.605 45.4574C167.605 45.4574 167.605 45.4574 167.605 45.4574C167.605 45.4574 167.605 45.4574 167.605 45.4574C167.605 45.4574 167.605 45.4574 167.605 45.4574C167.605 45.4574 167.605 45.4574 167.605 45.4574C167.605 45.4574 167.605 45.4574 167.605 45.4574C167.605 45.4574 167.605 45.4574 167.605 45.4574C167.605 45.4574 167.605 45.4574 167.605 45.4574C167.605 45.4574 167.605 45.4574 167.605 45.4574C167.605 45.4574 167.605 45.4574 167.605 45.4574C167.605 45.4574 167.605 45.4574 167.605 45.4574C167.605 45.4574 167.605 45.4574 167.605 45.4574C167.605 45.4574 167.605 45.4574 167.605 45.4574C167.606 45.4574 167.606 45.4574 167.606 45.4574C167.606 45.4574 167.606 45.4574 167.606 45.4574C167.606 45.4574 167.606 45.4574 167.606 45.4574C167.606 45.4574 167.606 45.4574 167.606 45.4574C167.606 45.4574 167.606 45.4574 167.606 45.4574C167.606 45.4574 167.606 45.4574 167.606 45.4574C167.606 45.4574 167.606 45.4574 167.606 45.4574C167.606 45.4574 167.606 45.4574 167.606 45.4574C167.606 45.4574 167.606 45.4574 167.606 45.4574C167.606 45.4574 167.606 45.4574 167.606 45.4574C167.606 45.4574 167.606 45.4574 167.606 45.4574C167.606 45.4574 167.606 45.4574 167.606 45.4574C167.606 45.4574 167.606 45.4574 167.606 45.4574C167.606 45.4574 167.606 45.4574 167.606 45.4574C167.606 45.4574 167.606 45.4574 167.606 45.4574C167.606 45.4574 167.606 45.4574 167.606 45.4574C167.606 45.4574 167.606 45.4574 167.606 45.4574C167.606 45.4574 167.606 45.4574 167.606 45.4574C167.606 45.4574 167.606 45.4574 167.606 45.4574C167.606 45.4574 167.606 45.4574 167.606 45.4574C167.606 45.4574 167.606 45.4574 167.606 45.4574C167.606 45.4574 167.606 45.4574 167.606 45.4574C167.606 45.4574 167.606 45.4574 167.606 45.4574C167.606 45.4574 167.606 45.4574 167.606 45.4574C167.606 45.4574 167.606 45.4574 167.606 45.4574C167.606 45.4574 167.606 45.4574 167.606 45.4574C167.606 45.4574 167.606 45.4574 167.606 45.4574C167.606 45.4574 167.606 45.4574 167.606 45.4574C167.606 45.4574 167.606 45.4574 167.606 45.4574C167.606 45.4574 167.606 45.4574 167.606 45.4574C167.606 45.4574 167.606 45.4574 167.606 45.4574C167.606 45.4574 167.606 45.4574 167.606 45.4574C167.606 45.4574 167.606 45.4574 167.606 45.4574C167.606 45.4574 167.606 45.4574 167.606 45.4574C167.606 45.4574 167.606 45.4574 167.606 45.4574C167.606 45.4574 167.606 45.4574 167.606 45.4574C167.606 45.4574 167.606 45.4574 167.606 45.4574C167.606 45.4574 167.606 45.4574 167.606 45.4574C167.606 45.4574 167.606 45.4574 167.606 45.4574C167.606 45.4574 167.606 45.4574 167.606 45.4574C167.606 45.4574 167.606 45.4574 167.606 45.4574C167.606 45.4574 167.606 45.4574 167.606 45.4574C167.606 45.4574 167.606 45.4574 167.606 45.4574C167.606 45.4574 167.606 45.4574 167.606 45.4574C167.606 45.4574 167.606 45.4574 167.606 45.4574V42.8298ZM167.597 42.8298C167.35 42.8298 167.11 42.8298 166.866 42.8279L166.846 45.4554C167.101 45.4574 167.352 45.4574 167.597 45.4574V42.8298ZM166.862 42.8279C166.666 42.827 166.471 42.8244 166.283 42.8201L166.223 45.447C166.428 45.4516 166.639 45.4545 166.85 45.4554L166.862 42.8279ZM166.288 42.8203C165.963 42.8115 165.617 42.7934 165.331 42.7424L164.869 45.329C165.363 45.4172 165.878 45.4377 166.217 45.4468L166.288 42.8203ZM165.332 42.7426C165.109 42.7025 164.954 42.6483 164.811 42.5752L163.616 44.9156C164.015 45.1193 164.421 45.2485 164.867 45.3287L165.332 42.7426ZM164.808 42.5737C164.666 42.502 164.536 42.408 164.419 42.2907L162.56 44.1471C162.871 44.459 163.227 44.7182 163.619 44.9171L164.808 42.5737ZM164.418 42.2891C164.303 42.1751 164.209 42.0448 164.135 41.8993L161.792 43.0895C161.991 43.4818 162.25 43.8381 162.561 44.1486L164.418 42.2891ZM164.134 41.8984C164.063 41.7585 164.009 41.6033 163.968 41.3773L161.382 41.8393C161.462 42.2871 161.59 42.693 161.793 43.0904L164.134 41.8984ZM163.968 41.3748C163.917 41.0946 163.899 40.7668 163.89 40.4223L161.263 40.4934C161.273 40.8543 161.294 41.352 161.382 41.8419L163.968 41.3748ZM163.89 40.4224C163.885 40.2335 163.883 40.0418 163.881 39.8447L161.254 39.8616C161.255 40.066 161.258 40.2782 161.263 40.4933L163.89 40.4224ZM163.882 39.851L163.881 39.2583L161.253 39.2627L161.254 39.8553L163.882 39.851ZM163.881 39.2609L163.881 39.1044L161.253 39.1036L161.253 39.2601L163.881 39.2609ZM163.881 39.104V5.04082H161.253V39.104H163.881ZM163.881 5.04044L163.881 4.88396L161.253 4.88471L161.253 5.04119L163.881 5.04044ZM163.881 4.88642L163.881 4.29498L161.254 4.29082L161.253 4.88225L163.881 4.88642ZM163.881 4.30161C163.883 4.10304 163.885 3.91137 163.89 3.72269L161.263 3.65175C161.258 3.86665 161.255 4.07882 161.254 4.28419L163.881 4.30161ZM163.89 3.72273C163.899 3.37834 163.917 3.05005 163.968 2.76647L161.383 2.29945C161.294 2.79231 161.273 3.28992 161.263 3.65171L163.89 3.72273ZM163.969 2.76399C164.009 2.54191 164.063 2.38659 164.135 2.24471L161.793 1.05248C161.591 1.45057 161.462 1.85639 161.382 2.30193L163.969 2.76399ZM164.135 2.24356C164.208 2.10127 164.303 1.9702 164.419 1.8535L162.562 -0.00466387C162.251 0.306052 161.992 0.662197 161.793 1.05363L164.135 2.24356ZM164.42 1.8532C164.535 1.73791 164.666 1.64265 164.811 1.56883L163.62 -0.773246C163.228 -0.573909 162.872 -0.315051 162.561 -0.00436244L164.42 1.8532ZM164.812 1.56851C164.952 1.49723 165.108 1.4426 165.332 1.40224L164.867 -1.18377C164.422 -1.10371 164.016 -0.974894 163.619 -0.772927L164.812 1.56851ZM165.332 1.4023C165.613 1.35177 165.943 1.33393 166.289 1.32456L166.218 -1.30202C165.855 -1.29221 165.357 -1.27184 164.867 -1.18383L165.332 1.4023ZM166.289 1.32455C166.478 1.31943 166.669 1.31731 166.867 1.31595L166.849 -1.31153C166.646 -1.31013 166.433 -1.30788 166.218 -1.30202L166.289 1.32455ZM166.86 1.31597L167.609 1.3145L167.604 -1.31304L166.855 -1.31156L166.86 1.31597ZM167.606 1.3145H228.252V-1.31304H167.606V1.3145Z" fill="#D6D6D6" mask="url(#path-1-inside-1_919_7823)"/>
</g>
<g id="Group">
<g id="Group_2">
<path id="Vector" d="M181.159 14.3318C181.791 13.5407 182.22 12.4784 182.107 11.3928C181.181 11.4389 180.051 12.0037 179.397 12.7955C178.81 13.4735 178.29 14.5803 178.425 15.6204C179.465 15.7105 180.503 15.1008 181.159 14.3318Z" fill="#141414"/>
<path id="Vector_2" d="M182.095 15.8241C180.586 15.7342 179.302 16.6808 178.581 16.6808C177.86 16.6808 176.756 15.8694 175.562 15.8913C174.008 15.9141 172.566 16.7928 171.778 18.1902C170.156 20.9858 171.35 25.1325 172.927 27.4094C173.693 28.5358 174.616 29.7761 175.832 29.7315C176.982 29.6864 177.432 28.9874 178.829 28.9874C180.225 28.9874 180.631 29.7315 181.847 29.709C183.109 29.6864 183.898 28.582 184.664 27.4545C185.542 26.1704 185.902 24.9306 185.925 24.8625C185.902 24.8399 183.492 23.9154 183.47 21.1431C183.447 18.8218 185.362 17.7176 185.452 17.6491C184.371 16.0498 182.681 15.8694 182.095 15.8241Z" fill="#141414"/>
</g>
<g id="Group_3">
<path id="Vector_3" d="M195.239 12.6824C198.52 12.6824 200.805 14.944 200.805 18.2367C200.805 21.5412 198.473 23.8146 195.157 23.8146H191.524V29.5915H188.9V12.6824H195.239V12.6824ZM191.524 21.6115H194.536C196.821 21.6115 198.122 20.3812 198.122 18.2485C198.122 16.1159 196.821 14.8972 194.548 14.8972H191.524V21.6115Z" fill="#141414"/>
<path id="Vector_4" d="M201.491 26.0874C201.491 23.931 203.143 22.607 206.073 22.4429L209.447 22.2437V21.2946C209.447 19.9235 208.522 19.1033 206.975 19.1033C205.51 19.1033 204.596 19.8062 204.374 20.9079H201.983C202.124 18.6813 204.022 17.0408 207.069 17.0408C210.057 17.0408 211.967 18.6227 211.967 21.0953V29.591H209.541V27.5638H209.483C208.768 28.9349 207.209 29.8019 205.592 29.8019C203.178 29.8019 201.491 28.302 201.491 26.0874ZM209.447 24.9742V24.0016L206.412 24.189C204.901 24.2945 204.045 24.9624 204.045 26.0171C204.045 27.095 204.936 27.7982 206.295 27.7982C208.065 27.7982 209.447 26.5794 209.447 24.9742Z" fill="#141414"/>
<path id="Vector_5" d="M214.257 34.1259V32.0753C214.444 32.1221 214.866 32.1221 215.077 32.1221C216.248 32.1221 216.881 31.63 217.268 30.3645C217.268 30.341 217.491 29.6146 217.491 29.6028L213.038 17.2639H215.78L218.897 27.2945H218.944L222.061 17.2639H224.733L220.115 30.2355C219.061 33.2237 217.842 34.1845 215.288 34.1845C215.077 34.1845 214.444 34.161 214.257 34.1259Z" fill="#141414"/>
</g>
</g>
</g>
<g id="Layer 1">
<rect id="Rectangle 360" x="82.2513" y="0.613828" width="67.7225" height="42.9167" rx="3.06548" fill="white" stroke="#D6D6D6" stroke-width="1.22619"/>
<g id="&#60;Group&#62;">
<path id="Vector_6" d="M121.65 12.8616H110.88V31.689H121.65V12.8616Z" fill="#FF5F00"/>
<path id="&#60;Path&#62;" d="M111.564 22.2768C111.562 20.4633 111.984 18.6731 112.799 17.0419C113.613 15.4106 114.799 13.981 116.265 12.8613C114.449 11.4731 112.269 10.6099 109.973 10.3703C107.677 10.1307 105.358 10.5244 103.281 11.5063C101.204 12.4882 99.4524 14.0188 98.2273 15.9231C97.0022 17.8274 96.3525 20.0286 96.3525 22.2752C96.3525 24.5217 97.0022 26.7229 98.2273 28.6272C99.4524 30.5315 101.204 32.0621 103.281 33.0441C105.358 34.026 107.677 34.4196 109.973 34.18C112.269 33.9404 114.449 33.0772 116.265 31.6891C114.799 30.5697 113.614 29.1406 112.8 27.51C111.985 25.8793 111.563 24.0898 111.564 22.2768Z" fill="#EB001B"/>
<path id="Vector_7" d="M136.179 22.2764C136.179 24.523 135.529 26.7243 134.304 28.6286C133.079 30.533 131.327 32.0635 129.25 33.0452C127.173 34.027 124.854 34.4204 122.557 34.1804C120.261 33.9405 118.08 33.0769 116.265 31.6884C117.73 30.568 118.915 29.1386 119.73 27.5079C120.544 25.8772 120.968 24.0878 120.968 22.2747C120.968 20.4617 120.544 18.6723 119.73 17.0416C118.915 15.4109 117.73 13.9814 116.265 12.8611C118.08 11.4726 120.261 10.609 122.557 10.369C124.854 10.1291 127.173 10.5225 129.25 11.5042C131.327 12.486 133.079 14.0165 134.304 15.9208C135.529 17.8252 136.179 20.0264 136.179 22.2731V22.2764Z" fill="#F79E1B"/>
<path id="Vector_8" d="M135.003 29.6929V29.3067H135.164V29.2268H134.757V29.3067H134.931V29.6929H135.003ZM135.793 29.6929V29.2268H135.67L135.526 29.5597L135.383 29.2268H135.273V29.6929H135.362V29.3433L135.496 29.6463H135.588L135.721 29.3433V29.6962L135.793 29.6929Z" fill="#F79E1B"/>
</g>
</g>
<g id="Group 1085">
<rect id="Rectangle 359" x="1.32272" y="0.613828" width="67.7225" height="42.9167" rx="3.06548" fill="white" stroke="#D6D6D6" stroke-width="1.22619"/>
<g id="g4158">
<path id="polygon9" d="M31.8104 31.7769H27.1426L30.0622 13.8137H34.7298L31.8104 31.7769Z" fill="#00579F"/>
<path id="path11" d="M48.7315 14.2538C47.8108 13.8903 46.3505 13.489 44.5448 13.489C39.9352 13.489 36.6891 15.9349 36.6692 19.4319C36.6309 22.0119 38.9933 23.4449 40.7602 24.3052C42.5661 25.1842 43.18 25.758 43.18 26.5415C43.1616 27.745 41.7207 28.2997 40.3768 28.2997C38.5132 28.2997 37.5146 28.0137 35.9971 27.3442L35.3824 27.0571L34.7292 31.0895C35.824 31.5858 37.8411 32.0262 39.9352 32.0455C44.833 32.0455 48.0217 29.6374 48.0594 25.9109C48.0781 23.866 46.8306 22.2992 44.1413 21.0188C42.5087 20.1969 41.5088 19.6427 41.5088 18.8017C41.528 18.0372 42.3545 17.2542 44.1974 17.2542C45.7149 17.2158 46.8299 17.5788 47.6745 17.942L48.0967 18.1327L48.7315 14.2538Z" fill="#00579F"/>
<path id="path13" d="M54.9356 25.4132C55.32 24.3812 56.7992 20.3872 56.7992 20.3872C56.7798 20.4256 57.1829 19.3362 57.4134 18.6675L57.7396 20.2153C57.7396 20.2153 58.6235 24.5151 58.8155 25.4132C58.086 25.4132 55.8576 25.4132 54.9356 25.4132ZM60.6975 13.8137H57.0869C55.9735 13.8137 55.1276 14.1383 54.6472 15.3041L47.7137 31.7766H52.6115C52.6115 31.7766 53.4179 29.5596 53.5912 29.0821C54.1285 29.0821 58.8931 29.0821 59.5843 29.0821C59.7183 29.7127 60.1413 31.7766 60.1413 31.7766H64.4633L60.6975 13.8137Z" fill="#00579F"/>
<path id="path15" d="M23.2439 13.8137L18.6725 26.0629L18.173 23.5786C17.3278 20.7121 14.6773 17.5977 11.7194 16.0491L15.9066 31.7578H20.8427L28.1797 13.8137H23.2439Z" fill="#00579F"/>
<path id="path17" d="M14.4275 13.8137H6.91741L6.84058 14.1767C12.6989 15.6673 16.5788 19.2605 18.1729 23.5792L16.5403 15.3237C16.2715 14.1764 15.4455 13.8516 14.4275 13.8137Z" fill="#FAA61A"/>
</g>
</g>
<g id="Group 1282">
<g id="Group 1101">
<rect id="Rectangle 361" x="123.942" y="59.471" width="67.7225" height="42.9167" rx="3.06548" fill="white" stroke="#D6D6D6" stroke-width="1.22619"/>
<g id="Group 657">
<g id="g5">
<path id="path7" fill-rule="evenodd" clip-rule="evenodd" d="M144.659 73.5723V73.579C144.652 73.579 142.456 73.5723 141.87 75.6137C141.333 77.4857 139.82 82.6538 139.778 82.7962H139.36C139.36 82.7962 137.812 77.5128 137.269 75.607C136.683 73.5655 134.48 73.5723 134.48 73.5723H129.46V89.1038H134.48V79.8798H134.689H134.898L137.826 89.1038H141.312L144.241 79.8866H144.659V89.1038H149.679V73.5723H144.659Z" fill="#4DB45E"/>
</g>
<g id="g9">
<path id="path11_2" fill-rule="evenodd" clip-rule="evenodd" d="M162.996 73.5723C162.996 73.5723 161.525 73.7011 160.834 75.2L157.279 82.7962H156.86V73.5723H151.84V89.1038H156.581C156.581 89.1038 158.122 88.9682 158.812 87.4761L162.299 79.8798H162.717V89.1038H167.737V73.5723H162.996Z" fill="#4DB45E"/>
</g>
<g id="g13">
<path id="path15_2" fill-rule="evenodd" clip-rule="evenodd" d="M169.968 80.6255V89.104H174.988V84.1526H180.426C182.796 84.1526 184.804 82.6807 185.55 80.6255H169.968Z" fill="#4DB45E"/>
</g>
<g id="g17">
<path id="path24" fill-rule="evenodd" clip-rule="evenodd" d="M180.426 73.5723H169.264C169.822 76.5293 172.101 78.903 175.051 79.6762C175.72 79.8525 176.424 79.9475 177.149 79.9475H185.753C185.83 79.5948 185.865 79.2354 185.865 78.8624C185.865 75.9392 183.431 73.5723 180.426 73.5723Z" fill="url(#paint0_linear_919_7823)"/>
</g>
</g>
</g>
<g id="Page 1">
<g id="GooglePay mark 800 gray">
<g id="border">
<path id="wihit fill" d="M108.236 59.525L108.235 59.525C108.039 59.5194 107.843 59.5172 107.643 59.5159C107.643 59.5159 107.642 59.5159 107.642 59.5159L106.899 59.5146H106.899H46.2172H46.2166L45.4704 59.5159C45.2719 59.5172 45.0758 59.5194 44.8818 59.525L44.8803 59.525C44.5303 59.5343 44.1585 59.5528 43.8247 59.6126L108.236 59.525ZM108.236 59.525C108.585 59.5343 108.957 59.5528 109.291 59.6126C109.57 59.6629 109.789 59.7363 109.996 59.841L109.996 59.8412M108.236 59.525L109.996 59.8412M109.996 59.8412C110.199 59.9443 110.387 60.0805 110.552 60.2448C110.718 60.4109 110.855 60.5992 110.96 60.8064L110.96 60.8068M109.996 59.8412L110.96 60.8068M110.96 60.8068C111.064 61.0097 111.136 61.2262 111.187 61.5084L111.187 61.5094M110.96 60.8068L111.187 61.5094M111.187 61.5094C111.246 61.8384 111.265 62.2105 111.274 62.5622L111.274 62.5639M111.187 61.5094L111.274 62.5639M111.274 62.5639C111.28 62.7575 111.282 62.9527 111.283 63.1547L111.283 63.1566M111.274 62.5639L111.283 63.1566M111.283 63.1566C111.285 63.4024 111.285 63.6482 111.285 63.8977V97.961C111.285 98.2104 111.285 98.4562 111.283 98.7071L111.283 98.7088M111.283 63.1566L111.283 98.7088M111.283 98.7088C111.282 98.9058 111.28 99.1011 111.274 99.2958L111.274 99.2973M111.283 98.7088L111.274 99.2973M111.274 99.2973C111.265 99.6478 111.246 100.02 111.186 100.353L111.186 100.354M111.274 99.2973L111.186 100.354M111.186 100.354C111.136 100.631 111.064 100.848 110.96 101.052L110.959 101.054M111.186 100.354L110.959 101.054M110.959 101.054C110.854 101.26 110.718 101.448 110.553 101.612C110.387 101.778 110.201 101.913 109.994 102.018L109.992 102.019M110.959 101.054L109.992 102.019M109.992 102.019C109.788 102.123 109.57 102.196 109.295 102.245C108.952 102.306 108.563 102.325 108.244 102.334C108.045 102.338 107.846 102.341 107.642 102.342L107.64 102.342M109.992 102.019L107.64 102.342M41.571 101.351C41.7076 101.62 41.8845 101.864 42.0971 102.076L41.571 101.351ZM41.571 101.351C41.4339 101.083 41.3423 100.802 41.282 100.465L41.571 101.351ZM107.64 102.342C107.395 102.344 107.149 102.344 106.901 102.344H106.899H46.2166H46.2166H46.2165H46.2165H46.2164H46.2164H46.2164H46.2163H46.2163H46.2163H46.2162H46.2162H46.2162H46.2161H46.2161H46.216H46.216H46.216H46.2159H46.2159H46.2159H46.2158H46.2158H46.2157H46.2157H46.2157H46.2156H46.2156H46.2156H46.2155H46.2155H46.2155H46.2154H46.2154H46.2153H46.2153H46.2153H46.2152H46.2152H46.2152H46.2151H46.2151H46.2151H46.215H46.215H46.2149H46.2149H46.2149H46.2148H46.2148H46.2148H46.2147H46.2147H46.2146H46.2146H46.2146H46.2145H46.2145H46.2145H46.2144H46.2144H46.2144H46.2143H46.2143H46.2142H46.2142H46.2142H46.2141H46.2141H46.2141H46.214H46.214H46.2139H46.2139H46.2139H46.2138H46.2138H46.2138H46.2137H46.2137H46.2136H46.2136H46.2136H46.2135H46.2135H46.2135H46.2134H46.2134H46.2134H46.2133H46.2133H46.2132H46.2132H46.2132H46.2131H46.2131H46.2131H46.213H46.213H46.2129H46.2129H46.2129H46.2128H46.2128H46.2128H46.2127H46.2127H46.2126H46.2126H46.2126H46.2125H46.2125H46.2125H46.2124H46.2124H46.2123H46.2123H46.2123H46.2122H46.2122H46.2122H46.2121H46.2121H46.212H46.212H46.212H46.2119H46.2119H46.2118H46.2118H46.2118H46.2117H46.2117H46.2117H46.2116H46.2116H46.2115H46.2115H46.2115H46.2114H46.2114H46.2114H46.2113H46.2113H46.2112H46.2112H46.2112H46.2111H46.2111H46.211H46.211H46.211H46.2109H46.2109H46.2109H46.2108H46.2108H46.2107H46.2107H46.2107H46.2106H46.2106H46.2105H46.2105H46.2105H46.2104H46.2104H46.2104H46.2103H46.2103H46.2102H46.2102H46.2102H46.2101H46.2101H46.21H46.21H46.21H46.2099H46.2099H46.2098H46.2098H46.2098H46.2097H46.2097H46.2096H46.2096H46.2096H46.2095H46.2095H46.2094H46.2094H46.2094H46.2093H46.2093H46.2093H46.2092H46.2092H46.2091H46.2091H46.2091H46.209H46.209H46.2089H46.2089H46.2089H46.2088H46.2088H46.2087H46.2087H46.2087H46.2086H46.2086H46.2085H46.2085H46.2085H46.2084H46.2084H46.2083H46.2083H46.2082H46.2082H46.2082H46.2081H46.2081H46.208H46.208H46.208H46.2079H46.2079H46.2078H46.2078H46.2078H46.2077H46.2077H46.2076H46.2076H46.2076H46.2075H46.2075H46.2074H46.2074H46.2073H46.2073H46.2073H46.2072H46.2072H46.2071H46.2071H46.2071H46.207H46.207H46.2069H46.2069H46.2069H46.2068H46.2068H46.2052C45.9602 102.344 45.7169 102.344 45.4705 102.342L45.4687 102.342M107.64 102.342L45.4687 102.342M45.4687 102.342C45.2695 102.341 45.071 102.338 44.8794 102.334M45.4687 102.342L44.8794 102.334M43.1182 102.016L43.1197 102.017C43.3277 102.123 43.5456 102.196 43.8238 102.246L43.1182 102.016ZM43.1182 102.016C42.9143 101.913 42.7279 101.778 42.5619 101.612L42.5609 101.611M43.1182 102.016L42.5609 101.611M42.5609 101.611C42.3976 101.448 42.2619 101.261 42.1567 101.054L42.1561 101.053M42.5609 101.611L42.1561 101.053M42.1561 101.053C42.0519 100.849 41.979 100.631 41.9286 100.35L41.9286 100.349M42.1561 101.053L41.9286 100.349M41.9286 100.349C41.8687 100.016 41.8501 99.6459 41.8404 99.2969C41.8353 99.1023 41.8331 98.9058 41.8317 98.7077C41.8317 98.7071 41.8317 98.7065 41.8317 98.706L41.8308 98.1176V98.1172V63.7419V63.7415L41.8317 63.1527C41.8331 62.9529 41.8353 62.7569 41.8404 62.5623C41.8501 62.213 41.8687 61.8425 41.9294 61.5064L41.9294 61.5064M41.9286 100.349L41.9294 61.5064M41.9294 61.5064L41.9296 61.5049M41.9294 61.5064L41.9296 61.5049M41.9296 61.5049C41.979 61.2277 42.0518 61.0097 42.1567 60.8037L42.1569 60.8034M41.9296 61.5049L42.1569 60.8034M42.1569 60.8034C42.261 60.5987 42.3973 60.4111 42.5623 60.2462L42.5628 60.2457M42.1569 60.8034L42.5628 60.2457M42.5628 60.2457C42.7263 60.082 42.9141 59.946 43.1216 59.8404L43.1224 59.84M42.5628 60.2457L43.1224 59.84M43.1224 59.84C43.3258 59.7361 43.5443 59.6631 43.8244 59.6127L43.1224 59.84ZM44.8794 102.334C44.5515 102.325 44.1623 102.306 43.8239 102.246L44.8794 102.334Z" fill="#FFFFFE" stroke="#D6D6D6" stroke-width="1.31377"/>
</g>
<g id="GPay logo">
<g id="Pay">
<path id="Shape" d="M75.1869 82.0218V88.7627H73.0808V72.1228H78.6666C80.014 72.0963 81.3221 72.6138 82.277 73.5692C84.1869 75.3738 84.3047 78.4125 82.5125 80.3631C82.434 80.4427 82.3555 80.5224 82.277 80.602C81.2959 81.5441 80.0924 82.0218 78.6666 82.0218H75.1869ZM75.1869 74.1663V79.9783H78.7189C79.5038 80.0048 80.2625 79.6864 80.7988 79.1158C81.8977 77.9614 81.8715 76.1036 80.7334 74.989C80.1971 74.4582 79.4776 74.1663 78.7189 74.1663H75.1869Z" fill="#141414"/>
<path id="Shape_2" d="M88.6477 77.0051C90.2044 77.0051 91.4341 77.4298 92.3367 78.2658C93.2393 79.1018 93.6841 80.2695 93.6841 81.7425V88.7622H91.6695V87.1831H91.578C90.7015 88.4836 89.5504 89.1338 88.0983 89.1338C86.8687 89.1338 85.8222 88.7622 84.9981 88.0191C84.187 87.3291 83.7292 86.3073 83.7553 85.2324C83.7553 84.0514 84.2001 83.1225 85.0765 82.4192C85.953 81.7159 87.1303 81.3709 88.5954 81.3709C89.8512 81.3709 90.8716 81.6098 91.6826 82.0609V81.57C91.6826 80.8401 91.3687 80.1501 90.8192 79.6724C90.2567 79.1681 89.5373 78.8894 88.7916 78.8894C87.6143 78.8894 86.6855 79.3937 86.0053 80.4022L84.1478 79.2212C85.142 77.7482 86.6463 77.0051 88.6477 77.0051ZM85.9268 85.2722C85.9268 85.8296 86.1885 86.3471 86.6201 86.6656C87.0911 87.0371 87.6666 87.2362 88.2553 87.2229C89.1448 87.2229 89.9951 86.8646 90.623 86.2277C91.3163 85.5642 91.6695 84.7813 91.6695 83.8789C91.0155 83.3481 90.0998 83.0827 88.9225 83.096C88.0722 83.096 87.3527 83.3083 86.7771 83.7197C86.2146 84.131 85.9268 84.6486 85.9268 85.2722Z" fill="#141414"/>
<path id="Path" fill-rule="evenodd" clip-rule="evenodd" d="M105.248 77.3767L98.2103 93.7642H96.0387L98.655 88.0319L94.0373 77.3767H96.3265L99.6623 85.5506H99.7015L102.959 77.3767H105.248Z" fill="#141414"/>
</g>
<g id="Super G">
<path id="Path_2" fill-rule="evenodd" clip-rule="evenodd" d="M66.6709 80.5616C66.6709 79.9114 66.6186 79.2612 66.5139 78.6243H57.6316V82.2998H62.7203C62.511 83.4808 61.8308 84.5423 60.8366 85.2058V87.5942H63.8715C65.6505 85.9356 66.6709 83.4808 66.6709 80.5616Z" fill="#4285F4"/>
<path id="Path_3" fill-rule="evenodd" clip-rule="evenodd" d="M57.6318 89.9032C60.1696 89.9032 62.3149 89.054 63.8716 87.5944L60.8367 85.2059C59.9865 85.7897 58.9007 86.1214 57.6318 86.1214C55.1725 86.1214 53.0926 84.4362 52.3469 82.1804H49.2205V84.6485C50.8164 87.873 54.0737 89.9032 57.6318 89.9032Z" fill="#34A853"/>
<path id="Path_4" fill-rule="evenodd" clip-rule="evenodd" d="M52.3467 82.1806C51.9543 80.9996 51.9543 79.7124 52.3467 78.5181V76.0632H49.2202C47.8728 78.757 47.8728 81.9417 49.2202 84.6355L52.3467 82.1806Z" fill="#FBBC04"/>
<path id="Path_5" fill-rule="evenodd" clip-rule="evenodd" d="M57.6318 74.5772C58.9792 74.5507 60.2742 75.0682 61.2423 76.0104L63.937 73.2768C62.2234 71.6578 59.9734 70.7687 57.6318 70.7953C54.0737 70.7953 50.8164 72.8388 49.2205 76.0635L52.3469 78.5317C53.0926 76.2625 55.1725 74.5772 57.6318 74.5772Z" fill="#EA4335"/>
</g>
</g>
</g>
</g>
</g>
</g>
</g>
<defs>
<linearGradient id="paint0_linear_919_7823" x1="169.265" y1="76.7599" x2="185.865" y2="76.7599" gradientUnits="userSpaceOnUse">
<stop offset="0.3" stop-color="#00B4E6"/>
<stop offset="1" stop-color="#088CCB"/>
</linearGradient>
</defs>
</svg>
