<svg width="140" height="39" viewBox="0 0 140 39" fill="none" xmlns="http://www.w3.org/2000/svg">
<g id="logo / stoloto / horizontal full">
<path id="logo-horizontal" fill-rule="evenodd" clip-rule="evenodd" d="M19.6397 7.70293L22.108 6.42766C22.3227 6.32139 22.43 6.00257 22.3227 5.73689L19.4787 0.263861C19.3177 -0.00182016 19.0494 -0.0549564 18.7811 0.051316L16.3127 1.32658C16.0444 1.48599 15.9907 1.75167 16.0981 2.01736L18.9421 7.49038C19.1031 7.75607 19.3714 7.8092 19.6397 7.70293ZM13.6834 32.3051C13.6298 32.8896 13.4151 33.6867 13.1468 34.218L11.1077 38.3626C11.1077 38.4689 11.0004 38.4689 10.8931 38.4689C4.6148 36.7686 0 31.0298 0 24.2815C0 16.1517 6.70756 9.50968 14.9713 9.56282C15.8835 9.56282 16.7421 9.61595 17.6006 9.77536C17.6543 9.77536 17.708 9.8285 17.708 9.88163C17.6236 10.5779 17.4213 12.1061 17.2324 13.5329L17.2322 13.5343L17.2322 13.5349L17.2321 13.535C17.0607 14.8298 16.9004 16.0409 16.8494 16.4705C16.6574 17.8489 15.9072 18.2494 15.1366 18.6609L15.1364 18.6609L15.1363 18.661L15.1362 18.6611L15.136 18.6612L15.136 18.6612C15.0453 18.7096 14.9543 18.7582 14.864 18.8085L14.7886 18.8475C13.5942 19.4652 12.7338 19.9102 10.9467 19.2336C9.64979 18.749 8.63182 18.3527 7.75035 18.0096C6.69889 17.6004 5.84164 17.2667 4.93676 16.9487C4.40016 16.7362 3.64891 16.9487 3.43427 17.5332C3.21963 18.1177 3.43427 18.7022 4.02454 18.9148C4.02454 18.9148 7.02952 20.0306 8.26371 20.562C8.72301 20.7687 9.14982 20.9453 9.54532 21.1089C11.1829 21.7864 12.2838 22.2419 12.9322 23.697C13.3078 24.6004 14.059 26.5133 14.059 27.3634C14.0054 28.5856 13.6834 32.3051 13.6834 32.3051ZM29.7815 24.9189C29.4595 32.5705 23.1276 38.7874 15.4005 39C14.8102 39 14.2199 39 13.6297 38.9469C13.5223 38.9469 13.4687 38.7874 13.5223 38.7343L15.6151 35.0679C15.9371 34.5366 16.1517 34.0052 16.2054 33.3676L16.6346 30.1794C16.6883 29.5418 17.0103 28.9041 17.6005 28.6916L18.6201 28.4259C19.2103 28.2133 19.6933 28.4259 19.9616 28.9573C20.1761 29.329 20.7123 30.3908 20.9272 30.8164L20.9273 30.8166L20.9274 30.8168L20.9275 30.817C21.0885 31.0827 21.0348 31.4015 20.8738 31.5609C20.6085 31.8612 20.3767 32.1217 20.1594 32.3658L20.1583 32.367L20.1574 32.368C19.7602 32.8142 19.4115 33.206 18.9957 33.6864C18.5664 34.1646 18.1908 34.9085 18.942 35.5461C19.6396 36.1838 20.3372 35.493 20.7665 35.0679C21.3031 34.5366 22.1617 33.527 22.6983 32.8893C23.1812 32.358 23.4495 31.986 23.5032 31.2952C23.5032 31.0296 23.5032 30.7639 23.3959 30.4451C23.2956 30.1472 22.9026 29.1769 22.3974 27.9295L22.3973 27.9293L22.3972 27.9289C21.8209 26.5059 21.0986 24.7225 20.4982 23.1654C19.5323 20.6149 19.0494 18.0112 19.3713 15.3013L19.9079 10.4127C19.9079 10.3596 19.9616 10.3064 20.0689 10.3064C25.9179 12.5382 30.0498 18.2769 29.7815 24.9189ZM12.1274 11.9538C10.5713 12.1132 9.39073 13.4947 9.55171 15.0357C9.71269 16.5766 11.1079 17.6925 12.664 17.5862C14.2202 17.4268 15.4007 16.0453 15.2397 14.5043C15.0787 12.9634 13.6836 11.7944 12.1274 11.9538ZM132.756 11.9007C128.731 11.9007 125.512 14.6638 125.512 18.9147C125.512 23.1656 128.731 25.9287 132.756 25.9287C136.78 25.9287 140 23.1656 140 18.9147C140 14.7169 136.78 11.9007 132.756 11.9007ZM129.429 18.9676C129.429 21.0399 130.824 22.3683 132.756 22.3683C134.688 22.3683 136.083 21.0399 136.083 18.9676C136.083 16.8953 134.688 15.5669 132.756 15.5669C130.824 15.5669 129.429 16.8953 129.429 18.9676ZM102.975 11.9007C98.9502 11.9007 95.7306 14.6638 95.7306 18.9147C95.7306 23.1656 98.9502 25.9287 102.975 25.9287C106.999 25.9287 110.219 23.1656 110.219 18.9147C110.219 14.7169 106.999 11.9007 102.975 11.9007ZM99.6476 18.9676C99.6476 21.0399 101.043 22.3683 102.975 22.3683C104.906 22.3683 106.301 21.0399 106.301 18.9676C106.301 16.8953 104.906 15.5669 102.975 15.5669C101.043 15.5669 99.6476 16.8953 99.6476 18.9676ZM81.8322 12.1662H92.1886V25.7159H88.2714V15.7263H85.2128L84.8908 20.3492C84.8789 20.4738 84.8675 20.5981 84.8561 20.7217C84.61 23.3908 84.3907 25.7691 80.5443 25.7691H78.8808L79.3638 22.4746C81.3075 22.4277 81.3246 22.0904 81.6722 15.2341V15.234C81.718 14.3296 81.7696 13.3118 81.8322 12.1662ZM62.568 18.9147C62.568 14.6638 65.7876 11.9007 69.8122 11.9007C73.8367 11.9007 77.0563 14.7169 77.0563 18.9147C77.0563 23.1656 73.8367 25.9287 69.8122 25.9287C65.7876 25.9287 62.568 23.1656 62.568 18.9147ZM69.8122 22.3683C67.8804 22.3683 66.4853 21.0399 66.4853 18.9676C66.4853 16.8953 67.8804 15.5669 69.8122 15.5669C71.744 15.5669 73.1392 16.8953 73.1392 18.9676C73.1392 21.0399 71.744 22.3683 69.8122 22.3683ZM42.2846 22.0498C40.1381 22.0498 38.2064 21.6779 38.2064 18.8085C38.2064 16.7362 39.3332 15.7266 41.587 15.7798C42.6602 15.7798 43.8944 15.9923 44.8066 16.3111L46.0945 13.0167C44.6993 12.3259 43.0358 12.0071 41.426 12.0071C36.8112 12.0071 34.1282 14.9296 34.1282 18.9679C34.1282 23.8033 37.4551 25.8756 41.426 25.8756C42.9285 25.8756 44.4846 25.6099 45.7725 25.1849L45.7188 21.5716C44.7529 21.8373 43.4651 22.0498 42.2846 22.0498ZM48.9921 12.1662H60.8511L60.1535 15.6732H56.7192V25.7159H52.802V15.7263H48.9921V12.1662ZM123.999 12.2193L124.009 12.1662V12.2193H123.999ZM111.775 12.2193H123.999L123.312 15.6732H119.877V25.7159H115.906V15.7263H112.472L111.775 12.2193ZM39.4942 31.1361H36.5965V36.4497H35.7916V30.4985H39.4942V31.1361ZM39.655 33.0491C39.494 33.4211 39.3867 33.793 39.3867 34.2181C39.3867 34.9089 39.5477 35.4934 39.9233 35.9185C40.299 36.3436 40.7819 36.5561 41.3722 36.5561C41.8014 36.5561 42.1234 36.503 42.4454 36.2904C42.7137 36.0779 42.982 35.8122 43.143 35.4934C43.3039 35.1214 43.4113 34.7495 43.4113 34.3244V34.2712C43.4113 33.5805 43.2503 33.0491 42.8747 32.624C42.499 32.1989 42.0161 31.9864 41.4258 31.9864C40.9965 31.9864 40.6746 32.0395 40.3526 32.2521C40.0843 32.4115 39.816 32.6772 39.655 33.0491ZM40.1381 34.271C40.1381 34.7492 40.2454 35.1743 40.4601 35.44C40.6747 35.7588 40.9967 35.8651 41.3723 35.8651C41.7479 35.8651 42.0699 35.7057 42.2845 35.44C42.4992 35.1743 42.6065 34.6961 42.6065 34.1647C42.6065 33.6865 42.4992 33.2614 42.2845 32.9958C42.0699 32.6769 41.7479 32.5707 41.3723 32.5707C40.9967 32.5707 40.6747 32.7301 40.4601 32.9958C40.2454 33.3146 40.1381 33.7397 40.1381 34.271ZM46.8456 35.6523C46.6847 35.8117 46.4164 35.918 46.148 35.918C45.7724 35.918 45.4505 35.7586 45.2358 35.546C45.0212 35.2804 44.9139 34.9084 44.9139 34.377V34.2176C44.9139 33.6863 45.0212 33.2612 45.2358 32.9955C45.4505 32.7298 45.7724 32.5704 46.148 32.5704C46.47 32.5704 46.6847 32.6767 46.8993 32.8361C47.1139 32.9955 47.2213 33.2612 47.2213 33.5269H47.8652C47.8115 33.0486 47.6505 32.6767 47.3286 32.3579C47.0066 32.0922 46.5773 31.9328 46.0944 31.9328C45.6651 31.9328 45.3431 32.039 45.0212 32.1985C44.6992 32.411 44.4846 32.6767 44.3236 32.9955C44.1626 33.3675 44.1089 33.7394 44.1089 34.1645V34.2708C44.1089 34.9615 44.2699 35.4929 44.6456 35.918C45.0212 36.2899 45.5041 36.5025 46.0944 36.5025C46.4164 36.5025 46.6847 36.4494 46.953 36.2899C47.2213 36.1837 47.4359 35.9711 47.5969 35.7586C47.7579 35.4929 47.8652 35.2804 47.8652 35.0147H47.1676C47.1676 35.2804 47.0603 35.4929 46.8456 35.6523ZM50.28 35.3336L51.2995 32.0391H52.1044L50.3336 37.1402C50.0653 37.8841 49.636 38.2561 48.9921 38.2561H48.8311L48.5628 38.2029V37.5653H48.7775C49.0458 37.5653 49.2604 37.5122 49.3677 37.4059C49.5287 37.2996 49.636 37.0871 49.7434 36.8214L49.9044 36.3963L48.2945 32.0391H49.1531L50.28 35.3336ZM52.8021 35.493L52.5338 35.8118H52.2118V37.7247H52.9631V36.4494H56.0754V37.7247H56.8266V35.8118H56.2364V32.0391H53.3387L53.285 33.7926C53.285 34.5365 53.124 35.121 52.8021 35.493ZM53.4457 35.812H55.4848V32.7301H54.0896L54.036 33.7928C53.9823 34.643 53.8213 35.3337 53.4457 35.812ZM60.3613 36.2102C60.3773 36.3079 60.3904 36.3876 60.4216 36.4494V36.3962H61.2802V36.3431C61.1728 36.1305 61.1192 35.8117 61.1192 35.3866V33.3675C61.1192 32.8892 61.0119 32.5704 60.6899 32.3047C60.3679 32.039 59.9923 31.9328 59.4557 31.9328C59.1337 31.9328 58.8118 31.9859 58.5435 32.0922C58.2752 32.1985 58.0605 32.3579 57.8995 32.5704C57.7386 32.783 57.6849 32.9955 57.6849 33.208H58.4361C58.4361 33.0486 58.5435 32.8892 58.7045 32.7298C58.9191 32.5704 59.1337 32.5173 59.402 32.5173C59.724 32.5173 59.9386 32.5704 60.0996 32.7298C60.2606 32.8892 60.3143 33.1018 60.3143 33.3675V33.7394H59.563C58.9191 33.7394 58.4361 33.8457 58.0605 34.1114C57.6849 34.377 57.5239 34.6959 57.5239 35.1741C57.5239 35.546 57.6849 35.8649 57.9532 36.1305C58.2215 36.3962 58.5971 36.5025 59.0264 36.5025C59.563 36.5025 59.9386 36.3431 60.3143 35.9711C60.3367 36.0601 60.3498 36.1398 60.3613 36.2101L60.3613 36.2102L60.3613 36.2102ZM59.1338 35.865C59.3484 35.865 59.6167 35.8119 59.8313 35.7056C60.046 35.5993 60.207 35.4399 60.3143 35.2274V34.324H59.724C58.8118 34.324 58.3289 34.5897 58.3289 35.1211C58.3289 35.3336 58.3825 35.5462 58.5435 35.6525C58.7045 35.8119 58.8655 35.865 59.1338 35.865ZM65.5194 35.918C65.8414 35.4929 66.0024 34.9615 66.0024 34.2708H66.056V34.1645C66.056 33.4737 65.8951 32.9424 65.5731 32.5173C65.2511 32.1453 64.8218 31.9328 64.2852 31.9328C63.7486 31.9328 63.3193 32.1453 62.9974 32.5173L62.9437 32.039H62.2461V38.1497H62.9974V36.0243C63.3193 36.3962 63.7486 36.5556 64.2852 36.5556C64.7682 36.5556 65.1975 36.3431 65.5194 35.918ZM65.2512 34.2181C65.2512 33.7398 65.1438 33.3147 64.9292 33.0491C64.7145 32.7834 64.4462 32.624 64.0706 32.624C63.5877 32.624 63.2657 32.8365 63.0511 33.2085V35.3339C63.2657 35.759 63.6413 35.9184 64.1243 35.9184C64.4999 35.9184 64.7682 35.759 64.9828 35.4933C65.1438 35.1745 65.2512 34.7494 65.2512 34.2181ZM69.4367 35.6523C69.2757 35.8117 69.0074 35.918 68.7391 35.918C68.3635 35.918 68.0952 35.7586 67.7733 35.546C67.5586 35.2804 67.4513 34.9084 67.4513 34.377V34.2176C67.4513 33.6863 67.5586 33.2612 67.7733 32.9955C67.9879 32.7298 68.3099 32.5704 68.6855 32.5704C69.0074 32.5704 69.2221 32.6767 69.4367 32.8361C69.6514 32.9955 69.7587 33.2612 69.7587 33.5269H70.4563C70.4026 33.0486 70.2416 32.6767 69.9197 32.3579C69.5977 32.0922 69.1684 31.9328 68.6855 31.9328C68.2562 31.9328 67.9342 32.039 67.6123 32.1985C67.2903 32.411 67.0757 32.6767 66.9147 32.9955C66.7537 33.3675 66.7 33.7394 66.7 34.1645V34.2708C66.7 34.9615 66.861 35.4929 67.2366 35.918C67.6123 36.2899 68.0952 36.5025 68.6855 36.5025C69.0074 36.5025 69.2757 36.4494 69.5441 36.2899C69.8124 36.1837 70.027 35.9711 70.188 35.7586C70.349 35.4929 70.4563 35.2804 70.4563 35.0147H69.7587C69.7587 35.2804 69.6514 35.4929 69.4367 35.6523ZM74.6953 32.624H73.1928V36.4498H72.4416V32.624H70.9927V31.9864H74.6953V32.624ZM75.5002 32.0391V36.4494H77.5393C78.0759 36.4494 78.5052 36.3432 78.8271 36.1306C79.0954 35.8649 79.2564 35.5993 79.2564 35.1742C79.2564 34.9616 79.1491 34.6959 78.9881 34.5365C78.8271 34.324 78.6125 34.2177 78.3442 34.1646C78.5588 34.0583 78.7735 33.952 78.8808 33.7926C78.9881 33.6332 79.0418 33.4738 79.0418 33.2613C79.0418 32.8893 78.8808 32.5705 78.5588 32.358C78.2905 32.1454 77.8076 32.0391 77.2173 32.0391H75.5002ZM76.3051 33.8992H77.271C77.9686 33.8992 78.3442 33.6867 78.3442 33.2616C78.3442 32.8365 78.0222 32.624 77.3247 32.624H76.3051V33.8992ZM76.3051 35.8118V34.5366H77.4856C78.1296 34.5366 78.4515 34.7491 78.4515 35.1742C78.4515 35.3868 78.3979 35.5462 78.2369 35.6524C78.0759 35.7587 77.8613 35.8118 77.5393 35.8118H76.3051ZM82.1006 36.5025C81.5103 36.5025 81.0274 36.2899 80.6517 35.918C80.2761 35.546 80.0615 35.0147 80.0615 34.3239V34.1645C80.0615 33.7394 80.1688 33.3143 80.3298 32.9955C80.4908 32.6767 80.7591 32.3579 81.0274 32.1985C81.3493 31.9859 81.6713 31.9328 81.9932 31.9328C82.5835 31.9328 83.0128 32.1453 83.3348 32.5173C83.6567 32.8892 83.8177 33.4206 83.8177 34.1645V34.4833H80.8127C80.8127 34.9084 80.9737 35.2804 81.1883 35.546C81.4566 35.8117 81.7249 35.9711 82.1006 35.9711C82.3689 35.9711 82.5835 35.918 82.7982 35.8117C82.9591 35.7054 83.1738 35.546 83.2811 35.3866L83.764 35.7586C83.4421 36.2368 82.8518 36.5025 82.1006 36.5025ZM81.2956 32.8895C81.4566 32.6769 81.7249 32.5707 82.0468 32.5707C82.3688 32.5707 82.5834 32.6769 82.8517 32.8895C83.0664 33.102 83.1737 33.4208 83.1737 33.7928V33.8459H80.92C80.9736 33.4208 81.0809 33.102 81.2956 32.8895ZM88.3253 36.4494H87.6277V34.5897H85.5886V36.4494H84.7837V32.0391H85.5349V33.952H87.574V32.0391H88.3253V36.4494ZM92.5107 36.4494H93.262V32.0391H92.5107V33.952H90.4716V32.0391H89.7204V36.4494H90.4716V34.5897H92.5107V36.4494ZM95.3009 33.527H96.4815C96.9644 33.527 97.3937 33.6864 97.662 33.8989C97.9303 34.1646 98.0913 34.4834 98.0913 34.9616C98.0913 35.3867 97.9303 35.7587 97.662 36.0244C97.34 36.29 96.9644 36.4494 96.4278 36.4494H94.5497V32.0391H95.3009V33.527ZM95.3011 35.8119V34.1646H96.4279C96.6962 34.2178 96.9109 34.2709 97.0719 34.4303C97.2328 34.5897 97.2865 34.7491 97.2865 35.0148C97.2865 35.2805 97.2328 35.4399 97.0719 35.5993C96.9109 35.7587 96.6962 35.8119 96.4279 35.8119H95.3011ZM99.7013 36.4494H98.95V32.0391H99.7013V36.4494ZM101.418 35.918C101.794 36.2899 102.277 36.5025 102.867 36.5025C103.619 36.5025 104.209 36.2368 104.531 35.7586L104.048 35.3866C103.941 35.546 103.726 35.7054 103.565 35.8117C103.35 35.918 103.136 35.9711 102.867 35.9711C102.492 35.9711 102.223 35.8117 101.955 35.546C101.74 35.2804 101.579 34.9084 101.579 34.4833H104.584V34.1645C104.584 33.4206 104.423 32.8892 104.102 32.5173C103.78 32.1453 103.35 31.9328 102.76 31.9328C102.438 31.9328 102.116 31.9859 101.794 32.1985C101.526 32.3579 101.257 32.6767 101.097 32.9955C100.936 33.3143 100.828 33.7394 100.828 34.1645V34.3239C100.828 35.0147 101.043 35.546 101.418 35.918ZM102.76 32.5707C102.438 32.5707 102.169 32.6769 102.008 32.8895C101.794 33.102 101.687 33.4208 101.633 33.8459H103.887V33.7928C103.887 33.4208 103.779 33.102 103.565 32.8895C103.35 32.6769 103.082 32.5707 102.76 32.5707ZM111.238 36.4494V32.0391H108.287L108.179 33.952C108.126 34.6428 108.072 35.121 107.965 35.3867C107.857 35.6524 107.697 35.7587 107.428 35.8118H107.214V36.5026H107.536C107.965 36.4494 108.287 36.29 108.501 35.9712C108.716 35.6524 108.823 35.0679 108.877 34.324L108.984 32.6768H110.487V36.4494H111.238ZM112.258 34.2181C112.258 33.793 112.365 33.4211 112.526 33.0491C112.687 32.6772 112.955 32.4115 113.224 32.2521C113.545 32.0395 113.867 31.9864 114.297 31.9864C114.887 31.9864 115.37 32.1989 115.746 32.624C116.121 33.0491 116.282 33.5805 116.282 34.2712V34.3244C116.282 34.7495 116.175 35.1214 116.014 35.4934C115.853 35.8122 115.585 36.0779 115.316 36.2904C114.994 36.503 114.672 36.5561 114.243 36.5561C113.653 36.5561 113.17 36.3436 112.794 35.9185C112.472 35.4934 112.258 34.9089 112.258 34.2181ZM113.331 35.44C113.116 35.1743 113.009 34.7492 113.009 34.271C113.009 33.7397 113.17 33.3146 113.331 32.9958C113.546 32.7301 113.868 32.5707 114.243 32.5707C114.619 32.5707 114.941 32.6769 115.155 32.9958C115.37 33.2614 115.477 33.6865 115.477 34.1647C115.477 34.6961 115.37 35.1743 115.155 35.44C114.941 35.7057 114.619 35.8651 114.243 35.8651C113.868 35.8651 113.546 35.7588 113.331 35.44ZM120.521 32.624H119.019V36.4498H118.267V32.624H116.819V31.9864H120.521V32.624ZM121.326 35.918C121.702 36.2899 122.185 36.5025 122.775 36.5025C123.526 36.5025 124.063 36.2368 124.438 35.7586L123.956 35.3866C123.848 35.546 123.634 35.7054 123.473 35.8117C123.258 35.918 123.043 35.9711 122.775 35.9711C122.399 35.9711 122.131 35.8117 121.863 35.546C121.648 35.2804 121.487 34.9084 121.487 34.4833H124.492V34.1645C124.492 33.4206 124.331 32.8892 124.009 32.5173C123.687 32.1453 123.258 31.9328 122.668 31.9328C122.346 31.9328 122.024 31.9859 121.702 32.1985C121.434 32.3579 121.165 32.6767 121.004 32.9955C120.843 33.3143 120.736 33.7394 120.736 34.1645V34.3239C120.736 35.0147 120.951 35.546 121.326 35.918ZM122.668 32.5707C122.346 32.5707 122.077 32.6769 121.916 32.8895C121.702 33.102 121.595 33.4208 121.541 33.8459H123.795V33.7928C123.795 33.4208 123.687 33.102 123.473 32.8895C123.258 32.6769 122.99 32.5707 122.668 32.5707ZM128.678 35.918C129 35.4929 129.161 34.9615 129.161 34.2708H129.214V34.1645C129.214 33.4737 129.053 32.9424 128.732 32.5173C128.41 32.1453 127.98 31.9328 127.444 31.9328C126.907 31.9328 126.478 32.1453 126.156 32.5173L126.102 32.039H125.405V38.1497H126.156V36.0243C126.478 36.3962 126.907 36.5556 127.444 36.5556C127.927 36.5556 128.356 36.3431 128.678 35.918ZM128.409 34.2181C128.409 33.7398 128.302 33.3147 128.087 33.0491C127.873 32.7834 127.604 32.624 127.229 32.624C126.746 32.624 126.424 32.8365 126.209 33.2085V35.3339C126.424 35.759 126.799 35.9184 127.282 35.9184C127.658 35.9184 127.926 35.759 128.141 35.4933C128.302 35.1745 128.409 34.7494 128.409 34.2181ZM130.502 35.918C130.878 36.2899 131.361 36.5025 131.951 36.5025C132.702 36.5025 133.293 36.2368 133.615 35.7586L133.132 35.3866C133.024 35.546 132.81 35.7054 132.649 35.8117C132.434 35.918 132.219 35.9711 131.951 35.9711C131.576 35.9711 131.307 35.8117 131.039 35.546C130.824 35.2804 130.663 34.9084 130.663 34.4833H133.668V34.1645C133.668 33.4206 133.507 32.8892 133.185 32.5173C132.863 32.1453 132.434 31.9328 131.844 31.9328C131.522 31.9328 131.2 31.9859 130.878 32.1985C130.61 32.3579 130.341 32.6767 130.18 32.9955C130.019 33.3143 129.912 33.7394 129.912 34.1645V34.3239C129.912 35.0147 130.127 35.546 130.502 35.918ZM131.897 32.5707C131.575 32.5707 131.307 32.6769 131.146 32.8895C130.931 33.102 130.824 33.4208 130.771 33.8459H133.024V33.7928C133.024 33.4208 132.917 33.102 132.702 32.8895C132.434 32.6769 132.219 32.5707 131.897 32.5707ZM138.229 32.0391H137.478L135.439 35.2804V32.0391H134.688V36.4494H135.439L137.478 33.2081V36.4494H138.229V32.0391Z" fill="white"/>
</g>
</svg>
