<svg width="204" height="60" viewBox="0 0 204 60" fill="none" xmlns="http://www.w3.org/2000/svg">
<path d="M196.444 59.9944H7.55556C3.32444 59.9944 0 56.6944 0 52.4944V7.49438C0 3.29438 3.32444 -0.00561523 7.55556 -0.00561523H196.444C200.676 -0.00561523 204 3.29438 204 7.49438V52.4944C204 56.6944 200.676 59.9944 196.444 59.9944Z" fill="black"/>
<path d="M196.444 1.19438C199.92 1.19438 202.791 4.04438 202.791 7.49438V52.4944C202.791 55.9444 199.92 58.7944 196.444 58.7944H7.55556C4.08 58.7944 1.20889 55.9444 1.20889 52.4944V7.49438C1.20889 4.04438 4.08 1.19438 7.55556 1.19438H196.444ZM196.444 -0.00561523H7.55556C3.32444 -0.00561523 0 3.44438 0 7.49438V52.4944C0 56.6944 3.32444 59.9944 7.55556 59.9944H196.444C200.676 59.9944 204 56.6944 204 52.4944V7.49438C204 3.44438 200.676 -0.00561523 196.444 -0.00561523Z" fill="#A6A6A6"/>
<path d="M74.1929 18.3953L74.4722 14.1296H77.7539V20.6995H73.5771V20.6106C74.0024 20.1028 74.1294 19.4172 74.1929 18.3953ZM72.5552 21.9944H79.0171V23.8035H80.3184V20.6995H79.1758V12.8347H73.209L72.8726 18.3191C72.8027 19.5378 72.5742 20.3059 71.9204 20.6995H71.2539V23.8035H72.5552V21.9944ZM84.2504 18.8333L84.4408 16.2307H86.6307V21.9944H87.9955V15.0818H83.2347L82.9935 18.7634C82.911 19.9568 82.6698 20.7629 81.9969 20.7629C81.8255 20.7629 81.6922 20.7312 81.6288 20.7122V21.988C81.7113 22.0198 81.87 22.0642 82.0985 22.0642C83.6283 22.0642 84.1171 20.801 84.2504 18.8333ZM92.9748 18.5286C92.156 18.5286 91.6228 18.0652 91.6228 17.4114C91.6228 16.6814 92.1496 16.2307 92.9748 16.2307H94.2126V18.5286H92.9748ZM94.2126 21.9944H95.5583V15.0818H92.905C91.3117 15.0818 90.2707 15.9768 90.2707 17.4177C90.2707 18.3699 90.8547 19.1062 91.8069 19.3792L89.9216 21.9944H91.5085L93.1843 19.6267H94.2126V21.9944ZM106.399 20.8455H103.238V20.7375C103.549 20.3059 103.714 19.614 103.778 18.8333L103.968 16.2307H106.399V20.8455ZM102.438 23.8035V21.9944H107.567V23.8035H108.837V20.8455H107.758V15.0818H102.781L102.527 18.7634C102.464 19.6965 102.235 20.5344 101.727 20.8455H101.169V23.8035H102.438ZM114.197 14.9675C113.258 14.9675 112.445 15.4373 112.026 16.2244H111.925V15.0818H110.611V24.2351H111.975V20.947H112.083C112.445 21.677 113.226 22.1086 114.21 22.1086C115.955 22.1086 117.066 20.7312 117.066 18.5349C117.066 16.3386 115.955 14.9675 114.197 14.9675ZM113.81 20.8835C112.667 20.8835 111.95 19.9822 111.95 18.5413C111.95 17.094 112.667 16.1926 113.816 16.1926C114.971 16.1926 115.663 17.075 115.663 18.5349C115.663 20.0012 114.971 20.8835 113.81 20.8835ZM119.653 24.5081C121.062 24.5081 121.715 23.9622 122.306 22.28L124.883 15.0818H123.436L121.709 20.5725H121.601L119.868 15.0818H118.383L120.884 22.0198L120.782 22.3562C120.548 23.0544 120.179 23.3274 119.532 23.3274C119.405 23.3274 119.195 23.321 119.088 23.302V24.4763C119.215 24.5017 119.538 24.5081 119.653 24.5081ZM131.335 16.2307V15.0818H126.784V21.9944H128.148V16.2307H131.335ZM134.696 21.9944L137.939 17.2146H138.047V21.9944H139.399V15.0818H138.047L134.804 19.8362H134.696V15.0818H133.344V21.9944H134.696ZM144.468 19.5442L145.972 21.9944H147.54L145.236 18.4968L147.514 15.0818H145.997L144.525 17.5193H144.417L142.931 15.0818H141.338L143.649 18.554L141.357 21.9944H142.855L144.366 19.5442H144.468Z" fill="white"/>
<path d="M77.0676 32.7133C74.0761 32.7133 71 35.1105 71 39.3065C71 43.1423 73.7046 45.8517 77.0676 45.8517C79.8435 45.8517 81.0807 43.9885 81.0807 43.9885V44.8007C81.0807 45.1846 81.4437 45.6128 81.8929 45.6128H83.8995V33.0001H81.0807V34.6006C81.0807 34.6006 79.8332 32.7134 77.0676 32.7134V32.7133ZM77.5697 35.2924C80.0323 35.2924 81.3241 37.4582 81.3241 39.3055C81.3241 41.3631 79.7903 43.3172 77.5749 43.3172C75.7229 43.3172 73.8678 41.8173 73.8678 39.2783C73.8678 36.9865 75.4643 35.2924 77.5697 35.2924ZM87.8171 45.6129C87.3841 45.6129 87.0049 45.3023 87.0049 44.8007V33.0001H89.8237V34.5609C90.4625 33.6008 91.7104 32.7096 93.6258 32.7096C96.7564 32.7096 98.4234 35.2051 98.4234 37.5388V45.6129H96.4646C95.951 45.6129 95.6046 45.183 95.6046 44.753V38.1599C95.6046 36.8664 94.8121 35.2954 92.9792 35.2954C91.0014 35.2954 89.8237 37.1645 89.8237 38.9243V45.6129L87.8171 45.6129ZM106.641 32.7133C103.649 32.7133 100.573 35.1105 100.573 39.3065C100.573 43.1423 103.278 45.8517 106.641 45.8517C109.417 45.8517 110.654 43.9885 110.654 43.9885V44.8007C110.654 45.1846 111.017 45.6128 111.466 45.6128H113.473V26.6936H110.654V34.6005C110.654 34.6005 109.406 32.7134 106.641 32.7134V32.7133ZM107.143 35.2924C109.606 35.2924 110.897 37.4582 110.897 39.3055C110.897 41.3631 109.364 43.3172 107.148 43.3172C105.296 43.3172 103.441 41.8173 103.441 39.2783C103.441 36.9865 105.038 35.2924 107.143 35.2924ZM117.39 45.6129C116.957 45.6129 116.578 45.3023 116.578 44.8007V33.0001H119.397V35.1022C119.882 33.9246 120.929 32.8567 122.789 32.8567C123.308 32.8567 123.792 32.9523 123.792 32.9523V35.8666C123.792 35.8666 123.187 35.6277 122.455 35.6277C120.477 35.6277 119.397 37.4969 119.397 39.2566V45.6129L117.39 45.6129ZM140.896 45.6129C140.463 45.6129 140.084 45.3023 140.084 44.8007V33.0001H142.903V45.6129L140.896 45.6129ZM151.168 32.7133C148.177 32.7133 145.1 35.1105 145.1 39.3065C145.1 43.1423 147.805 45.8517 151.168 45.8517C153.944 45.8517 155.181 43.9885 155.181 43.9885V44.8007C155.181 45.1846 155.544 45.6128 155.993 45.6128H158V26.6936H155.181V34.6005C155.181 34.6005 153.934 32.7134 151.168 32.7134V32.7133ZM151.67 35.2924C154.133 35.2924 155.425 37.4582 155.425 39.3055C155.425 41.3631 153.891 43.3172 151.675 43.3172C149.823 43.3172 147.968 41.8173 147.968 39.2783C147.968 36.9865 149.565 35.2924 151.67 35.2924Z" fill="white"/>
<path d="M141.471 30.2795C142.501 30.2795 143.336 29.4449 143.336 28.4153C143.336 27.3857 142.501 26.551 141.471 26.551C140.442 26.551 139.607 27.3857 139.607 28.4153C139.607 29.4449 140.442 30.2795 141.471 30.2795Z" fill="white"/>
<path d="M131.226 32.7092C128.093 32.7092 124.651 35.0478 124.651 39.2841C124.651 43.1445 127.583 45.8523 131.219 45.8523C135.701 45.8523 137.889 42.2497 137.889 39.3086C137.889 35.6995 135.071 32.7092 131.226 32.7092ZM131.236 35.3416C133.403 35.3416 135.019 37.0877 135.019 39.292C135.019 41.5346 133.304 43.2651 131.243 43.2651C129.33 43.2651 127.471 41.7085 127.471 39.3298C127.471 36.9114 129.239 35.3416 131.236 35.3416Z" fill="white"/>
<path d="M47.8557 36.672C46.8225 36.672 45.982 35.8426 45.982 34.8238C45.982 33.8049 46.8225 32.9762 47.8557 32.9762C48.8891 32.9762 49.7295 33.8048 49.7295 34.8238C49.7295 35.8427 48.8891 36.672 47.8557 36.672ZM27.1443 36.672C26.1111 36.672 25.2706 35.8426 25.2706 34.8238C25.2706 33.8049 26.1109 32.9762 27.1443 32.9762C28.1775 32.9762 29.018 33.8048 29.018 34.8238C29.018 35.8427 28.1777 36.672 27.1443 36.672ZM48.5278 25.542L52.2727 19.1464C52.3758 18.9699 52.4037 18.7602 52.3502 18.5635C52.2967 18.3668 52.1663 18.199 51.9875 18.0969C51.8085 17.9953 51.596 17.9679 51.3965 18.0206C51.1969 18.0733 51.0268 18.2019 50.9233 18.3782L47.1315 24.8546C44.2316 23.5498 40.975 22.8229 37.5 22.8229C34.025 22.8229 30.7684 23.5498 27.8687 24.8546L24.0767 18.3782C23.9732 18.2019 23.8031 18.0733 23.6036 18.0206C23.404 17.9679 23.1915 17.9953 23.0125 18.0969C22.8336 18.1989 22.7031 18.3667 22.6496 18.5634C22.5961 18.7602 22.6241 18.9699 22.7273 19.1464L26.4722 25.542C20.0416 28.9907 15.6434 35.4102 15 42.9944H60C59.3561 35.4104 54.9579 28.9907 48.5278 25.5418" fill="#3DDB85"/>
</svg>
