<svg width="204" height="60" viewBox="0 0 204 60" fill="none" xmlns="http://www.w3.org/2000/svg">
<path d="M196.444 59.9944H7.55556C3.32444 59.9944 0 56.6944 0 52.4944V7.49438C0 3.29438 3.32444 -0.00561523 7.55556 -0.00561523H196.444C200.676 -0.00561523 204 3.29438 204 7.49438V52.4944C204 56.6944 200.676 59.9944 196.444 59.9944Z" fill="black"/>
<path d="M196.444 1.19438C199.92 1.19438 202.791 4.04438 202.791 7.49438V52.4944C202.791 55.9444 199.92 58.7944 196.444 58.7944H7.55556C4.08 58.7944 1.20889 55.9444 1.20889 52.4944V7.49438C1.20889 4.04438 4.08 1.19438 7.55556 1.19438H196.444ZM196.444 -0.00561523H7.55556C3.32444 -0.00561523 0 3.44438 0 7.49438V52.4944C0 56.6944 3.32444 59.9944 7.55556 59.9944H196.444C200.676 59.9944 204 56.6944 204 52.4944V7.49438C204 3.44438 200.676 -0.00561523 196.444 -0.00561523Z" fill="#A6A6A6"/>
<path d="M74.1929 18.3953L74.4722 14.1296H77.7539V20.6995H73.5771V20.6106C74.0024 20.1028 74.1294 19.4172 74.1929 18.3953ZM72.5552 21.9944H79.0171V23.8035H80.3184V20.6995H79.1758V12.8347H73.209L72.8726 18.3191C72.8027 19.5378 72.5742 20.3059 71.9204 20.6995H71.2539V23.8035H72.5552V21.9944ZM84.2504 18.8333L84.4408 16.2307H86.6307V21.9944H87.9955V15.0818H83.2347L82.9935 18.7634C82.911 19.9568 82.6698 20.7629 81.9969 20.7629C81.8255 20.7629 81.6922 20.7312 81.6288 20.7122V21.988C81.7113 22.0198 81.87 22.0642 82.0985 22.0642C83.6283 22.0642 84.1171 20.801 84.2504 18.8333ZM92.9748 18.5286C92.156 18.5286 91.6228 18.0652 91.6228 17.4114C91.6228 16.6814 92.1496 16.2307 92.9748 16.2307H94.2126V18.5286H92.9748ZM94.2126 21.9944H95.5583V15.0818H92.905C91.3117 15.0818 90.2707 15.9768 90.2707 17.4177C90.2707 18.3699 90.8547 19.1062 91.8069 19.3792L89.9216 21.9944H91.5085L93.1843 19.6267H94.2126V21.9944Z" fill="white"/>
<path d="M72.8921 46.9944H75.9072V33.6399H72.8921V46.9944ZM74.3936 31.467C75.5044 31.467 76.2612 30.759 76.2612 29.7947C76.2612 28.8303 75.5044 28.1223 74.3936 28.1223C73.2949 28.1223 72.5259 28.8303 72.5259 29.7947C72.5259 30.759 73.2949 31.467 74.3936 31.467ZM80.2344 29.3796V46.9944H83.3838V41.2205H87.2046C90.769 41.2205 93.2593 38.8279 93.2593 35.3367C93.2593 31.7844 90.8545 29.3796 87.3389 29.3796H80.2344ZM83.3838 32.0164H86.5088C88.7793 32.0164 90.061 33.176 90.061 35.3367C90.061 37.4363 88.7427 38.6082 86.4966 38.6082H83.3838V32.0164ZM96.793 46.9944H99.8203V39.2429C99.8203 37.3264 101.078 36.0325 103.067 36.0325C104.923 36.0325 105.899 37.0701 105.899 39.0964V46.9944H108.915V38.3762C108.915 35.2024 107.181 33.3958 104.19 33.3958C102.201 33.3958 100.626 34.2991 99.9912 35.8005H99.7715V28.4763H96.793V46.9944ZM118.527 44.7239C116.416 44.7239 115.207 43.1125 115.207 40.3171C115.207 37.5339 116.416 35.9104 118.527 35.9104C120.627 35.9104 121.835 37.5339 121.835 40.3171C121.835 43.1125 120.639 44.7239 118.527 44.7239ZM118.527 47.2629C122.519 47.2629 124.948 44.6506 124.948 40.3171C124.948 35.9958 122.507 33.3713 118.527 33.3713C114.56 33.3713 112.106 36.0081 112.106 40.3171C112.106 44.6506 114.523 47.2629 118.527 47.2629ZM128.25 46.9944H131.277V39.2185C131.277 37.2532 132.498 36.0081 134.451 36.0081C136.282 36.0081 137.21 37.0334 137.21 39.072V46.9944H140.225V38.3518C140.225 35.1658 138.553 33.3713 135.574 33.3713C133.572 33.3713 132.01 34.2869 131.375 35.7761H131.167V33.6399H128.25V46.9944ZM149.679 35.7761C151.498 35.7761 152.694 37.0457 152.755 39.0232H146.469C146.603 37.0701 147.873 35.7761 149.679 35.7761ZM152.78 43.3201C152.34 44.3088 151.303 44.8582 149.801 44.8582C147.812 44.8582 146.53 43.4666 146.457 41.2449V41.0862H155.783V40.1096C155.783 35.8982 153.5 33.3713 149.691 33.3713C145.822 33.3713 143.417 36.0691 143.417 40.366C143.417 44.6628 145.785 47.2629 149.716 47.2629C152.865 47.2629 155.075 45.7493 155.648 43.3201H152.78Z" fill="white"/>
<path d="M45.9625 30.161C45.9625 27.6452 47.2977 25.2774 49.523 23.9455C48.1878 22.0217 45.9625 20.8378 43.5887 20.6898C41.0667 20.3938 38.6929 22.1696 37.3577 22.1696C36.0225 22.1696 34.0939 20.6898 32.0169 20.6898C29.1981 20.8378 26.676 22.3176 25.3408 24.6854C22.522 29.569 24.599 36.9684 27.4178 40.964C28.753 42.8879 30.3849 45.1077 32.4619 45.1077C34.5389 44.9597 35.2807 43.7758 37.8028 43.7758C40.3249 43.7758 40.9183 45.1077 43.1437 45.1077C45.369 45.1077 46.7043 43.1838 48.0395 41.112C49.078 39.7801 49.8198 38.1523 50.2648 36.5244C47.5944 35.6365 45.9625 32.9727 45.9625 30.161Z" fill="white"/>
<path d="M41.8084 18.1739C42.9953 16.694 43.5887 14.9182 43.4404 12.9944C41.6601 13.1424 39.8798 14.0303 38.6929 15.5102C37.5061 16.842 36.9126 18.6179 37.061 20.5417C38.9896 20.5417 40.6216 19.6538 41.8084 18.1739Z" fill="white"/>
</svg>
